Hahmlet-Thin.ufo
<glyph name="exclam" format="2">
  <advance width="354"/>
  <unicode hex="0021"/>
  <outline>
    <contour>
      <point x="178" y="170" type="curve"/>
      <point x="182" y="170" type="line"/>
      <point x="187" y="170"/>
      <point x="188" y="171"/>
      <point x="188" y="176" type="curve"/>
      <point x="190" y="267"/>
      <point x="194" y="358"/>
      <point x="195" y="508" type="curve" smooth="yes"/>
      <point x="198" y="720" type="line"/>
      <point x="198" y="737"/>
      <point x="196" y="739"/>
      <point x="186" y="740" type="curve"/>
      <point x="178" y="741"/>
      <point x="170" y="741"/>
      <point x="163" y="740" type="curve"/>
      <point x="158" y="739"/>
      <point x="157" y="738"/>
      <point x="157" y="733" type="curve"/>
      <point x="158" y="508" type="line" smooth="yes"/>
      <point x="159" y="365"/>
      <point x="163" y="276"/>
      <point x="166" y="189" type="curve"/>
      <point x="166" y="172"/>
      <point x="168" y="170"/>
    </contour>
    <component base="period"/>
  </outline>
</glyph>
<glyph name="numbersign" format="2">
  <advance width="695"/>
  <unicode hex="0023"/>
  <outline>
    <contour>
      <point x="477" y="719" type="curve"/>
      <point x="361" y="6" type="line"/>
      <point x="360" y="1"/>
      <point x="361" y="0"/>
      <point x="366" y="0" type="curve"/>
      <point x="384" y="0" type="line"/>
      <point x="389" y="0"/>
      <point x="390" y="1"/>
      <point x="391" y="6" type="curve"/>
      <point x="503" y="684" type="line"/>
      <point x="512" y="719" type="line"/>
      <point x="513" y="724"/>
      <point x="512" y="725"/>
      <point x="507" y="725" type="curve"/>
      <point x="484" y="725" type="line"/>
      <point x="479" y="725"/>
      <point x="478" y="724"/>
    </contour>
    <contour>
      <point x="68" y="484" type="curve"/>
      <point x="66" y="465" type="line"/>
      <point x="65" y="460"/>
      <point x="66" y="459"/>
      <point x="71" y="459" type="curve"/>
      <point x="651" y="459" type="line"/>
      <point x="656" y="459"/>
      <point x="657" y="460"/>
      <point x="658" y="465" type="curve"/>
      <point x="659" y="473"/>
      <point x="660" y="480"/>
      <point x="660" y="488" type="curve"/>
      <point x="660" y="493"/>
      <point x="659" y="494"/>
      <point x="654" y="494" type="curve"/>
      <point x="605" y="490" type="line"/>
      <point x="75" y="490" type="line"/>
      <point x="70" y="490"/>
      <point x="69" y="489"/>
    </contour>
    <contour>
      <point x="38" y="264" type="curve"/>
      <point x="36" y="245" type="line"/>
      <point x="35" y="240"/>
      <point x="36" y="239"/>
      <point x="41" y="239" type="curve"/>
      <point x="621" y="239" type="line"/>
      <point x="626" y="239"/>
      <point x="627" y="240"/>
      <point x="628" y="245" type="curve"/>
      <point x="629" y="253"/>
      <point x="630" y="260"/>
      <point x="630" y="268" type="curve"/>
      <point x="630" y="273"/>
      <point x="629" y="274"/>
      <point x="624" y="274" type="curve"/>
      <point x="574" y="270" type="line"/>
      <point x="45" y="270" type="line"/>
      <point x="40" y="270"/>
      <point x="39" y="269"/>
    </contour>
    <contour>
      <point x="281" y="719" type="curve"/>
      <point x="165" y="6" type="line"/>
      <point x="164" y="1"/>
      <point x="165" y="0"/>
      <point x="170" y="0" type="curve"/>
      <point x="188" y="0" type="line"/>
      <point x="193" y="0"/>
      <point x="194" y="1"/>
      <point x="195" y="6" type="curve"/>
      <point x="307" y="684" type="line"/>
      <point x="316" y="719" type="line"/>
      <point x="317" y="724"/>
      <point x="316" y="725"/>
      <point x="311" y="725" type="curve"/>
      <point x="288" y="725" type="line"/>
      <point x="283" y="725"/>
      <point x="282" y="724"/>
    </contour>
  </outline>
</glyph>
<glyph name="dollar" format="2">
  <advance width="686"/>
  <unicode hex="0024"/>
  <outline>
    <contour>
      <point x="340" y="394" type="curve" smooth="yes"/>
      <point x="202" y="431"/>
      <point x="154" y="471"/>
      <point x="154" y="546" type="curve" smooth="yes"/>
      <point x="154" y="641"/>
      <point x="220" y="688"/>
      <point x="353" y="688" type="curve" smooth="yes"/>
      <point x="402" y="688"/>
      <point x="485" y="675"/>
      <point x="500" y="613" type="curve" smooth="yes"/>
      <point x="519" y="534" type="line"/>
      <point x="520" y="529"/>
      <point x="521" y="528"/>
      <point x="526" y="528" type="curve"/>
      <point x="542" y="529" type="line"/>
      <point x="547" y="529"/>
      <point x="548" y="530"/>
      <point x="547" y="535" type="curve"/>
      <point x="537" y="653" type="line"/>
      <point x="536" y="658"/>
      <point x="535" y="660"/>
      <point x="532" y="663" type="curve"/>
      <point x="506" y="686"/>
      <point x="440" y="720"/>
      <point x="353" y="720" type="curve" smooth="yes"/>
      <point x="203" y="720"/>
      <point x="116" y="656"/>
      <point x="116" y="546" type="curve" smooth="yes"/>
      <point x="116" y="452"/>
      <point x="170" y="405"/>
      <point x="330" y="361" type="curve" smooth="yes"/>
      <point x="486" y="318"/>
      <point x="527" y="284"/>
      <point x="527" y="194" type="curve" smooth="yes"/>
      <point x="527" y="100"/>
      <point x="454" y="45"/>
      <point x="327" y="45" type="curve" smooth="yes"/>
      <point x="263" y="45"/>
      <point x="159" y="57"/>
      <point x="140" y="137" type="curve" smooth="yes"/>
      <point x="125" y="198" type="line"/>
      <point x="124" y="203"/>
      <point x="123" y="204"/>
      <point x="118" y="204" type="curve"/>
      <point x="106" y="202" type="line"/>
      <point x="101" y="202"/>
      <point x="100" y="201"/>
      <point x="100" y="196" type="curve"/>
      <point x="111" y="75" type="line"/>
      <point x="111" y="70"/>
      <point x="112" y="68"/>
      <point x="116" y="66" type="curve"/>
      <point x="159" y="39"/>
      <point x="244" y="12"/>
      <point x="327" y="12" type="curve" smooth="yes"/>
      <point x="475" y="12"/>
      <point x="564" y="81"/>
      <point x="564" y="195" type="curve" smooth="yes"/>
      <point x="564" y="299"/>
      <point x="514" y="348"/>
    </contour>
    <contour>
      <point x="313" y="-75" type="curve"/>
      <point x="346" y="377" type="line"/>
      <point x="315" y="379" type="line"/>
      <point x="281" y="-88" type="line"/>
      <point x="281" y="-93"/>
      <point x="282" y="-94"/>
      <point x="287" y="-94" type="curve"/>
      <point x="300" y="-94" type="line"/>
      <point x="310" y="-94"/>
      <point x="312" y="-92"/>
    </contour>
    <contour>
      <point x="345" y="812" type="curve"/>
      <point x="315" y="379" type="line"/>
      <point x="346" y="377" type="line"/>
      <point x="374" y="796" type="line"/>
      <point x="380" y="819" type="line"/>
      <point x="381" y="824"/>
      <point x="380" y="825"/>
      <point x="375" y="826" type="curve"/>
      <point x="369" y="827"/>
      <point x="363" y="826"/>
      <point x="356" y="825" type="curve"/>
      <point x="347" y="825"/>
      <point x="346" y="823"/>
    </contour>
  </outline>
</glyph>
<glyph name="percent" format="2">
  <advance width="907"/>
  <unicode hex="0025"/>
  <outline>
    <contour>
      <point x="224" y="405" type="curve" smooth="yes"/>
      <point x="317" y="405"/>
      <point x="377" y="468"/>
      <point x="377" y="566" type="curve" smooth="yes"/>
      <point x="377" y="664"/>
      <point x="317" y="727"/>
      <point x="224" y="727" type="curve" smooth="yes"/>
      <point x="132" y="727"/>
      <point x="72" y="663"/>
      <point x="72" y="566" type="curve" smooth="yes"/>
      <point x="72" y="469"/>
      <point x="132" y="405"/>
    </contour>
    <contour>
      <point x="225" y="431" type="curve" smooth="yes"/>
      <point x="154" y="431"/>
      <point x="108" y="484"/>
      <point x="108" y="566" type="curve" smooth="yes"/>
      <point x="108" y="647"/>
      <point x="154" y="700"/>
      <point x="225" y="700" type="curve" smooth="yes"/>
      <point x="294" y="700"/>
      <point x="341" y="646"/>
      <point x="341" y="566" type="curve" smooth="yes"/>
      <point x="341" y="484"/>
      <point x="295" y="431"/>
    </contour>
    <contour>
      <point x="682" y="-6" type="curve" smooth="yes"/>
      <point x="775" y="-6"/>
      <point x="835" y="57"/>
      <point x="835" y="155" type="curve" smooth="yes"/>
      <point x="835" y="253"/>
      <point x="775" y="316"/>
      <point x="682" y="316" type="curve" smooth="yes"/>
      <point x="590" y="316"/>
      <point x="530" y="252"/>
      <point x="530" y="155" type="curve" smooth="yes"/>
      <point x="530" y="58"/>
      <point x="590" y="-6"/>
    </contour>
    <contour>
      <point x="683" y="20" type="curve" smooth="yes"/>
      <point x="612" y="20"/>
      <point x="566" y="73"/>
      <point x="566" y="155" type="curve" smooth="yes"/>
      <point x="566" y="236"/>
      <point x="612" y="289"/>
      <point x="683" y="289" type="curve" smooth="yes"/>
      <point x="752" y="289"/>
      <point x="799" y="235"/>
      <point x="799" y="155" type="curve" smooth="yes"/>
      <point x="799" y="73"/>
      <point x="753" y="20"/>
    </contour>
    <component base="fraction" xOffset="357"/>
  </outline>
</glyph>
<glyph name="ampersand" format="2">
  <advance width="750"/>
  <unicode hex="0026"/>
  <outline>
    <contour>
      <point x="685" y="-4" type="curve"/>
      <point x="694" y="3"/>
      <point x="706" y="18"/>
      <point x="712" y="29" type="curve"/>
      <point x="715" y="33"/>
      <point x="714" y="34"/>
      <point x="709" y="36" type="curve"/>
      <point x="670" y="47" type="line"/>
      <point x="610" y="77"/>
      <point x="547" y="120"/>
      <point x="502" y="160" type="curve"/>
      <point x="272" y="388" type="line"/>
      <point x="190" y="458"/>
      <point x="156" y="515"/>
      <point x="156" y="581" type="curve" smooth="yes"/>
      <point x="156" y="655"/>
      <point x="212" y="706"/>
      <point x="292" y="706" type="curve" smooth="yes"/>
      <point x="367" y="706"/>
      <point x="416" y="660"/>
      <point x="416" y="589" type="curve" smooth="yes"/>
      <point x="416" y="516"/>
      <point x="378" y="474"/>
      <point x="241" y="393" type="curve"/>
      <point x="267" y="372" type="line"/>
      <point x="405" y="456"/>
      <point x="455" y="515"/>
      <point x="455" y="595" type="curve" smooth="yes"/>
      <point x="455" y="682"/>
      <point x="391" y="739"/>
      <point x="293" y="739" type="curve" smooth="yes"/>
      <point x="188" y="739"/>
      <point x="117" y="675"/>
      <point x="117" y="582" type="curve" smooth="yes"/>
      <point x="117" y="507"/>
      <point x="156" y="442"/>
      <point x="250" y="359" type="curve"/>
      <point x="480" y="133" type="line"/>
      <point x="528" y="90"/>
      <point x="602" y="38"/>
      <point x="675" y="-4" type="curve"/>
      <point x="679" y="-7"/>
      <point x="681" y="-6"/>
    </contour>
    <contour>
      <point x="262" y="-6" type="curve" smooth="yes"/>
      <point x="368" y="-6"/>
      <point x="452" y="43"/>
      <point x="516" y="124" type="curve"/>
      <point x="491" y="141" type="line"/>
      <point x="433" y="70"/>
      <point x="359" y="27"/>
      <point x="264" y="27" type="curve" smooth="yes"/>
      <point x="166" y="27"/>
      <point x="98" y="88"/>
      <point x="98" y="167" type="curve" smooth="yes"/>
      <point x="98" y="244"/>
      <point x="139" y="295"/>
      <point x="263" y="375" type="curve"/>
      <point x="238" y="395" type="line"/>
      <point x="105" y="311"/>
      <point x="59" y="252"/>
      <point x="59" y="167" type="curve" smooth="yes"/>
      <point x="59" y="72"/>
      <point x="140" y="-6"/>
    </contour>
    <contour>
      <point x="491" y="141" type="curve"/>
      <point x="516" y="124" type="line"/>
      <point x="569" y="189"/>
      <point x="602" y="253"/>
      <point x="617" y="317" type="curve"/>
      <point x="619" y="327"/>
      <point x="625" y="334"/>
      <point x="634" y="335" type="curve"/>
      <point x="726" y="345" type="line"/>
      <point x="731" y="346"/>
      <point x="732" y="347"/>
      <point x="732" y="352" type="curve"/>
      <point x="732" y="360" type="line"/>
      <point x="732" y="365"/>
      <point x="731" y="366"/>
      <point x="726" y="366" type="curve"/>
      <point x="459" y="366" type="line"/>
      <point x="454" y="366"/>
      <point x="453" y="365"/>
      <point x="453" y="360" type="curve"/>
      <point x="453" y="352" type="line"/>
      <point x="453" y="347"/>
      <point x="454" y="346"/>
      <point x="459" y="345" type="curve"/>
      <point x="568" y="336" type="line"/>
      <point x="578" y="335"/>
      <point x="584" y="330"/>
      <point x="582" y="321" type="curve"/>
      <point x="566" y="256"/>
      <point x="533" y="191"/>
    </contour>
  </outline>
</glyph>
<glyph name="quotesingle" format="2">
  <advance width="250"/>
  <unicode hex="0027"/>
  <outline>
    <contour>
      <point x="120" y="514" type="curve"/>
      <point x="131" y="517" type="line"/>
      <point x="136" y="518"/>
      <point x="137" y="519"/>
      <point x="137" y="524" type="curve"/>
      <point x="149" y="764" type="line"/>
      <point x="149" y="769"/>
      <point x="148" y="770"/>
      <point x="143" y="770" type="curve"/>
      <point x="130" y="771"/>
      <point x="115" y="768"/>
      <point x="105" y="764" type="curve"/>
      <point x="101" y="761"/>
      <point x="100" y="760"/>
      <point x="101" y="755" type="curve"/>
      <point x="105" y="723"/>
      <point x="111" y="595"/>
      <point x="114" y="519" type="curve"/>
      <point x="114" y="514"/>
      <point x="115" y="513"/>
    </contour>
  </outline>
</glyph>
<glyph name="parenleft" format="2">
  <advance width="395"/>
  <unicode hex="0028"/>
  <outline>
    <contour>
      <point x="341" y="-128" type="curve"/>
      <point x="348" y="-118" type="line"/>
      <point x="351" y="-114"/>
      <point x="351" y="-112"/>
      <point x="347" y="-109" type="curve"/>
      <point x="181" y="22"/>
      <point x="135" y="189"/>
      <point x="135" y="353" type="curve" smooth="yes"/>
      <point x="135" y="517"/>
      <point x="181" y="684"/>
      <point x="347" y="816" type="curve"/>
      <point x="351" y="819"/>
      <point x="351" y="821"/>
      <point x="348" y="825" type="curve"/>
      <point x="341" y="834" type="line"/>
      <point x="338" y="838"/>
      <point x="336" y="838"/>
      <point x="332" y="835" type="curve"/>
      <point x="150" y="692"/>
      <point x="96" y="523"/>
      <point x="96" y="353" type="curve" smooth="yes"/>
      <point x="96" y="183"/>
      <point x="150" y="14"/>
      <point x="332" y="-129" type="curve"/>
      <point x="336" y="-132"/>
      <point x="338" y="-132"/>
    </contour>
  </outline>
</glyph>
<glyph name="asterisk" format="2">
  <advance width="686"/>
  <unicode hex="002A"/>
  <outline>
    <contour>
      <point x="360" y="786" type="curve"/>
      <point x="325" y="564" type="line"/>
      <point x="283" y="350" type="line"/>
      <point x="282" y="345"/>
      <point x="283" y="344"/>
      <point x="288" y="342" type="curve"/>
      <point x="294" y="340"/>
      <point x="301" y="338"/>
      <point x="309" y="337" type="curve"/>
      <point x="314" y="337"/>
      <point x="315" y="338"/>
      <point x="316" y="343" type="curve"/>
      <point x="351" y="560" type="line"/>
      <point x="394" y="784" type="line"/>
      <point x="395" y="789"/>
      <point x="394" y="790"/>
      <point x="389" y="791" type="curve"/>
      <point x="382" y="792"/>
      <point x="375" y="793"/>
      <point x="367" y="792" type="curve"/>
      <point x="362" y="792"/>
      <point x="361" y="791"/>
    </contour>
    <contour>
      <point x="141" y="465" type="curve"/>
      <point x="347" y="553" type="line"/>
      <point x="556" y="639" type="line"/>
      <point x="561" y="641"/>
      <point x="562" y="642"/>
      <point x="561" y="647" type="curve"/>
      <point x="560" y="653"/>
      <point x="557" y="660"/>
      <point x="554" y="666" type="curve"/>
      <point x="551" y="670"/>
      <point x="550" y="671"/>
      <point x="546" y="669" type="curve"/>
      <point x="329" y="570" type="line"/>
      <point x="132" y="496" type="line"/>
      <point x="127" y="494"/>
      <point x="126" y="493"/>
      <point x="126" y="488" type="curve"/>
      <point x="127" y="481"/>
      <point x="128" y="474"/>
      <point x="132" y="468" type="curve"/>
      <point x="134" y="464"/>
      <point x="136" y="463"/>
    </contour>
    <contour>
      <point x="174" y="692" type="curve"/>
      <point x="327" y="553" type="line"/>
      <point x="494" y="394" type="line"/>
      <point x="497" y="391"/>
      <point x="499" y="390"/>
      <point x="504" y="392" type="curve"/>
      <point x="510" y="395"/>
      <point x="515" y="400"/>
      <point x="520" y="405" type="curve"/>
      <point x="523" y="409"/>
      <point x="523" y="411"/>
      <point x="520" y="414" type="curve"/>
      <point x="348" y="570" type="line"/>
      <point x="191" y="723" type="line"/>
      <point x="188" y="726"/>
      <point x="186" y="726"/>
      <point x="182" y="723" type="curve"/>
      <point x="180" y="721"/>
      <point x="177" y="719"/>
      <point x="175" y="716" type="curve"/>
      <point x="166" y="702"/>
      <point x="166" y="699"/>
    </contour>
  </outline>
</glyph>
<glyph name="plus" format="2">
  <advance width="670"/>
  <unicode hex="002B"/>
  <outline>
    <contour>
      <point x="39" y="299" type="curve"/>
      <point x="38" y="293"/>
      <point x="38" y="288"/>
      <point x="39" y="282" type="curve"/>
      <point x="40" y="277"/>
      <point x="41" y="276"/>
      <point x="46" y="276" type="curve"/>
      <point x="624" y="276" type="line"/>
      <point x="629" y="276"/>
      <point x="630" y="277"/>
      <point x="631" y="282" type="curve"/>
      <point x="633" y="288"/>
      <point x="633" y="294"/>
      <point x="633" y="301" type="curve"/>
      <point x="633" y="306"/>
      <point x="632" y="307"/>
      <point x="627" y="307" type="curve"/>
      <point x="558" y="305" type="line"/>
      <point x="46" y="305" type="line"/>
      <point x="41" y="305"/>
      <point x="40" y="304"/>
    </contour>
    <contour>
      <point x="351" y="6" type="curve"/>
      <point x="351" y="559" type="line"/>
      <point x="351" y="564"/>
      <point x="350" y="565"/>
      <point x="345" y="565" type="curve"/>
      <point x="337" y="565"/>
      <point x="329" y="565"/>
      <point x="321" y="564" type="curve"/>
      <point x="316" y="563"/>
      <point x="315" y="562"/>
      <point x="315" y="557" type="curve"/>
      <point x="318" y="507" type="line"/>
      <point x="318" y="6" type="line"/>
      <point x="318" y="1"/>
      <point x="319" y="0"/>
      <point x="324" y="-1" type="curve"/>
      <point x="331" y="-2"/>
      <point x="338" y="-2"/>
      <point x="345" y="-1" type="curve"/>
      <point x="350" y="0"/>
      <point x="351" y="1"/>
    </contour>
  </outline>
</glyph>
<glyph name="comma" format="2">
  <advance width="354"/>
  <unicode hex="002C"/>
  <outline>
    <contour>
      <point x="129" y="-186" type="curve"/>
      <point x="168" y="-167"/>
      <point x="217" y="-123"/>
      <point x="217" y="-33" type="curve" smooth="yes"/>
      <point x="217" y="22"/>
      <point x="196" y="69"/>
      <point x="178" y="69" type="curve" smooth="yes"/>
      <point x="165" y="69"/>
      <point x="144" y="48"/>
      <point x="135" y="32" type="curve"/>
      <point x="132" y="28"/>
      <point x="133" y="26"/>
      <point x="136" y="23" type="curve"/>
      <point x="155" y="4"/>
      <point x="178" y="-23"/>
      <point x="178" y="-66" type="curve" smooth="yes"/>
      <point x="178" y="-119"/>
      <point x="148" y="-151"/>
      <point x="118" y="-172" type="curve"/>
      <point x="114" y="-174"/>
      <point x="114" y="-176"/>
      <point x="117" y="-180" type="curve"/>
      <point x="120" y="-184" type="line"/>
      <point x="123" y="-188"/>
      <point x="125" y="-189"/>
    </contour>
  </outline>
</glyph>
<glyph name="hyphen" format="2">
  <advance width="346"/>
  <unicode hex="002D"/>
  <outline>
    <contour>
      <point x="37" y="260" type="curve"/>
      <point x="295" y="260" type="line"/>
      <point x="300" y="260"/>
      <point x="301" y="261"/>
      <point x="303" y="266" type="curve"/>
      <point x="304" y="273"/>
      <point x="305" y="281"/>
      <point x="304" y="288" type="curve"/>
      <point x="304" y="293"/>
      <point x="303" y="294"/>
      <point x="298" y="294" type="curve"/>
      <point x="257" y="291" type="line"/>
      <point x="42" y="291" type="line"/>
      <point x="37" y="291"/>
      <point x="36" y="290"/>
      <point x="35" y="285" type="curve"/>
      <point x="32" y="266" type="line"/>
      <point x="31" y="261"/>
      <point x="32" y="260"/>
    </contour>
  </outline>
</glyph>
<glyph name="period" format="2">
  <advance width="354"/>
  <unicode hex="002E"/>
  <outline>
    <contour>
      <point x="177" y="-6" type="curve" smooth="yes"/>
      <point x="202" y="-6"/>
      <point x="220" y="12"/>
      <point x="220" y="36" type="curve" smooth="yes"/>
      <point x="220" y="60"/>
      <point x="202" y="78"/>
      <point x="177" y="78" type="curve" smooth="yes"/>
      <point x="152" y="78"/>
      <point x="134" y="60"/>
      <point x="134" y="36" type="curve" smooth="yes"/>
      <point x="134" y="12"/>
      <point x="152" y="-6"/>
    </contour>
  </outline>
</glyph>
<glyph name="slash" format="2">
  <advance width="383"/>
  <unicode hex="002F"/>
  <outline>
    <contour>
      <point x="324" y="740" type="curve"/>
      <point x="315" y="709" type="line"/>
      <point x="30" y="-10" type="line"/>
      <point x="23" y="-27"/>
      <point x="24" y="-29"/>
      <point x="33" y="-31" type="curve"/>
      <point x="39" y="-33"/>
      <point x="45" y="-33"/>
      <point x="51" y="-34" type="curve"/>
      <point x="55" y="-34"/>
      <point x="56" y="-33"/>
      <point x="58" y="-28" type="curve"/>
      <point x="67" y="2" type="line"/>
      <point x="354" y="725" type="line"/>
      <point x="360" y="741"/>
      <point x="359" y="743"/>
      <point x="351" y="744" type="curve"/>
      <point x="345" y="745"/>
      <point x="338" y="746"/>
      <point x="332" y="746" type="curve"/>
      <point x="327" y="746"/>
      <point x="326" y="745"/>
    </contour>
  </outline>
</glyph>
<glyph name="zero" format="2">
  <advance width="639"/>
  <unicode hex="0030"/>
  <outline>
    <contour>
      <point x="317" y="-6" type="curve" smooth="yes"/>
      <point x="475" y="-6"/>
      <point x="575" y="136"/>
      <point x="575" y="360" type="curve" smooth="yes"/>
      <point x="575" y="583"/>
      <point x="475" y="725"/>
      <point x="317" y="725" type="curve" smooth="yes"/>
      <point x="164" y="725"/>
      <point x="64" y="581"/>
      <point x="64" y="360" type="curve" smooth="yes"/>
      <point x="64" y="139"/>
      <point x="164" y="-6"/>
    </contour>
    <contour>
      <point x="316" y="27" type="curve" smooth="yes"/>
      <point x="183" y="27"/>
      <point x="102" y="153"/>
      <point x="102" y="360" type="curve" smooth="yes"/>
      <point x="102" y="566"/>
      <point x="183" y="692"/>
      <point x="316" y="692" type="curve" smooth="yes"/>
      <point x="454" y="692"/>
      <point x="537" y="567"/>
      <point x="537" y="360" type="curve" smooth="yes"/>
      <point x="537" y="152"/>
      <point x="454" y="27"/>
    </contour>
  </outline>
</glyph>
<glyph name="one" format="2">
  <advance width="483"/>
  <unicode hex="0031"/>
  <outline>
    <contour>
      <point x="443" y="20" type="curve"/>
      <point x="294" y="29" type="line"/>
      <point x="281" y="30"/>
      <point x="277" y="32"/>
      <point x="277" y="43" type="curve"/>
      <point x="277" y="717" type="line"/>
      <point x="277" y="728"/>
      <point x="274" y="730"/>
      <point x="259" y="723" type="curve"/>
      <point x="68" y="640" type="line"/>
      <point x="63" y="638"/>
      <point x="62" y="637"/>
      <point x="64" y="632" type="curve"/>
      <point x="66" y="625" type="line"/>
      <point x="68" y="620"/>
      <point x="69" y="619"/>
      <point x="74" y="621" type="curve"/>
      <point x="258" y="684" type="line"/>
      <point x="241" y="689" type="line"/>
      <point x="241" y="47" type="line"/>
      <point x="241" y="34"/>
      <point x="239" y="30"/>
      <point x="228" y="29" type="curve"/>
      <point x="99" y="20" type="line"/>
      <point x="94" y="20"/>
      <point x="93" y="19"/>
      <point x="93" y="14" type="curve"/>
      <point x="93" y="6" type="line"/>
      <point x="93" y="1"/>
      <point x="94" y="0"/>
      <point x="99" y="0" type="curve"/>
      <point x="443" y="0" type="line"/>
      <point x="448" y="0"/>
      <point x="449" y="1"/>
      <point x="449" y="6" type="curve"/>
      <point x="449" y="14" type="line"/>
      <point x="449" y="19"/>
      <point x="448" y="20"/>
    </contour>
  </outline>
</glyph>
<glyph name="two" format="2">
  <advance width="571"/>
  <unicode hex="0032"/>
  <outline>
    <contour>
      <point x="46" y="0" type="curve"/>
      <point x="431" y="0" type="line"/>
      <point x="500" y="-5" type="line"/>
      <point x="505" y="-5"/>
      <point x="506" y="-4"/>
      <point x="507" y="1" type="curve"/>
      <point x="523" y="146" type="line"/>
      <point x="524" y="151"/>
      <point x="523" y="152"/>
      <point x="518" y="153" type="curve"/>
      <point x="512" y="153" type="line"/>
      <point x="507" y="154"/>
      <point x="506" y="153"/>
      <point x="504" y="148" type="curve"/>
      <point x="472" y="47" type="line"/>
      <point x="469" y="38"/>
      <point x="463" y="31"/>
      <point x="454" y="31" type="curve"/>
      <point x="72" y="31" type="line"/>
      <point x="80" y="13" type="line"/>
      <point x="428" y="364"/>
      <point x="474" y="426"/>
      <point x="474" y="530" type="curve" smooth="yes"/>
      <point x="474" y="650"/>
      <point x="393" y="727"/>
      <point x="267" y="727" type="curve" smooth="yes"/>
      <point x="161" y="727"/>
      <point x="86" y="671"/>
      <point x="59" y="572" type="curve"/>
      <point x="57" y="567"/>
      <point x="58" y="566"/>
      <point x="63" y="565" type="curve"/>
      <point x="75" y="562" type="line"/>
      <point x="80" y="561"/>
      <point x="81" y="562"/>
      <point x="83" y="567" type="curve"/>
      <point x="115" y="652"/>
      <point x="173" y="694"/>
      <point x="261" y="694" type="curve" smooth="yes"/>
      <point x="370" y="694"/>
      <point x="436" y="631"/>
      <point x="436" y="528" type="curve" smooth="yes"/>
      <point x="436" y="437"/>
      <point x="398" y="384"/>
      <point x="107" y="83" type="curve"/>
      <point x="86" y="63"/>
      <point x="73" y="49"/>
      <point x="52" y="28" type="curve"/>
      <point x="41" y="18" type="line"/>
      <point x="38" y="15"/>
      <point x="37" y="13"/>
      <point x="38" y="8" type="curve"/>
      <point x="39" y="6" type="line"/>
      <point x="40" y="1"/>
      <point x="41" y="0"/>
    </contour>
  </outline>
</glyph>
<glyph name="three" format="2">
  <advance width="571"/>
  <unicode hex="0033"/>
  <outline>
    <contour>
      <point x="258" y="-6" type="curve" smooth="yes"/>
      <point x="407" y="-6"/>
      <point x="502" y="71"/>
      <point x="502" y="192" type="curve" smooth="yes"/>
      <point x="502" y="311"/>
      <point x="408" y="382"/>
      <point x="257" y="382" type="curve"/>
      <point x="257" y="365" type="line"/>
      <point x="382" y="365"/>
      <point x="476" y="443"/>
      <point x="476" y="550" type="curve" smooth="yes"/>
      <point x="476" y="654"/>
      <point x="394" y="727"/>
      <point x="276" y="727" type="curve" smooth="yes"/>
      <point x="178" y="727"/>
      <point x="100" y="679"/>
      <point x="64" y="598" type="curve"/>
      <point x="62" y="593"/>
      <point x="63" y="592"/>
      <point x="68" y="590" type="curve"/>
      <point x="80" y="584" type="line"/>
      <point x="85" y="582"/>
      <point x="86" y="583"/>
      <point x="89" y="587" type="curve"/>
      <point x="129" y="659"/>
      <point x="191" y="695"/>
      <point x="274" y="695" type="curve" smooth="yes"/>
      <point x="370" y="695"/>
      <point x="438" y="635"/>
      <point x="438" y="550" type="curve" smooth="yes"/>
      <point x="438" y="458"/>
      <point x="366" y="394"/>
      <point x="249" y="381" type="curve" smooth="yes"/>
      <point x="200" y="376" type="line"/>
      <point x="195" y="375"/>
      <point x="194" y="374"/>
      <point x="193" y="369" type="curve"/>
      <point x="189" y="350" type="line"/>
      <point x="188" y="345"/>
      <point x="189" y="344"/>
      <point x="194" y="345" type="curve"/>
      <point x="249" y="350" type="line" smooth="yes"/>
      <point x="375" y="362"/>
      <point x="464" y="297"/>
      <point x="464" y="192" type="curve" smooth="yes"/>
      <point x="464" y="89"/>
      <point x="385" y="26"/>
      <point x="256" y="26" type="curve" smooth="yes"/>
      <point x="90" y="26"/>
      <point x="107" y="133"/>
      <point x="64" y="133" type="curve" smooth="yes"/>
      <point x="51" y="133"/>
      <point x="44" y="124"/>
      <point x="44" y="110" type="curve" smooth="yes"/>
      <point x="44" y="61"/>
      <point x="122" y="-6"/>
    </contour>
  </outline>
</glyph>
<glyph name="four" format="2">
  <advance width="629"/>
  <unicode hex="0034"/>
  <outline>
    <contour>
      <point x="256" y="0" type="curve"/>
      <point x="583" y="0" type="line"/>
      <point x="588" y="0"/>
      <point x="589" y="1"/>
      <point x="589" y="6" type="curve"/>
      <point x="589" y="14" type="line"/>
      <point x="589" y="19"/>
      <point x="588" y="20"/>
      <point x="583" y="20" type="curve"/>
      <point x="449" y="29" type="line"/>
      <point x="436" y="30"/>
      <point x="432" y="32"/>
      <point x="432" y="43" type="curve"/>
      <point x="432" y="617" type="line"/>
      <point x="432" y="627"/>
      <point x="432" y="638"/>
      <point x="433" y="647" type="curve"/>
      <point x="437" y="717" type="line"/>
      <point x="437" y="722"/>
      <point x="436" y="723"/>
      <point x="431" y="725" type="curve"/>
      <point x="428" y="725" type="line"/>
      <point x="423" y="727"/>
      <point x="421" y="726"/>
      <point x="418" y="722" type="curve"/>
      <point x="33" y="242" type="line"/>
      <point x="30" y="238"/>
      <point x="29" y="236"/>
      <point x="29" y="231" type="curve"/>
      <point x="29" y="226" type="line"/>
      <point x="29" y="221"/>
      <point x="30" y="220"/>
      <point x="35" y="220" type="curve"/>
      <point x="586" y="220" type="line"/>
      <point x="591" y="220"/>
      <point x="592" y="221"/>
      <point x="593" y="226" type="curve"/>
      <point x="594" y="232"/>
      <point x="594" y="238"/>
      <point x="594" y="244" type="curve"/>
      <point x="594" y="255"/>
      <point x="593" y="257"/>
      <point x="580" y="255" type="curve"/>
      <point x="544" y="249" type="line"/>
      <point x="46" y="249" type="line"/>
      <point x="64" y="231" type="line"/>
      <point x="414" y="667" type="line"/>
      <point x="395" y="666" type="line"/>
      <point x="395" y="47" type="line"/>
      <point x="395" y="34"/>
      <point x="393" y="30"/>
      <point x="382" y="29" type="curve"/>
      <point x="256" y="20" type="line"/>
      <point x="251" y="20"/>
      <point x="250" y="19"/>
      <point x="250" y="14" type="curve"/>
      <point x="250" y="6" type="line"/>
      <point x="250" y="1"/>
      <point x="251" y="0"/>
    </contour>
  </outline>
</glyph>
<glyph name="five" format="2">
  <advance width="609"/>
  <unicode hex="0035"/>
  <outline>
    <contour>
      <point x="279" y="-6" type="curve" smooth="yes"/>
      <point x="422" y="-6"/>
      <point x="513" y="74"/>
      <point x="513" y="199" type="curve" smooth="yes"/>
      <point x="513" y="339"/>
      <point x="401" y="412"/>
      <point x="186" y="412" type="curve" smooth="yes"/>
      <point x="168" y="412"/>
      <point x="139" y="411"/>
      <point x="126" y="410" type="curve"/>
      <point x="151" y="394" type="line"/>
      <point x="188" y="686" type="line"/>
      <point x="157" y="677" type="line"/>
      <point x="497" y="677" type="line"/>
      <point x="502" y="677"/>
      <point x="504" y="678"/>
      <point x="506" y="682" type="curve"/>
      <point x="511" y="690"/>
      <point x="515" y="698"/>
      <point x="518" y="709" type="curve"/>
      <point x="520" y="720"/>
      <point x="519" y="722"/>
      <point x="506" y="719" type="curve"/>
      <point x="456" y="710" type="line"/>
      <point x="162" y="710" type="line"/>
      <point x="157" y="710"/>
      <point x="156" y="709"/>
      <point x="155" y="704" type="curve"/>
      <point x="116" y="388" type="line"/>
      <point x="115" y="383"/>
      <point x="116" y="382"/>
      <point x="121" y="382" type="curve"/>
      <point x="137" y="383"/>
      <point x="155" y="383"/>
      <point x="184" y="383" type="curve" smooth="yes"/>
      <point x="373" y="383"/>
      <point x="475" y="319"/>
      <point x="475" y="199" type="curve" smooth="yes"/>
      <point x="475" y="91"/>
      <point x="401" y="26"/>
      <point x="277" y="26" type="curve" smooth="yes"/>
      <point x="109" y="26"/>
      <point x="128" y="133"/>
      <point x="85" y="133" type="curve" smooth="yes"/>
      <point x="72" y="133"/>
      <point x="65" y="124"/>
      <point x="65" y="110" type="curve" smooth="yes"/>
      <point x="65" y="61"/>
      <point x="142" y="-6"/>
    </contour>
  </outline>
</glyph>
<glyph name="six" format="2">
  <advance width="609"/>
  <unicode hex="0036"/>
  <outline>
    <contour>
      <point x="315" y="-6" type="curve" smooth="yes"/>
      <point x="456" y="-6"/>
      <point x="551" y="83"/>
      <point x="551" y="217" type="curve" smooth="yes"/>
      <point x="551" y="339"/>
      <point x="458" y="422"/>
      <point x="320" y="422" type="curve" smooth="yes"/>
      <point x="227" y="422"/>
      <point x="130" y="378"/>
      <point x="73" y="310" type="curve"/>
      <point x="84" y="292" type="line"/>
      <point x="155" y="358"/>
      <point x="228" y="389"/>
      <point x="314" y="389" type="curve" smooth="yes"/>
      <point x="438" y="389"/>
      <point x="513" y="322"/>
      <point x="513" y="211" type="curve" smooth="yes"/>
      <point x="513" y="98"/>
      <point x="439" y="28"/>
      <point x="321" y="28" type="curve" smooth="yes"/>
      <point x="178" y="28"/>
      <point x="102" y="127"/>
      <point x="102" y="314" type="curve" smooth="yes"/>
      <point x="102" y="551"/>
      <point x="251" y="698"/>
      <point x="495" y="701" type="curve"/>
      <point x="500" y="701"/>
      <point x="501" y="702"/>
      <point x="500" y="707" type="curve"/>
      <point x="499" y="718" type="line"/>
      <point x="498" y="723"/>
      <point x="497" y="724"/>
      <point x="492" y="724" type="curve"/>
      <point x="230" y="732"/>
      <point x="64" y="570"/>
      <point x="64" y="306" type="curve" smooth="yes"/>
      <point x="64" y="108"/>
      <point x="156" y="-6"/>
    </contour>
  </outline>
</glyph>
<glyph name="seven" format="2">
  <advance width="578"/>
  <unicode hex="0037"/>
  <outline>
    <contour>
      <point x="229" y="0" type="curve"/>
      <point x="280" y="128" type="line"/>
      <point x="537" y="699" type="line"/>
      <point x="539" y="703"/>
      <point x="539" y="705"/>
      <point x="538" y="710" type="curve"/>
      <point x="537" y="712" type="line"/>
      <point x="536" y="717"/>
      <point x="535" y="718"/>
      <point x="530" y="718" type="curve"/>
      <point x="127" y="718" type="line"/>
      <point x="89" y="722" type="line"/>
      <point x="78" y="723"/>
      <point x="76" y="722"/>
      <point x="74" y="709" type="curve"/>
      <point x="47" y="549" type="line"/>
      <point x="46" y="544"/>
      <point x="47" y="543"/>
      <point x="52" y="543" type="curve"/>
      <point x="64" y="543" type="line"/>
      <point x="69" y="543"/>
      <point x="70" y="544"/>
      <point x="72" y="549" type="curve"/>
      <point x="106" y="671" type="line"/>
      <point x="109" y="680"/>
      <point x="115" y="687"/>
      <point x="124" y="687" type="curve"/>
      <point x="506" y="687" type="line"/>
      <point x="506" y="704" type="line"/>
      <point x="192" y="21" type="line"/>
      <point x="185" y="6"/>
      <point x="186" y="3"/>
      <point x="195" y="0" type="curve"/>
      <point x="203" y="-3"/>
      <point x="212" y="-5"/>
      <point x="221" y="-6" type="curve"/>
      <point x="226" y="-6"/>
      <point x="227" y="-5"/>
    </contour>
  </outline>
</glyph>
<glyph name="eight" format="2">
  <advance width="617"/>
  <unicode hex="0038"/>
  <outline>
    <contour>
      <point x="311" y="390" type="curve" smooth="yes"/>
      <point x="210" y="437"/>
      <point x="151" y="490"/>
      <point x="151" y="563" type="curve" smooth="yes"/>
      <point x="151" y="640"/>
      <point x="219" y="693"/>
      <point x="313" y="693" type="curve" smooth="yes"/>
      <point x="404" y="693"/>
      <point x="467" y="641"/>
      <point x="467" y="564" type="curve" smooth="yes"/>
      <point x="467" y="495"/>
      <point x="420" y="442"/>
      <point x="298" y="381" type="curve"/>
      <point x="327" y="365" type="line"/>
      <point x="446" y="417"/>
      <point x="505" y="483"/>
      <point x="505" y="564" type="curve" smooth="yes"/>
      <point x="505" y="659"/>
      <point x="426" y="725"/>
      <point x="313" y="725" type="curve" smooth="yes"/>
      <point x="196" y="725"/>
      <point x="113" y="658"/>
      <point x="113" y="564" type="curve" smooth="yes"/>
      <point x="113" y="480"/>
      <point x="173" y="412"/>
      <point x="310" y="354" type="curve" smooth="yes"/>
      <point x="435" y="301"/>
      <point x="498" y="252"/>
      <point x="498" y="169" type="curve" smooth="yes"/>
      <point x="498" y="83"/>
      <point x="423" y="27"/>
      <point x="313" y="27" type="curve" smooth="yes"/>
      <point x="203" y="27"/>
      <point x="125" y="83"/>
      <point x="125" y="167" type="curve" smooth="yes"/>
      <point x="125" y="256"/>
      <point x="200" y="301"/>
      <point x="327" y="365" type="curve"/>
      <point x="298" y="381" type="line"/>
      <point x="178" y="329"/>
      <point x="87" y="270"/>
      <point x="87" y="165" type="curve" smooth="yes"/>
      <point x="87" y="66"/>
      <point x="181" y="-6"/>
      <point x="314" y="-6" type="curve" smooth="yes"/>
      <point x="446" y="-6"/>
      <point x="536" y="64"/>
      <point x="536" y="171" type="curve" smooth="yes"/>
      <point x="536" y="283"/>
      <point x="456" y="323"/>
    </contour>
  </outline>
</glyph>
<glyph name="nine" format="2">
  <advance width="593"/>
  <unicode hex="0039"/>
  <outline>
    <contour>
      <point x="114" y="-10" type="curve"/>
      <point x="384" y="-22"/>
      <point x="529" y="120"/>
      <point x="529" y="396" type="curve" smooth="yes"/>
      <point x="529" y="604"/>
      <point x="440" y="725"/>
      <point x="287" y="725" type="curve" smooth="yes"/>
      <point x="147" y="725"/>
      <point x="58" y="637"/>
      <point x="58" y="497" type="curve" smooth="yes"/>
      <point x="58" y="367"/>
      <point x="143" y="281"/>
      <point x="271" y="281" type="curve" smooth="yes"/>
      <point x="365" y="281"/>
      <point x="456" y="324"/>
      <point x="508" y="393" type="curve"/>
      <point x="497" y="411" type="line"/>
      <point x="430" y="344"/>
      <point x="362" y="314"/>
      <point x="277" y="314" type="curve" smooth="yes"/>
      <point x="167" y="314"/>
      <point x="96" y="389"/>
      <point x="96" y="503" type="curve" smooth="yes"/>
      <point x="96" y="619"/>
      <point x="167" y="691"/>
      <point x="281" y="691" type="curve" smooth="yes"/>
      <point x="417" y="691"/>
      <point x="491" y="584"/>
      <point x="491" y="388" type="curve" smooth="yes"/>
      <point x="491" y="141"/>
      <point x="364" y="16"/>
      <point x="110" y="13" type="curve"/>
      <point x="105" y="13"/>
      <point x="104" y="12"/>
      <point x="105" y="7" type="curve"/>
      <point x="107" y="-4" type="line"/>
      <point x="108" y="-9"/>
      <point x="109" y="-10"/>
    </contour>
  </outline>
</glyph>
<glyph name="greater" format="2">
  <advance width="670"/>
  <unicode hex="003E"/>
  <outline>
    <contour>
      <point x="74" y="1" type="curve"/>
      <point x="74" y="10"/>
      <point x="75" y="20"/>
      <point x="76" y="29" type="curve"/>
      <point x="77" y="34"/>
      <point x="78" y="35"/>
      <point x="82" y="38" type="curve"/>
      <point x="555" y="284" type="line"/>
      <point x="79" y="531" type="line"/>
      <point x="75" y="534"/>
      <point x="74" y="535"/>
      <point x="74" y="540" type="curve"/>
      <point x="74" y="549"/>
      <point x="75" y="556"/>
      <point x="76" y="565" type="curve"/>
      <point x="77" y="570"/>
      <point x="78" y="571"/>
      <point x="82" y="568" type="curve"/>
      <point x="600" y="299" type="line"/>
      <point x="604" y="296"/>
      <point x="605" y="295"/>
      <point x="605" y="290" type="curve"/>
      <point x="605" y="279" type="line"/>
      <point x="605" y="274"/>
      <point x="604" y="273"/>
      <point x="600" y="270" type="curve"/>
      <point x="79" y="-2" type="line"/>
      <point x="75" y="-5"/>
      <point x="74" y="-4"/>
    </contour>
  </outline>
</glyph>
<glyph name="question" format="2">
  <advance width="539"/>
  <unicode hex="003F"/>
  <outline>
    <contour>
      <point x="182" y="217" type="curve"/>
      <point x="195" y="219" type="line"/>
      <point x="200" y="219"/>
      <point x="201" y="220"/>
      <point x="200" y="225" type="curve"/>
      <point x="171" y="368"/>
      <point x="176" y="377"/>
      <point x="283" y="408" type="curve" smooth="yes"/>
      <point x="388" y="438"/>
      <point x="425" y="477"/>
      <point x="425" y="539" type="curve" smooth="yes"/>
      <point x="425" y="632"/>
      <point x="305" y="718"/>
      <point x="123" y="736" type="curve"/>
      <point x="118" y="737"/>
      <point x="116" y="736"/>
      <point x="112" y="733" type="curve"/>
      <point x="106" y="727"/>
      <point x="102" y="717"/>
      <point x="100" y="698" type="curve"/>
      <point x="99" y="693"/>
      <point x="100" y="692"/>
      <point x="105" y="692" type="curve"/>
      <point x="286" y="679"/>
      <point x="386" y="608"/>
      <point x="386" y="538" type="curve" smooth="yes"/>
      <point x="386" y="493"/>
      <point x="354" y="463"/>
      <point x="269" y="441" type="curve" smooth="yes"/>
      <point x="176" y="417"/>
      <point x="146" y="395"/>
      <point x="146" y="337" type="curve" smooth="yes"/>
      <point x="146" y="310"/>
      <point x="153" y="281"/>
      <point x="174" y="223" type="curve"/>
      <point x="176" y="218"/>
      <point x="177" y="217"/>
    </contour>
    <component base="period" xOffset="19"/>
  </outline>
</glyph>
<glyph name="at" format="2">
  <advance width="1132"/>
  <unicode hex="0040"/>
  <outline>
    <contour>
      <point x="573" y="-187" type="curve" smooth="yes"/>
      <point x="720" y="-187"/>
      <point x="845" y="-163"/>
      <point x="998" y="-104" type="curve"/>
      <point x="1003" y="-102"/>
      <point x="1004" y="-101"/>
      <point x="1002" y="-96" type="curve"/>
      <point x="1000" y="-89" type="line"/>
      <point x="998" y="-84"/>
      <point x="997" y="-83"/>
      <point x="992" y="-85" type="curve"/>
      <point x="819" y="-137"/>
      <point x="708" y="-155"/>
      <point x="573" y="-155" type="curve" smooth="yes"/>
      <point x="300" y="-155"/>
      <point x="132" y="1"/>
      <point x="132" y="253" type="curve" smooth="yes"/>
      <point x="132" y="524"/>
      <point x="338" y="723"/>
      <point x="621" y="723" type="curve" smooth="yes"/>
      <point x="854" y="723"/>
      <point x="1000" y="596"/>
      <point x="1000" y="387" type="curve" smooth="yes"/>
      <point x="1000" y="207"/>
      <point x="884" y="61"/>
      <point x="748" y="61" type="curve" smooth="yes"/>
      <point x="731" y="61"/>
      <point x="724" y="70"/>
      <point x="726" y="90" type="curve" smooth="yes"/>
      <point x="769" y="518" type="line"/>
      <point x="770" y="523"/>
      <point x="769" y="524"/>
      <point x="764" y="525" type="curve"/>
      <point x="755" y="525" type="line"/>
      <point x="750" y="526"/>
      <point x="749" y="525"/>
      <point x="747" y="520" type="curve"/>
      <point x="723" y="444" type="line"/>
      <point x="688" y="94" type="line" smooth="yes"/>
      <point x="683" y="47"/>
      <point x="699" y="28"/>
      <point x="741" y="28" type="curve" smooth="yes"/>
      <point x="901" y="28"/>
      <point x="1037" y="189"/>
      <point x="1037" y="387" type="curve" smooth="yes"/>
      <point x="1037" y="617"/>
      <point x="876" y="756"/>
      <point x="621" y="756" type="curve" smooth="yes"/>
      <point x="313" y="756"/>
      <point x="95" y="547"/>
      <point x="95" y="253" type="curve" smooth="yes"/>
      <point x="95" y="-22"/>
      <point x="275" y="-187"/>
    </contour>
    <contour>
      <point x="515" y="28" type="curve" smooth="yes"/>
      <point x="581" y="28"/>
      <point x="653" y="74"/>
      <point x="706" y="150" type="curve"/>
      <point x="699" y="173" type="line"/>
      <point x="642" y="99"/>
      <point x="580" y="61"/>
      <point x="517" y="61" type="curve" smooth="yes"/>
      <point x="437" y="61"/>
      <point x="390" y="128"/>
      <point x="390" y="243" type="curve" smooth="yes"/>
      <point x="390" y="392"/>
      <point x="465" y="495"/>
      <point x="575" y="495" type="curve" smooth="yes"/>
      <point x="644" y="495"/>
      <point x="700" y="468"/>
      <point x="738" y="415" type="curve"/>
      <point x="754" y="435" type="line"/>
      <point x="713" y="493"/>
      <point x="646" y="528"/>
      <point x="574" y="528" type="curve" smooth="yes"/>
      <point x="443" y="528"/>
      <point x="353" y="411"/>
      <point x="353" y="241" type="curve" smooth="yes"/>
      <point x="353" y="107"/>
      <point x="413" y="28"/>
    </contour>
  </outline>
</glyph>
<glyph name="A" format="2">
  <advance width="815"/>
  <unicode hex="0041"/>
  <anchor x="408" y="0" name="bottom"/>
  <anchor x="682" y="0" name="ogonek"/>
  <anchor x="397" y="671" name="ring"/>
  <anchor x="408" y="733" name="top"/>
  <outline>
    <contour>
      <point x="12" y="0" type="curve"/>
      <point x="296" y="0" type="line"/>
      <point x="301" y="0"/>
      <point x="302" y="1"/>
      <point x="302" y="6" type="curve"/>
      <point x="302" y="14" type="line"/>
      <point x="302" y="19"/>
      <point x="301" y="20"/>
      <point x="296" y="20" type="curve"/>
      <point x="193" y="28" type="line"/>
      <point x="164" y="30"/>
      <point x="154" y="38"/>
      <point x="165" y="66" type="curve"/>
      <point x="403" y="689" type="line"/>
      <point x="383" y="692" type="line"/>
      <point x="636" y="69" type="line"/>
      <point x="646" y="42"/>
      <point x="644" y="30"/>
      <point x="614" y="28" type="curve"/>
      <point x="514" y="20" type="line"/>
      <point x="509" y="20"/>
      <point x="508" y="19"/>
      <point x="508" y="14" type="curve"/>
      <point x="508" y="6" type="line"/>
      <point x="508" y="1"/>
      <point x="509" y="0"/>
      <point x="514" y="0" type="curve"/>
      <point x="798" y="0" type="line"/>
      <point x="803" y="0"/>
      <point x="804" y="1"/>
      <point x="804" y="6" type="curve"/>
      <point x="804" y="14" type="line"/>
      <point x="804" y="19"/>
      <point x="803" y="20"/>
      <point x="798" y="21" type="curve"/>
      <point x="709" y="29" type="line"/>
      <point x="699" y="30"/>
      <point x="690" y="35"/>
      <point x="687" y="43" type="curve"/>
      <point x="423" y="693" type="line"/>
      <point x="414" y="731" type="line"/>
      <point x="413" y="736"/>
      <point x="412" y="737"/>
      <point x="407" y="735" type="curve"/>
      <point x="392" y="732" type="line"/>
      <point x="387" y="730"/>
      <point x="386" y="729"/>
      <point x="384" y="724" type="curve"/>
      <point x="123" y="47" type="line"/>
      <point x="120" y="38"/>
      <point x="113" y="31"/>
      <point x="104" y="30" type="curve"/>
      <point x="12" y="21" type="line"/>
      <point x="7" y="20"/>
      <point x="6" y="19"/>
      <point x="6" y="14" type="curve"/>
      <point x="6" y="6" type="line"/>
      <point x="6" y="1"/>
      <point x="7" y="0"/>
    </contour>
    <contour>
      <point x="242" y="316" type="curve"/>
      <point x="242" y="287" type="line"/>
      <point x="347" y="286"/>
      <point x="451" y="286"/>
      <point x="556" y="287" type="curve"/>
      <point x="556" y="316" type="line"/>
      <point x="451" y="314"/>
      <point x="347" y="314"/>
    </contour>
  </outline>
</glyph>
<glyph name="B" format="2">
  <advance width="713"/>
  <unicode hex="0042"/>
  <anchor x="357" y="0" name="bottom"/>
  <anchor x="357" y="733" name="top"/>
  <outline>
    <contour>
      <point x="169" y="0" type="line"/>
      <point x="384" y="0" type="line" smooth="yes"/>
      <point x="568" y="0"/>
      <point x="659" y="67"/>
      <point x="659" y="202" type="curve" smooth="yes"/>
      <point x="659" y="339"/>
      <point x="519" y="383"/>
      <point x="453" y="383" type="curve"/>
      <point x="453" y="378" type="line"/>
      <point x="511" y="378"/>
      <point x="607" y="434"/>
      <point x="607" y="553" type="curve" smooth="yes"/>
      <point x="607" y="673"/>
      <point x="533" y="733"/>
      <point x="384" y="733" type="curve" smooth="yes"/>
      <point x="207" y="733" type="line"/>
      <point x="207" y="704" type="line"/>
      <point x="384" y="704" type="line" smooth="yes"/>
      <point x="507" y="704"/>
      <point x="569" y="653"/>
      <point x="569" y="553" type="curve" smooth="yes"/>
      <point x="569" y="450"/>
      <point x="504" y="394"/>
      <point x="384" y="394" type="curve" smooth="yes"/>
      <point x="207" y="394" type="line"/>
      <point x="207" y="365" type="line"/>
      <point x="384" y="365" type="line" smooth="yes"/>
      <point x="536" y="365"/>
      <point x="620" y="307"/>
      <point x="620" y="202" type="curve" smooth="yes"/>
      <point x="620" y="86"/>
      <point x="543" y="29"/>
      <point x="384" y="29" type="curve" smooth="yes"/>
      <point x="224" y="29" type="line"/>
      <point x="214" y="29"/>
      <point x="207" y="33"/>
      <point x="207" y="42" type="curve"/>
      <point x="207" y="733" type="line"/>
      <point x="169" y="733" type="line"/>
    </contour>
    <contour>
      <point x="46" y="0" type="curve"/>
      <point x="207" y="0" type="line"/>
      <point x="207" y="222" type="line"/>
      <point x="169" y="222" type="line"/>
      <point x="169" y="48" type="line"/>
      <point x="169" y="38"/>
      <point x="165" y="31"/>
      <point x="156" y="30" type="curve"/>
      <point x="46" y="21" type="line"/>
      <point x="41" y="20"/>
      <point x="40" y="19"/>
      <point x="40" y="14" type="curve"/>
      <point x="40" y="6" type="line"/>
      <point x="40" y="1"/>
      <point x="41" y="0"/>
    </contour>
    <contour>
      <point x="40" y="727" type="curve"/>
      <point x="40" y="719" type="line"/>
      <point x="40" y="714"/>
      <point x="41" y="713"/>
      <point x="46" y="712" type="curve"/>
      <point x="156" y="703" type="line"/>
      <point x="165" y="702"/>
      <point x="169" y="695"/>
      <point x="169" y="685" type="curve"/>
      <point x="169" y="511" type="line"/>
      <point x="207" y="511" type="line"/>
      <point x="207" y="733" type="line"/>
      <point x="46" y="733" type="line"/>
      <point x="41" y="733"/>
      <point x="40" y="732"/>
    </contour>
  </outline>
</glyph>
<glyph name="C" format="2">
  <advance width="761"/>
  <unicode hex="0043"/>
  <anchor x="429" y="0" name="bottom"/>
  <anchor x="429" y="733" name="top"/>
  <outline>
    <contour>
      <point x="430" y="-6" type="curve" smooth="yes"/>
      <point x="513" y="-6"/>
      <point x="580" y="11"/>
      <point x="624" y="30" type="curve"/>
      <point x="641" y="34" type="line"/>
      <point x="657" y="39"/>
      <point x="659" y="41"/>
      <point x="660" y="51" type="curve"/>
      <point x="675" y="213" type="line"/>
      <point x="676" y="218"/>
      <point x="675" y="219"/>
      <point x="670" y="220" type="curve"/>
      <point x="659" y="222" type="line"/>
      <point x="654" y="223"/>
      <point x="653" y="222"/>
      <point x="652" y="217" type="curve"/>
      <point x="622" y="95" type="line"/>
      <point x="620" y="85"/>
      <point x="615" y="76"/>
      <point x="607" y="71" type="curve"/>
      <point x="560" y="43"/>
      <point x="496" y="28"/>
      <point x="429" y="28" type="curve" smooth="yes"/>
      <point x="247" y="28"/>
      <point x="128" y="162"/>
      <point x="128" y="367" type="curve" smooth="yes"/>
      <point x="128" y="573"/>
      <point x="246" y="705"/>
      <point x="429" y="705" type="curve" smooth="yes"/>
      <point x="494" y="705"/>
      <point x="557" y="691"/>
      <point x="604" y="663" type="curve"/>
      <point x="612" y="658"/>
      <point x="619" y="650"/>
      <point x="621" y="641" type="curve"/>
      <point x="652" y="516" type="line"/>
      <point x="653" y="511"/>
      <point x="654" y="510"/>
      <point x="659" y="511" type="curve"/>
      <point x="670" y="512" type="line"/>
      <point x="675" y="513"/>
      <point x="676" y="514"/>
      <point x="675" y="519" type="curve"/>
      <point x="661" y="675" type="line"/>
      <point x="659" y="692"/>
      <point x="657" y="694"/>
      <point x="647" y="697" type="curve"/>
      <point x="624" y="702" type="line"/>
      <point x="580" y="722"/>
      <point x="513" y="739"/>
      <point x="430" y="739" type="curve" smooth="yes"/>
      <point x="229" y="739"/>
      <point x="89" y="587"/>
      <point x="89" y="367" type="curve" smooth="yes"/>
      <point x="89" y="146"/>
      <point x="228" y="-6"/>
    </contour>
  </outline>
</glyph>
<glyph name="D" format="2">
  <advance width="824"/>
  <unicode hex="0044"/>
  <anchor x="386" y="0" name="bottom"/>
  <anchor x="226" y="366" name="center"/>
  <anchor x="386" y="733" name="top"/>
  <outline>
    <contour>
      <point x="169" y="0" type="line"/>
      <point x="366" y="0" type="line" smooth="yes"/>
      <point x="593" y="0"/>
      <point x="735" y="141"/>
      <point x="735" y="367" type="curve" smooth="yes"/>
      <point x="735" y="593"/>
      <point x="594" y="733"/>
      <point x="366" y="733" type="curve" smooth="yes"/>
      <point x="207" y="733" type="line"/>
      <point x="207" y="704" type="line"/>
      <point x="366" y="704" type="line" smooth="yes"/>
      <point x="572" y="704"/>
      <point x="696" y="577"/>
      <point x="696" y="367" type="curve" smooth="yes"/>
      <point x="696" y="157"/>
      <point x="571" y="29"/>
      <point x="366" y="29" type="curve" smooth="yes"/>
      <point x="224" y="29" type="line"/>
      <point x="214" y="29"/>
      <point x="207" y="33"/>
      <point x="207" y="42" type="curve"/>
      <point x="207" y="733" type="line"/>
      <point x="169" y="733" type="line"/>
    </contour>
    <contour>
      <point x="40" y="727" type="curve"/>
      <point x="40" y="719" type="line"/>
      <point x="40" y="714"/>
      <point x="41" y="713"/>
      <point x="46" y="712" type="curve"/>
      <point x="156" y="703" type="line"/>
      <point x="165" y="702"/>
      <point x="169" y="695"/>
      <point x="169" y="685" type="curve"/>
      <point x="169" y="511" type="line"/>
      <point x="207" y="511" type="line"/>
      <point x="207" y="733" type="line"/>
      <point x="46" y="733" type="line"/>
      <point x="41" y="733"/>
      <point x="40" y="732"/>
    </contour>
    <contour>
      <point x="46" y="0" type="curve"/>
      <point x="207" y="0" type="line"/>
      <point x="207" y="222" type="line"/>
      <point x="169" y="222" type="line"/>
      <point x="169" y="48" type="line"/>
      <point x="169" y="38"/>
      <point x="165" y="31"/>
      <point x="156" y="30" type="curve"/>
      <point x="46" y="21" type="line"/>
      <point x="41" y="20"/>
      <point x="40" y="19"/>
      <point x="40" y="14" type="curve"/>
      <point x="40" y="6" type="line"/>
      <point x="40" y="1"/>
      <point x="41" y="0"/>
    </contour>
  </outline>
</glyph>
<glyph name="E" format="2">
  <advance width="748"/>
  <unicode hex="0045"/>
  <anchor x="375" y="0" name="bottom"/>
  <anchor x="627" y="0" name="ogonek"/>
  <anchor x="375" y="733" name="top"/>
  <anchor x="24" y="733" name="topleft"/>
  <outline>
    <contour>
      <point x="169" y="0" type="line"/>
      <point x="594" y="0" type="line"/>
      <point x="628" y="-3" type="line"/>
      <point x="645" y="-5"/>
      <point x="647" y="-3"/>
      <point x="649" y="7" type="curve"/>
      <point x="681" y="174" type="line"/>
      <point x="682" y="179"/>
      <point x="681" y="180"/>
      <point x="676" y="181" type="curve"/>
      <point x="665" y="183" type="line"/>
      <point x="660" y="184"/>
      <point x="659" y="183"/>
      <point x="657" y="178" type="curve"/>
      <point x="610" y="45" type="line"/>
      <point x="606" y="36"/>
      <point x="600" y="29"/>
      <point x="591" y="29" type="curve"/>
      <point x="224" y="29" type="line"/>
      <point x="214" y="29"/>
      <point x="207" y="33"/>
      <point x="207" y="42" type="curve"/>
      <point x="207" y="733" type="line"/>
      <point x="169" y="733" type="line"/>
    </contour>
    <contour>
      <point x="551" y="254" type="curve"/>
      <point x="558" y="254" type="line"/>
      <point x="563" y="254"/>
      <point x="564" y="255"/>
      <point x="564" y="260" type="curve"/>
      <point x="564" y="484" type="line"/>
      <point x="564" y="489"/>
      <point x="563" y="490"/>
      <point x="558" y="490" type="curve"/>
      <point x="551" y="490" type="line"/>
      <point x="546" y="490"/>
      <point x="545" y="489"/>
      <point x="544" y="484" type="curve"/>
      <point x="528" y="411" type="line"/>
      <point x="525" y="401"/>
      <point x="520" y="394"/>
      <point x="511" y="394" type="curve"/>
      <point x="207" y="394" type="line"/>
      <point x="207" y="365" type="line"/>
      <point x="508" y="365" type="line"/>
      <point x="518" y="365"/>
      <point x="526" y="361"/>
      <point x="527" y="352" type="curve"/>
      <point x="544" y="260" type="line"/>
      <point x="545" y="255"/>
      <point x="546" y="254"/>
    </contour>
    <contour>
      <point x="643" y="556" type="curve"/>
      <point x="654" y="559" type="line"/>
      <point x="659" y="560"/>
      <point x="660" y="561"/>
      <point x="660" y="566" type="curve"/>
      <point x="648" y="718" type="line"/>
      <point x="647" y="735"/>
      <point x="645" y="737"/>
      <point x="635" y="736" type="curve"/>
      <point x="594" y="733" type="line"/>
      <point x="207" y="733" type="line"/>
      <point x="207" y="704" type="line"/>
      <point x="585" y="704" type="line"/>
      <point x="595" y="704"/>
      <point x="603" y="700"/>
      <point x="605" y="691" type="curve"/>
      <point x="636" y="561" type="line"/>
      <point x="637" y="556"/>
      <point x="638" y="555"/>
    </contour>
    <contour>
      <point x="46" y="0" type="curve"/>
      <point x="207" y="0" type="line"/>
      <point x="207" y="222" type="line"/>
      <point x="169" y="222" type="line"/>
      <point x="169" y="48" type="line"/>
      <point x="169" y="38"/>
      <point x="165" y="31"/>
      <point x="156" y="30" type="curve"/>
      <point x="46" y="21" type="line"/>
      <point x="41" y="20"/>
      <point x="40" y="19"/>
      <point x="40" y="14" type="curve"/>
      <point x="40" y="6" type="line"/>
      <point x="40" y="1"/>
      <point x="41" y="0"/>
    </contour>
    <contour>
      <point x="40" y="727" type="curve"/>
      <point x="40" y="719" type="line"/>
      <point x="40" y="714"/>
      <point x="41" y="713"/>
      <point x="46" y="712" type="curve"/>
      <point x="156" y="703" type="line"/>
      <point x="165" y="702"/>
      <point x="169" y="695"/>
      <point x="169" y="685" type="curve"/>
      <point x="169" y="511" type="line"/>
      <point x="207" y="511" type="line"/>
      <point x="207" y="733" type="line"/>
      <point x="46" y="733" type="line"/>
      <point x="41" y="733"/>
      <point x="40" y="732"/>
    </contour>
  </outline>
</glyph>
<glyph name="F" format="2">
  <advance width="684"/>
  <unicode hex="0046"/>
  <anchor x="342" y="0" name="bottom"/>
  <anchor x="342" y="733" name="top"/>
  <outline>
    <contour>
      <point x="169" y="0" type="line"/>
      <point x="207" y="0" type="line"/>
      <point x="207" y="733" type="line"/>
      <point x="169" y="733" type="line"/>
    </contour>
    <contour>
      <point x="535" y="237" type="curve"/>
      <point x="542" y="237" type="line"/>
      <point x="547" y="237"/>
      <point x="548" y="238"/>
      <point x="548" y="243" type="curve"/>
      <point x="548" y="467" type="line"/>
      <point x="548" y="472"/>
      <point x="547" y="473"/>
      <point x="542" y="473" type="curve"/>
      <point x="535" y="473" type="line"/>
      <point x="530" y="473"/>
      <point x="529" y="472"/>
      <point x="528" y="467" type="curve"/>
      <point x="512" y="394" type="line"/>
      <point x="509" y="384"/>
      <point x="504" y="377"/>
      <point x="495" y="377" type="curve"/>
      <point x="207" y="377" type="line"/>
      <point x="207" y="348" type="line"/>
      <point x="493" y="348" type="line"/>
      <point x="503" y="348"/>
      <point x="511" y="344"/>
      <point x="512" y="335" type="curve"/>
      <point x="528" y="243" type="line"/>
      <point x="529" y="238"/>
      <point x="530" y="237"/>
    </contour>
    <contour>
      <point x="628" y="556" type="curve"/>
      <point x="639" y="559" type="line"/>
      <point x="644" y="560"/>
      <point x="645" y="561"/>
      <point x="645" y="566" type="curve"/>
      <point x="632" y="718" type="line"/>
      <point x="631" y="735"/>
      <point x="629" y="737"/>
      <point x="619" y="736" type="curve"/>
      <point x="578" y="733" type="line"/>
      <point x="207" y="733" type="line"/>
      <point x="207" y="704" type="line"/>
      <point x="570" y="704" type="line"/>
      <point x="580" y="704"/>
      <point x="588" y="700"/>
      <point x="590" y="691" type="curve"/>
      <point x="621" y="561" type="line"/>
      <point x="622" y="556"/>
      <point x="623" y="555"/>
    </contour>
    <contour>
      <point x="46" y="0" type="curve"/>
      <point x="366" y="0" type="line"/>
      <point x="371" y="0"/>
      <point x="372" y="1"/>
      <point x="372" y="6" type="curve"/>
      <point x="372" y="14" type="line"/>
      <point x="372" y="19"/>
      <point x="371" y="20"/>
      <point x="366" y="20" type="curve"/>
      <point x="224" y="30" type="line"/>
      <point x="214" y="31"/>
      <point x="207" y="35"/>
      <point x="207" y="44" type="curve"/>
      <point x="207" y="222" type="line"/>
      <point x="169" y="222" type="line"/>
      <point x="169" y="48" type="line"/>
      <point x="169" y="38"/>
      <point x="165" y="31"/>
      <point x="156" y="30" type="curve"/>
      <point x="46" y="21" type="line"/>
      <point x="41" y="20"/>
      <point x="40" y="19"/>
      <point x="40" y="14" type="curve"/>
      <point x="40" y="6" type="line"/>
      <point x="40" y="1"/>
      <point x="41" y="0"/>
    </contour>
    <contour>
      <point x="40" y="727" type="curve"/>
      <point x="40" y="719" type="line"/>
      <point x="40" y="714"/>
      <point x="41" y="713"/>
      <point x="46" y="712" type="curve"/>
      <point x="156" y="703" type="line"/>
      <point x="165" y="702"/>
      <point x="169" y="695"/>
      <point x="169" y="685" type="curve"/>
      <point x="169" y="511" type="line"/>
      <point x="207" y="511" type="line"/>
      <point x="207" y="733" type="line"/>
      <point x="46" y="733" type="line"/>
      <point x="41" y="733"/>
      <point x="40" y="732"/>
    </contour>
  </outline>
</glyph>
<glyph name="G" format="2">
  <advance width="824"/>
  <unicode hex="0047"/>
  <anchor x="429" y="0" name="bottom"/>
  <anchor x="429" y="733" name="top"/>
  <outline>
    <contour>
      <point x="429" y="705" type="curve" smooth="yes"/>
      <point x="494" y="705"/>
      <point x="557" y="691"/>
      <point x="604" y="663" type="curve"/>
      <point x="612" y="658"/>
      <point x="619" y="650"/>
      <point x="621" y="641" type="curve"/>
      <point x="652" y="516" type="line"/>
      <point x="653" y="511"/>
      <point x="654" y="510"/>
      <point x="659" y="511" type="curve"/>
      <point x="670" y="512" type="line"/>
      <point x="675" y="513"/>
      <point x="676" y="514"/>
      <point x="675" y="519" type="curve"/>
      <point x="661" y="675" type="line"/>
      <point x="659" y="692"/>
      <point x="657" y="694"/>
      <point x="647" y="697" type="curve"/>
      <point x="624" y="702" type="line"/>
      <point x="580" y="722"/>
      <point x="513" y="739"/>
      <point x="430" y="739" type="curve" smooth="yes"/>
      <point x="229" y="739"/>
      <point x="89" y="587"/>
      <point x="89" y="367" type="curve" smooth="yes"/>
      <point x="89" y="146"/>
      <point x="228" y="-6"/>
      <point x="430" y="-6" type="curve" smooth="yes"/>
      <point x="508" y="-6"/>
      <point x="598" y="9"/>
      <point x="677" y="45" type="curve"/>
      <point x="687" y="50"/>
      <point x="689" y="52"/>
      <point x="688" y="65" type="curve"/>
      <point x="684" y="110" type="line"/>
      <point x="684" y="265" type="line"/>
      <point x="684" y="275"/>
      <point x="688" y="283"/>
      <point x="697" y="284" type="curve"/>
      <point x="771" y="295" type="line"/>
      <point x="776" y="296"/>
      <point x="777" y="297"/>
      <point x="777" y="302" type="curve"/>
      <point x="777" y="311" type="line"/>
      <point x="777" y="316"/>
      <point x="776" y="317"/>
      <point x="771" y="317" type="curve"/>
      <point x="486" y="317" type="line"/>
      <point x="481" y="317"/>
      <point x="480" y="316"/>
      <point x="480" y="311" type="curve"/>
      <point x="480" y="302" type="line"/>
      <point x="480" y="297"/>
      <point x="481" y="296"/>
      <point x="486" y="295" type="curve"/>
      <point x="629" y="283" type="line"/>
      <point x="639" y="283"/>
      <point x="646" y="278"/>
      <point x="646" y="269" type="curve"/>
      <point x="646" y="70" type="line"/>
      <point x="586" y="45"/>
      <point x="506" y="28"/>
      <point x="429" y="28" type="curve" smooth="yes"/>
      <point x="247" y="28"/>
      <point x="128" y="162"/>
      <point x="128" y="367" type="curve" smooth="yes"/>
      <point x="128" y="573"/>
      <point x="246" y="705"/>
    </contour>
  </outline>
</glyph>
<glyph name="H" format="2">
  <advance width="871"/>
  <unicode hex="0048"/>
  <anchor x="436" y="0" name="bottom"/>
  <anchor x="436" y="542" name="center"/>
  <anchor x="436" y="733" name="top"/>
  <anchor x="24" y="733" name="topleft"/>
  <outline>
    <contour>
      <point x="169" y="0" type="line"/>
      <point x="207" y="0" type="line"/>
      <point x="207" y="733" type="line"/>
      <point x="169" y="733" type="line"/>
    </contour>
    <contour>
      <point x="169" y="394" type="curve"/>
      <point x="169" y="365" type="line"/>
      <point x="347" y="363"/>
      <point x="524" y="363"/>
      <point x="702" y="365" type="curve"/>
      <point x="702" y="394" type="line"/>
      <point x="524" y="392"/>
      <point x="347" y="392"/>
    </contour>
    <contour>
      <point x="664" y="0" type="line"/>
      <point x="702" y="0" type="line"/>
      <point x="702" y="733" type="line"/>
      <point x="664" y="733" type="line"/>
    </contour>
    <contour>
      <point x="541" y="0" type="curve"/>
      <point x="825" y="0" type="line"/>
      <point x="830" y="0"/>
      <point x="831" y="1"/>
      <point x="831" y="6" type="curve"/>
      <point x="831" y="14" type="line"/>
      <point x="831" y="19"/>
      <point x="830" y="20"/>
      <point x="825" y="21" type="curve"/>
      <point x="719" y="30" type="line"/>
      <point x="709" y="30"/>
      <point x="702" y="35"/>
      <point x="702" y="44" type="curve"/>
      <point x="702" y="222" type="line"/>
      <point x="664" y="222" type="line"/>
      <point x="664" y="48" type="line"/>
      <point x="664" y="38"/>
      <point x="660" y="31"/>
      <point x="651" y="30" type="curve"/>
      <point x="541" y="21" type="line"/>
      <point x="536" y="20"/>
      <point x="535" y="19"/>
      <point x="535" y="14" type="curve"/>
      <point x="535" y="6" type="line"/>
      <point x="535" y="1"/>
      <point x="536" y="0"/>
    </contour>
    <contour>
      <point x="46" y="0" type="curve"/>
      <point x="330" y="0" type="line"/>
      <point x="335" y="0"/>
      <point x="336" y="1"/>
      <point x="336" y="6" type="curve"/>
      <point x="336" y="14" type="line"/>
      <point x="336" y="19"/>
      <point x="335" y="20"/>
      <point x="330" y="21" type="curve"/>
      <point x="224" y="30" type="line"/>
      <point x="214" y="30"/>
      <point x="207" y="35"/>
      <point x="207" y="44" type="curve"/>
      <point x="207" y="222" type="line"/>
      <point x="169" y="222" type="line"/>
      <point x="169" y="48" type="line"/>
      <point x="169" y="38"/>
      <point x="165" y="31"/>
      <point x="156" y="30" type="curve"/>
      <point x="46" y="21" type="line"/>
      <point x="41" y="20"/>
      <point x="40" y="19"/>
      <point x="40" y="14" type="curve"/>
      <point x="40" y="6" type="line"/>
      <point x="40" y="1"/>
      <point x="41" y="0"/>
    </contour>
    <contour>
      <point x="535" y="727" type="curve"/>
      <point x="535" y="719" type="line"/>
      <point x="535" y="714"/>
      <point x="536" y="713"/>
      <point x="541" y="712" type="curve"/>
      <point x="651" y="703" type="line"/>
      <point x="660" y="702"/>
      <point x="664" y="695"/>
      <point x="664" y="685" type="curve"/>
      <point x="664" y="511" type="line"/>
      <point x="702" y="511" type="line"/>
      <point x="702" y="689" type="line"/>
      <point x="702" y="698"/>
      <point x="709" y="703"/>
      <point x="719" y="703" type="curve"/>
      <point x="825" y="712" type="line"/>
      <point x="830" y="713"/>
      <point x="831" y="714"/>
      <point x="831" y="719" type="curve"/>
      <point x="831" y="727" type="line"/>
      <point x="831" y="732"/>
      <point x="830" y="733"/>
      <point x="825" y="733" type="curve"/>
      <point x="541" y="733" type="line"/>
      <point x="536" y="733"/>
      <point x="535" y="732"/>
    </contour>
    <contour>
      <point x="40" y="727" type="curve"/>
      <point x="40" y="719" type="line"/>
      <point x="40" y="714"/>
      <point x="41" y="713"/>
      <point x="46" y="712" type="curve"/>
      <point x="156" y="703" type="line"/>
      <point x="165" y="702"/>
      <point x="169" y="695"/>
      <point x="169" y="685" type="curve"/>
      <point x="169" y="511" type="line"/>
      <point x="207" y="511" type="line"/>
      <point x="207" y="689" type="line"/>
      <point x="207" y="698"/>
      <point x="214" y="703"/>
      <point x="224" y="703" type="curve"/>
      <point x="330" y="712" type="line"/>
      <point x="335" y="713"/>
      <point x="336" y="714"/>
      <point x="336" y="719" type="curve"/>
      <point x="336" y="727" type="line"/>
      <point x="336" y="732"/>
      <point x="335" y="733"/>
      <point x="330" y="733" type="curve"/>
      <point x="46" y="733" type="line"/>
      <point x="41" y="733"/>
      <point x="40" y="732"/>
    </contour>
  </outline>
</glyph>
<glyph name="I" format="2">
  <advance width="376"/>
  <unicode hex="0049"/>
  <anchor x="188" y="0" name="bottom"/>
  <anchor x="200" y="0" name="ogonek"/>
  <anchor x="188" y="733" name="top"/>
  <anchor x="24" y="733" name="topleft"/>
  <outline>
    <contour>
      <point x="169" y="0" type="line"/>
      <point x="207" y="0" type="line"/>
      <point x="207" y="733" type="line"/>
      <point x="169" y="733" type="line"/>
    </contour>
    <contour>
      <point x="46" y="0" type="curve"/>
      <point x="330" y="0" type="line"/>
      <point x="335" y="0"/>
      <point x="336" y="1"/>
      <point x="336" y="6" type="curve"/>
      <point x="336" y="14" type="line"/>
      <point x="336" y="19"/>
      <point x="335" y="20"/>
      <point x="330" y="21" type="curve"/>
      <point x="224" y="30" type="line"/>
      <point x="214" y="30"/>
      <point x="207" y="35"/>
      <point x="207" y="44" type="curve"/>
      <point x="207" y="222" type="line"/>
      <point x="169" y="222" type="line"/>
      <point x="169" y="48" type="line"/>
      <point x="169" y="38"/>
      <point x="165" y="31"/>
      <point x="156" y="30" type="curve"/>
      <point x="46" y="21" type="line"/>
      <point x="41" y="20"/>
      <point x="40" y="19"/>
      <point x="40" y="14" type="curve"/>
      <point x="40" y="6" type="line"/>
      <point x="40" y="1"/>
      <point x="41" y="0"/>
    </contour>
    <contour>
      <point x="40" y="727" type="curve"/>
      <point x="40" y="719" type="line"/>
      <point x="40" y="714"/>
      <point x="41" y="713"/>
      <point x="46" y="712" type="curve"/>
      <point x="156" y="703" type="line"/>
      <point x="165" y="702"/>
      <point x="169" y="695"/>
      <point x="169" y="685" type="curve"/>
      <point x="169" y="511" type="line"/>
      <point x="207" y="511" type="line"/>
      <point x="207" y="689" type="line"/>
      <point x="207" y="698"/>
      <point x="214" y="703"/>
      <point x="224" y="703" type="curve"/>
      <point x="330" y="712" type="line"/>
      <point x="335" y="713"/>
      <point x="336" y="714"/>
      <point x="336" y="719" type="curve"/>
      <point x="336" y="727" type="line"/>
      <point x="336" y="732"/>
      <point x="335" y="733"/>
      <point x="330" y="733" type="curve"/>
      <point x="46" y="733" type="line"/>
      <point x="41" y="733"/>
      <point x="40" y="732"/>
    </contour>
  </outline>
</glyph>
<glyph name="J" format="2">
  <advance width="359"/>
  <unicode hex="004A"/>
  <anchor x="190" y="0" name="bottom"/>
  <anchor x="190" y="733" name="top"/>
  <outline>
    <contour>
      <point x="17" y="-138" type="curve"/>
      <point x="24" y="-148" type="line"/>
      <point x="26" y="-152"/>
      <point x="28" y="-153"/>
      <point x="32" y="-150" type="curve"/>
      <point x="170" y="-77"/>
      <point x="210" y="-12"/>
      <point x="210" y="141" type="curve"/>
      <point x="171" y="141" type="line"/>
      <point x="171" y="-3"/>
      <point x="139" y="-61"/>
      <point x="19" y="-130" type="curve"/>
      <point x="15" y="-133"/>
      <point x="15" y="-134"/>
    </contour>
    <contour>
      <point x="171" y="141" type="line"/>
      <point x="210" y="141" type="line"/>
      <point x="210" y="733" type="line"/>
      <point x="171" y="733" type="line"/>
    </contour>
    <contour>
      <point x="43" y="727" type="curve"/>
      <point x="43" y="719" type="line"/>
      <point x="43" y="714"/>
      <point x="44" y="713"/>
      <point x="49" y="712" type="curve"/>
      <point x="159" y="703" type="line"/>
      <point x="168" y="702"/>
      <point x="172" y="695"/>
      <point x="172" y="685" type="curve"/>
      <point x="172" y="511" type="line"/>
      <point x="210" y="511" type="line"/>
      <point x="210" y="689" type="line"/>
      <point x="210" y="698"/>
      <point x="217" y="703"/>
      <point x="227" y="703" type="curve"/>
      <point x="333" y="712" type="line"/>
      <point x="338" y="713"/>
      <point x="339" y="714"/>
      <point x="339" y="719" type="curve"/>
      <point x="339" y="727" type="line"/>
      <point x="339" y="732"/>
      <point x="338" y="733"/>
      <point x="333" y="733" type="curve"/>
      <point x="49" y="733" type="line"/>
      <point x="44" y="733"/>
      <point x="43" y="732"/>
    </contour>
  </outline>
</glyph>
<glyph name="K" format="2">
  <advance width="759"/>
  <unicode hex="004B"/>
  <anchor x="378" y="0" name="bottom"/>
  <anchor x="378" y="733" name="top"/>
  <outline>
    <contour>
      <point x="451" y="0" type="curve"/>
      <point x="735" y="0" type="line"/>
      <point x="740" y="0"/>
      <point x="741" y="1"/>
      <point x="741" y="6" type="curve"/>
      <point x="741" y="14" type="line"/>
      <point x="741" y="19"/>
      <point x="740" y="20"/>
      <point x="735" y="21" type="curve"/>
      <point x="639" y="32" type="line"/>
      <point x="629" y="33"/>
      <point x="619" y="37"/>
      <point x="613" y="43" type="curve"/>
      <point x="241" y="393" type="line"/>
      <point x="241" y="371" type="line"/>
      <point x="576" y="688" type="line"/>
      <point x="583" y="695"/>
      <point x="592" y="700"/>
      <point x="601" y="701" type="curve"/>
      <point x="699" y="711" type="line"/>
      <point x="704" y="712"/>
      <point x="705" y="713"/>
      <point x="705" y="718" type="curve"/>
      <point x="705" y="727" type="line"/>
      <point x="705" y="732"/>
      <point x="704" y="733"/>
      <point x="699" y="733" type="curve"/>
      <point x="426" y="733" type="line"/>
      <point x="421" y="733"/>
      <point x="420" y="732"/>
      <point x="420" y="727" type="curve"/>
      <point x="420" y="718" type="line"/>
      <point x="420" y="713"/>
      <point x="421" y="712"/>
      <point x="426" y="711" type="curve"/>
      <point x="502" y="705" type="line"/>
      <point x="531" y="702"/>
      <point x="538" y="696"/>
      <point x="516" y="675" type="curve"/>
      <point x="205" y="378" type="line"/>
      <point x="539" y="62" type="line"/>
      <point x="560" y="42"/>
      <point x="562" y="33"/>
      <point x="532" y="30" type="curve"/>
      <point x="451" y="21" type="line"/>
      <point x="446" y="20"/>
      <point x="445" y="19"/>
      <point x="445" y="14" type="curve"/>
      <point x="445" y="6" type="line"/>
      <point x="445" y="1"/>
      <point x="446" y="0"/>
    </contour>
    <contour>
      <point x="169" y="0" type="line"/>
      <point x="207" y="0" type="line"/>
      <point x="207" y="733" type="line"/>
      <point x="169" y="733" type="line"/>
    </contour>
    <contour>
      <point x="46" y="0" type="curve"/>
      <point x="330" y="0" type="line"/>
      <point x="335" y="0"/>
      <point x="336" y="1"/>
      <point x="336" y="6" type="curve"/>
      <point x="336" y="14" type="line"/>
      <point x="336" y="19"/>
      <point x="335" y="20"/>
      <point x="330" y="21" type="curve"/>
      <point x="224" y="30" type="line"/>
      <point x="214" y="30"/>
      <point x="207" y="35"/>
      <point x="207" y="44" type="curve"/>
      <point x="207" y="222" type="line"/>
      <point x="169" y="222" type="line"/>
      <point x="169" y="48" type="line"/>
      <point x="169" y="38"/>
      <point x="165" y="31"/>
      <point x="156" y="30" type="curve"/>
      <point x="46" y="21" type="line"/>
      <point x="41" y="20"/>
      <point x="40" y="19"/>
      <point x="40" y="14" type="curve"/>
      <point x="40" y="6" type="line"/>
      <point x="40" y="1"/>
      <point x="41" y="0"/>
    </contour>
    <contour>
      <point x="40" y="727" type="curve"/>
      <point x="40" y="719" type="line"/>
      <point x="40" y="714"/>
      <point x="41" y="713"/>
      <point x="46" y="712" type="curve"/>
      <point x="156" y="703" type="line"/>
      <point x="165" y="702"/>
      <point x="169" y="695"/>
      <point x="169" y="685" type="curve"/>
      <point x="169" y="511" type="line"/>
      <point x="207" y="511" type="line"/>
      <point x="207" y="689" type="line"/>
      <point x="207" y="698"/>
      <point x="214" y="703"/>
      <point x="224" y="703" type="curve"/>
      <point x="330" y="712" type="line"/>
      <point x="335" y="713"/>
      <point x="336" y="714"/>
      <point x="336" y="719" type="curve"/>
      <point x="336" y="727" type="line"/>
      <point x="336" y="732"/>
      <point x="335" y="733"/>
      <point x="330" y="733" type="curve"/>
      <point x="46" y="733" type="line"/>
      <point x="41" y="733"/>
      <point x="40" y="732"/>
    </contour>
  </outline>
</glyph>
<glyph name="L" format="2">
  <advance width="710"/>
  <unicode hex="004C"/>
  <anchor x="355" y="0" name="bottom"/>
  <anchor x="355" y="366" name="center"/>
  <anchor x="188" y="733" name="top"/>
  <anchor x="447" y="476" name="topright"/>
  <outline>
    <contour>
      <point x="169" y="0" type="line"/>
      <point x="573" y="0" type="line"/>
      <point x="608" y="-3" type="line"/>
      <point x="625" y="-5"/>
      <point x="627" y="-3"/>
      <point x="629" y="7" type="curve"/>
      <point x="660" y="174" type="line"/>
      <point x="661" y="179"/>
      <point x="660" y="180"/>
      <point x="655" y="181" type="curve"/>
      <point x="645" y="183" type="line"/>
      <point x="640" y="184"/>
      <point x="639" y="183"/>
      <point x="637" y="178" type="curve"/>
      <point x="589" y="45" type="line"/>
      <point x="585" y="36"/>
      <point x="579" y="29"/>
      <point x="570" y="29" type="curve"/>
      <point x="224" y="29" type="line"/>
      <point x="214" y="29"/>
      <point x="207" y="33"/>
      <point x="207" y="42" type="curve"/>
      <point x="207" y="733" type="line"/>
      <point x="169" y="733" type="line"/>
    </contour>
    <contour>
      <point x="46" y="0" type="curve"/>
      <point x="207" y="0" type="line"/>
      <point x="207" y="222" type="line"/>
      <point x="169" y="222" type="line"/>
      <point x="169" y="48" type="line"/>
      <point x="169" y="38"/>
      <point x="165" y="31"/>
      <point x="156" y="30" type="curve"/>
      <point x="46" y="21" type="line"/>
      <point x="41" y="20"/>
      <point x="40" y="19"/>
      <point x="40" y="14" type="curve"/>
      <point x="40" y="6" type="line"/>
      <point x="40" y="1"/>
      <point x="41" y="0"/>
    </contour>
    <contour>
      <point x="40" y="727" type="curve"/>
      <point x="40" y="719" type="line"/>
      <point x="40" y="714"/>
      <point x="41" y="713"/>
      <point x="46" y="712" type="curve"/>
      <point x="156" y="703" type="line"/>
      <point x="165" y="702"/>
      <point x="169" y="695"/>
      <point x="169" y="685" type="curve"/>
      <point x="169" y="511" type="line"/>
      <point x="207" y="511" type="line"/>
      <point x="207" y="689" type="line"/>
      <point x="207" y="698"/>
      <point x="214" y="703"/>
      <point x="224" y="703" type="curve"/>
      <point x="330" y="712" type="line"/>
      <point x="335" y="713"/>
      <point x="336" y="714"/>
      <point x="336" y="719" type="curve"/>
      <point x="336" y="727" type="line"/>
      <point x="336" y="732"/>
      <point x="335" y="733"/>
      <point x="330" y="733" type="curve"/>
      <point x="46" y="733" type="line"/>
      <point x="41" y="733"/>
      <point x="40" y="732"/>
    </contour>
  </outline>
</glyph>
<glyph name="M" format="2">
  <advance width="1000"/>
  <unicode hex="004D"/>
  <anchor x="504" y="0" name="bottom"/>
  <anchor x="496" y="733" name="top"/>
  <outline>
    <contour>
      <point x="18" y="0" type="curve"/>
      <point x="298" y="0" type="line"/>
      <point x="303" y="0"/>
      <point x="304" y="1"/>
      <point x="304" y="6" type="curve"/>
      <point x="304" y="14" type="line"/>
      <point x="304" y="19"/>
      <point x="303" y="20"/>
      <point x="298" y="21" type="curve"/>
      <point x="188" y="30" type="line"/>
      <point x="179" y="31"/>
      <point x="176" y="38"/>
      <point x="177" y="48" type="curve"/>
      <point x="235" y="708" type="line"/>
      <point x="218" y="701" type="line"/>
      <point x="490" y="6" type="line"/>
      <point x="492" y="1"/>
      <point x="493" y="0"/>
      <point x="498" y="0" type="curve"/>
      <point x="505" y="0" type="line"/>
      <point x="510" y="0"/>
      <point x="511" y="1"/>
      <point x="513" y="6" type="curve"/>
      <point x="769" y="701" type="line"/>
      <point x="760" y="708" type="line"/>
      <point x="818" y="48" type="line"/>
      <point x="819" y="38"/>
      <point x="816" y="31"/>
      <point x="807" y="30" type="curve"/>
      <point x="698" y="21" type="line"/>
      <point x="693" y="20"/>
      <point x="692" y="19"/>
      <point x="692" y="14" type="curve"/>
      <point x="692" y="6" type="line"/>
      <point x="692" y="1"/>
      <point x="693" y="0"/>
      <point x="698" y="0" type="curve"/>
      <point x="982" y="0" type="line"/>
      <point x="987" y="0"/>
      <point x="988" y="1"/>
      <point x="988" y="6" type="curve"/>
      <point x="988" y="14" type="line"/>
      <point x="988" y="19"/>
      <point x="987" y="20"/>
      <point x="982" y="21" type="curve"/>
      <point x="876" y="30" type="line"/>
      <point x="866" y="30"/>
      <point x="859" y="35"/>
      <point x="858" y="44" type="curve"/>
      <point x="802" y="684" type="line"/>
      <point x="802" y="694"/>
      <point x="805" y="701"/>
      <point x="814" y="702" type="curve"/>
      <point x="922" y="711" type="line"/>
      <point x="927" y="712"/>
      <point x="928" y="713"/>
      <point x="928" y="718" type="curve"/>
      <point x="928" y="727" type="line"/>
      <point x="928" y="732"/>
      <point x="927" y="733"/>
      <point x="922" y="733" type="curve"/>
      <point x="747" y="733" type="line"/>
      <point x="736" y="733"/>
      <point x="734" y="732"/>
      <point x="734" y="719" type="curve"/>
      <point x="734" y="721" type="line"/>
      <point x="734" y="706"/>
      <point x="732" y="693"/>
      <point x="721" y="665" type="curve"/>
      <point x="494" y="43" type="line"/>
      <point x="516" y="41" type="line"/>
      <point x="273" y="662" type="line"/>
      <point x="262" y="689"/>
      <point x="258" y="704"/>
      <point x="258" y="719" type="curve"/>
      <point x="258" y="720" type="line"/>
      <point x="258" y="731"/>
      <point x="257" y="733"/>
      <point x="244" y="733" type="curve"/>
      <point x="78" y="733" type="line"/>
      <point x="73" y="733"/>
      <point x="72" y="732"/>
      <point x="72" y="727" type="curve"/>
      <point x="72" y="718" type="line"/>
      <point x="72" y="713"/>
      <point x="73" y="712"/>
      <point x="78" y="711" type="curve"/>
      <point x="184" y="702" type="line"/>
      <point x="194" y="702"/>
      <point x="201" y="697"/>
      <point x="200" y="688" type="curve"/>
      <point x="142" y="44" type="line"/>
      <point x="141" y="35"/>
      <point x="134" y="30"/>
      <point x="124" y="30" type="curve"/>
      <point x="18" y="21" type="line"/>
      <point x="13" y="20"/>
      <point x="12" y="19"/>
      <point x="12" y="14" type="curve"/>
      <point x="12" y="6" type="line"/>
      <point x="12" y="1"/>
      <point x="13" y="0"/>
    </contour>
  </outline>
</glyph>
<glyph name="N" format="2">
  <advance width="848"/>
  <unicode hex="004E"/>
  <anchor x="436" y="0" name="bottom"/>
  <anchor x="436" y="733" name="top"/>
  <outline>
    <contour>
      <point x="733" y="702" type="curve"/>
      <point x="839" y="711" type="line"/>
      <point x="844" y="712"/>
      <point x="845" y="713"/>
      <point x="845" y="718" type="curve"/>
      <point x="845" y="727" type="line"/>
      <point x="845" y="732"/>
      <point x="844" y="733"/>
      <point x="839" y="733" type="curve"/>
      <point x="559" y="733" type="line"/>
      <point x="554" y="733"/>
      <point x="553" y="732"/>
      <point x="553" y="727" type="curve"/>
      <point x="553" y="718" type="line"/>
      <point x="553" y="713"/>
      <point x="554" y="712"/>
      <point x="559" y="711" type="curve"/>
      <point x="669" y="702" type="line"/>
      <point x="678" y="701"/>
      <point x="682" y="694"/>
      <point x="682" y="684" type="curve"/>
      <point x="682" y="43" type="line"/>
      <point x="708" y="41" type="line"/>
      <point x="205" y="728" type="line"/>
      <point x="202" y="732"/>
      <point x="200" y="733"/>
      <point x="195" y="733" type="curve"/>
      <point x="46" y="733" type="line"/>
      <point x="41" y="733"/>
      <point x="40" y="732"/>
      <point x="40" y="727" type="curve"/>
      <point x="40" y="718" type="line"/>
      <point x="40" y="713"/>
      <point x="41" y="712"/>
      <point x="46" y="711" type="curve"/>
      <point x="152" y="702" type="line"/>
      <point x="162" y="702"/>
      <point x="169" y="697"/>
      <point x="169" y="688" type="curve"/>
      <point x="169" y="44" type="line"/>
      <point x="169" y="35"/>
      <point x="162" y="30"/>
      <point x="152" y="30" type="curve"/>
      <point x="46" y="21" type="line"/>
      <point x="41" y="20"/>
      <point x="40" y="19"/>
      <point x="40" y="14" type="curve"/>
      <point x="40" y="6" type="line"/>
      <point x="40" y="1"/>
      <point x="41" y="0"/>
      <point x="46" y="0" type="curve"/>
      <point x="325" y="0" type="line"/>
      <point x="330" y="0"/>
      <point x="331" y="1"/>
      <point x="331" y="6" type="curve"/>
      <point x="331" y="14" type="line"/>
      <point x="331" y="19"/>
      <point x="330" y="20"/>
      <point x="325" y="21" type="curve"/>
      <point x="215" y="30" type="line"/>
      <point x="206" y="31"/>
      <point x="202" y="38"/>
      <point x="202" y="48" type="curve"/>
      <point x="202" y="708" type="line"/>
      <point x="182" y="701" type="line"/>
      <point x="694" y="3" type="line"/>
      <point x="697" y="-1"/>
      <point x="699" y="-2"/>
      <point x="704" y="-2" type="curve"/>
      <point x="710" y="-2" type="line"/>
      <point x="715" y="-2"/>
      <point x="716" y="-1"/>
      <point x="716" y="4" type="curve"/>
      <point x="716" y="688" type="line"/>
      <point x="716" y="697"/>
      <point x="723" y="702"/>
    </contour>
  </outline>
</glyph>
<glyph name="O" format="2">
  <advance width="866"/>
  <unicode hex="004F"/>
  <anchor x="434" y="0" name="bottom"/>
  <anchor x="434" y="366" name="center"/>
  <anchor x="482" y="0" name="ogonek"/>
  <anchor x="434" y="733" name="top"/>
  <anchor x="24" y="733" name="topleft"/>
  <anchor x="842" y="733" name="topright"/>
  <outline>
    <contour>
      <point x="430" y="-6" type="curve" smooth="yes"/>
      <point x="639" y="-6"/>
      <point x="777" y="143"/>
      <point x="777" y="367" type="curve" smooth="yes"/>
      <point x="777" y="589"/>
      <point x="637" y="739"/>
      <point x="430" y="739" type="curve" smooth="yes"/>
      <point x="229" y="739"/>
      <point x="89" y="587"/>
      <point x="89" y="367" type="curve" smooth="yes"/>
      <point x="89" y="146"/>
      <point x="228" y="-6"/>
    </contour>
    <contour>
      <point x="429" y="28" type="curve" smooth="yes"/>
      <point x="247" y="28"/>
      <point x="128" y="161"/>
      <point x="128" y="367" type="curve" smooth="yes"/>
      <point x="128" y="572"/>
      <point x="246" y="705"/>
      <point x="429" y="705" type="curve" smooth="yes"/>
      <point x="616" y="705"/>
      <point x="738" y="572"/>
      <point x="738" y="367" type="curve" smooth="yes"/>
      <point x="738" y="161"/>
      <point x="616" y="28"/>
    </contour>
  </outline>
</glyph>
<glyph name="P" format="2">
  <advance width="678"/>
  <unicode hex="0050"/>
  <anchor x="352" y="0" name="bottom"/>
  <anchor x="352" y="733" name="top"/>
  <outline>
    <contour>
      <point x="169" y="0" type="line"/>
      <point x="207" y="0" type="line"/>
      <point x="207" y="733" type="line"/>
      <point x="169" y="733" type="line"/>
    </contour>
    <contour>
      <point x="46" y="0" type="curve"/>
      <point x="366" y="0" type="line"/>
      <point x="371" y="0"/>
      <point x="372" y="1"/>
      <point x="372" y="6" type="curve"/>
      <point x="372" y="14" type="line"/>
      <point x="372" y="19"/>
      <point x="371" y="20"/>
      <point x="366" y="20" type="curve"/>
      <point x="224" y="30" type="line"/>
      <point x="214" y="31"/>
      <point x="207" y="35"/>
      <point x="207" y="44" type="curve"/>
      <point x="207" y="222" type="line"/>
      <point x="169" y="222" type="line"/>
      <point x="169" y="48" type="line"/>
      <point x="169" y="38"/>
      <point x="165" y="31"/>
      <point x="156" y="30" type="curve"/>
      <point x="46" y="21" type="line"/>
      <point x="41" y="20"/>
      <point x="40" y="19"/>
      <point x="40" y="14" type="curve"/>
      <point x="40" y="6" type="line"/>
      <point x="40" y="1"/>
      <point x="41" y="0"/>
    </contour>
    <contour>
      <point x="40" y="727" type="curve"/>
      <point x="40" y="719" type="line"/>
      <point x="40" y="714"/>
      <point x="41" y="713"/>
      <point x="46" y="712" type="curve"/>
      <point x="156" y="703" type="line"/>
      <point x="165" y="702"/>
      <point x="169" y="695"/>
      <point x="169" y="685" type="curve"/>
      <point x="169" y="511" type="line"/>
      <point x="207" y="511" type="line"/>
      <point x="207" y="733" type="line"/>
      <point x="46" y="733" type="line"/>
      <point x="41" y="733"/>
      <point x="40" y="732"/>
    </contour>
    <contour>
      <point x="207" y="346" type="curve"/>
      <point x="207" y="317" type="line"/>
      <point x="245" y="314"/>
      <point x="286" y="313"/>
      <point x="334" y="313" type="curve" smooth="yes"/>
      <point x="526" y="313"/>
      <point x="629" y="388"/>
      <point x="629" y="529" type="curve" smooth="yes"/>
      <point x="629" y="661"/>
      <point x="537" y="733"/>
      <point x="367" y="733" type="curve" smooth="yes"/>
      <point x="207" y="733" type="line"/>
      <point x="207" y="704" type="line"/>
      <point x="367" y="704" type="line" smooth="yes"/>
      <point x="514" y="704"/>
      <point x="590" y="645"/>
      <point x="590" y="529" type="curve" smooth="yes"/>
      <point x="590" y="405"/>
      <point x="503" y="342"/>
      <point x="334" y="342" type="curve" smooth="yes"/>
      <point x="286" y="342"/>
      <point x="245" y="343"/>
    </contour>
  </outline>
</glyph>
<glyph name="R" format="2">
  <advance width="718"/>
  <unicode hex="0052"/>
  <anchor x="405" y="0" name="bottom"/>
  <anchor x="346" y="733" name="top"/>
  <outline>
    <contour>
      <point x="207" y="339" type="line"/>
      <point x="384" y="339" type="line" smooth="yes"/>
      <point x="535" y="339"/>
      <point x="628" y="414"/>
      <point x="628" y="536" type="curve" smooth="yes"/>
      <point x="628" y="658"/>
      <point x="535" y="733"/>
      <point x="384" y="733" type="curve" smooth="yes"/>
      <point x="207" y="733" type="line"/>
      <point x="207" y="704" type="line"/>
      <point x="384" y="704" type="line" smooth="yes"/>
      <point x="507" y="704"/>
      <point x="589" y="637"/>
      <point x="589" y="536" type="curve" smooth="yes"/>
      <point x="589" y="434"/>
      <point x="508" y="368"/>
      <point x="384" y="368" type="curve" smooth="yes"/>
      <point x="207" y="368" type="line"/>
    </contour>
    <contour>
      <point x="169" y="0" type="line"/>
      <point x="207" y="0" type="line"/>
      <point x="207" y="733" type="line"/>
      <point x="169" y="733" type="line"/>
    </contour>
    <contour>
      <point x="618" y="0" type="curve"/>
      <point x="722" y="0" type="line"/>
      <point x="727" y="0"/>
      <point x="728" y="1"/>
      <point x="728" y="6" type="curve"/>
      <point x="728" y="14" type="line"/>
      <point x="728" y="19"/>
      <point x="727" y="20"/>
      <point x="722" y="21" type="curve"/>
      <point x="644" y="36" type="line"/>
      <point x="634" y="38"/>
      <point x="625" y="42"/>
      <point x="619" y="50" type="curve"/>
      <point x="453" y="280" type="line" smooth="yes"/>
      <point x="412" y="336"/>
      <point x="375" y="355"/>
      <point x="320" y="355" type="curve"/>
      <point x="302" y="339" type="line"/>
      <point x="348" y="339"/>
      <point x="369" y="334"/>
      <point x="423" y="258" type="curve" smooth="yes"/>
      <point x="595" y="15" type="line"/>
      <point x="605" y="2"/>
      <point x="608" y="0"/>
    </contour>
    <contour>
      <point x="46" y="0" type="curve"/>
      <point x="330" y="0" type="line"/>
      <point x="335" y="0"/>
      <point x="336" y="1"/>
      <point x="336" y="6" type="curve"/>
      <point x="336" y="14" type="line"/>
      <point x="336" y="19"/>
      <point x="335" y="20"/>
      <point x="330" y="21" type="curve"/>
      <point x="224" y="30" type="line"/>
      <point x="214" y="30"/>
      <point x="207" y="35"/>
      <point x="207" y="44" type="curve"/>
      <point x="207" y="222" type="line"/>
      <point x="169" y="222" type="line"/>
      <point x="169" y="48" type="line"/>
      <point x="169" y="38"/>
      <point x="165" y="31"/>
      <point x="156" y="30" type="curve"/>
      <point x="46" y="21" type="line"/>
      <point x="41" y="20"/>
      <point x="40" y="19"/>
      <point x="40" y="14" type="curve"/>
      <point x="40" y="6" type="line"/>
      <point x="40" y="1"/>
      <point x="41" y="0"/>
    </contour>
    <contour>
      <point x="40" y="727" type="curve"/>
      <point x="40" y="719" type="line"/>
      <point x="40" y="714"/>
      <point x="41" y="713"/>
      <point x="46" y="712" type="curve"/>
      <point x="156" y="703" type="line"/>
      <point x="165" y="702"/>
      <point x="169" y="695"/>
      <point x="169" y="685" type="curve"/>
      <point x="169" y="511" type="line"/>
      <point x="207" y="511" type="line"/>
      <point x="207" y="733" type="line"/>
      <point x="46" y="733" type="line"/>
      <point x="41" y="733"/>
      <point x="40" y="732"/>
    </contour>
  </outline>
</glyph>
<glyph name="S" format="2">
  <advance width="654"/>
  <unicode hex="0053"/>
  <anchor x="328" y="0" name="bottom"/>
  <anchor x="328" y="733" name="top"/>
  <outline>
    <contour>
      <point x="334" y="395" type="curve" smooth="yes"/>
      <point x="188" y="434"/>
      <point x="138" y="475"/>
      <point x="138" y="555" type="curve" smooth="yes"/>
      <point x="138" y="655"/>
      <point x="209" y="705"/>
      <point x="348" y="705" type="curve" smooth="yes"/>
      <point x="400" y="705"/>
      <point x="489" y="690"/>
      <point x="504" y="627" type="curve" smooth="yes"/>
      <point x="524" y="542" type="line"/>
      <point x="525" y="537"/>
      <point x="526" y="536"/>
      <point x="531" y="536" type="curve"/>
      <point x="547" y="537" type="line"/>
      <point x="552" y="537"/>
      <point x="553" y="538"/>
      <point x="552" y="543" type="curve"/>
      <point x="542" y="669" type="line"/>
      <point x="541" y="674"/>
      <point x="540" y="676"/>
      <point x="537" y="679" type="curve"/>
      <point x="510" y="703"/>
      <point x="438" y="739"/>
      <point x="348" y="739" type="curve" smooth="yes"/>
      <point x="190" y="739"/>
      <point x="99" y="672"/>
      <point x="99" y="555" type="curve" smooth="yes"/>
      <point x="99" y="456"/>
      <point x="156" y="406"/>
      <point x="323" y="361" type="curve" smooth="yes"/>
      <point x="488" y="317"/>
      <point x="531" y="281"/>
      <point x="531" y="186" type="curve" smooth="yes"/>
      <point x="531" y="85"/>
      <point x="454" y="28"/>
      <point x="320" y="28" type="curve" smooth="yes"/>
      <point x="252" y="28"/>
      <point x="142" y="40"/>
      <point x="123" y="125" type="curve" smooth="yes"/>
      <point x="108" y="189" type="line"/>
      <point x="107" y="194"/>
      <point x="106" y="195"/>
      <point x="101" y="195" type="curve"/>
      <point x="88" y="194" type="line"/>
      <point x="83" y="194"/>
      <point x="82" y="193"/>
      <point x="83" y="188" type="curve"/>
      <point x="93" y="60" type="line"/>
      <point x="94" y="55"/>
      <point x="95" y="53"/>
      <point x="99" y="51" type="curve"/>
      <point x="143" y="22"/>
      <point x="236" y="-6"/>
      <point x="320" y="-6" type="curve" smooth="yes"/>
      <point x="477" y="-6"/>
      <point x="570" y="65"/>
      <point x="570" y="186" type="curve" smooth="yes"/>
      <point x="570" y="297"/>
      <point x="514" y="347"/>
    </contour>
  </outline>
</glyph>
<glyph name="T" format="2">
  <advance width="639"/>
  <unicode hex="0054"/>
  <anchor x="320" y="0" name="bottom"/>
  <anchor x="320" y="366" name="center"/>
  <anchor x="320" y="733" name="top"/>
  <outline>
    <contour>
      <point x="301" y="0" type="line"/>
      <point x="339" y="0" type="line"/>
      <point x="339" y="733" type="line"/>
      <point x="301" y="733" type="line"/>
    </contour>
    <contour>
      <point x="604" y="739" type="curve"/>
      <point x="565" y="736" type="line"/>
      <point x="474" y="734"/>
      <point x="423" y="733"/>
      <point x="320" y="733" type="curve" smooth="yes"/>
      <point x="216" y="733"/>
      <point x="143" y="733"/>
      <point x="74" y="736" type="curve"/>
      <point x="42" y="739" type="line"/>
      <point x="25" y="740"/>
      <point x="23" y="738"/>
      <point x="22" y="728" type="curve"/>
      <point x="10" y="546" type="line"/>
      <point x="10" y="541"/>
      <point x="11" y="540"/>
      <point x="16" y="539" type="curve"/>
      <point x="27" y="537" type="line"/>
      <point x="32" y="536"/>
      <point x="33" y="537"/>
      <point x="34" y="542" type="curve"/>
      <point x="64" y="687" type="line"/>
      <point x="66" y="697"/>
      <point x="71" y="704"/>
      <point x="80" y="704" type="curve"/>
      <point x="556" y="704" type="line"/>
      <point x="566" y="704"/>
      <point x="574" y="700"/>
      <point x="576" y="691" type="curve"/>
      <point x="605" y="542" type="line"/>
      <point x="606" y="537"/>
      <point x="607" y="536"/>
      <point x="612" y="537" type="curve"/>
      <point x="623" y="539" type="line"/>
      <point x="628" y="540"/>
      <point x="629" y="541"/>
      <point x="629" y="546" type="curve"/>
      <point x="617" y="721" type="line"/>
      <point x="616" y="738"/>
      <point x="614" y="740"/>
    </contour>
    <contour>
      <point x="178" y="0" type="curve"/>
      <point x="462" y="0" type="line"/>
      <point x="467" y="0"/>
      <point x="468" y="1"/>
      <point x="468" y="6" type="curve"/>
      <point x="468" y="14" type="line"/>
      <point x="468" y="19"/>
      <point x="467" y="20"/>
      <point x="462" y="21" type="curve"/>
      <point x="356" y="30" type="line"/>
      <point x="346" y="30"/>
      <point x="339" y="35"/>
      <point x="339" y="44" type="curve"/>
      <point x="339" y="222" type="line"/>
      <point x="301" y="222" type="line"/>
      <point x="301" y="48" type="line"/>
      <point x="301" y="38"/>
      <point x="297" y="31"/>
      <point x="288" y="30" type="curve"/>
      <point x="178" y="21" type="line"/>
      <point x="173" y="20"/>
      <point x="172" y="19"/>
      <point x="172" y="14" type="curve"/>
      <point x="172" y="6" type="line"/>
      <point x="172" y="1"/>
      <point x="173" y="0"/>
    </contour>
  </outline>
</glyph>
<glyph name="U" format="2">
  <advance width="869"/>
  <unicode hex="0055"/>
  <anchor x="435" y="0" name="bottom"/>
  <anchor x="483" y="0" name="ogonek"/>
  <anchor x="437" y="733" name="top"/>
  <anchor x="845" y="733" name="topright"/>
  <outline>
    <contour>
      <point x="715" y="259" type="curve" smooth="yes"/>
      <point x="715" y="733" type="line"/>
      <point x="679" y="733" type="line"/>
      <point x="679" y="257" type="line" smooth="yes"/>
      <point x="679" y="116"/>
      <point x="584" y="28"/>
      <point x="434" y="28" type="curve" smooth="yes"/>
      <point x="285" y="28"/>
      <point x="192" y="108"/>
      <point x="192" y="236" type="curve" smooth="yes"/>
      <point x="192" y="733" type="line"/>
      <point x="154" y="733" type="line"/>
      <point x="154" y="239" type="line" smooth="yes"/>
      <point x="154" y="87"/>
      <point x="260" y="-6"/>
      <point x="434" y="-6" type="curve" smooth="yes"/>
      <point x="610" y="-6"/>
      <point x="715" y="93"/>
    </contour>
    <contour>
      <point x="25" y="727" type="curve"/>
      <point x="25" y="719" type="line"/>
      <point x="25" y="714"/>
      <point x="26" y="713"/>
      <point x="31" y="712" type="curve"/>
      <point x="141" y="703" type="line"/>
      <point x="150" y="702"/>
      <point x="154" y="695"/>
      <point x="154" y="685" type="curve"/>
      <point x="154" y="511" type="line"/>
      <point x="192" y="511" type="line"/>
      <point x="192" y="689" type="line"/>
      <point x="192" y="698"/>
      <point x="199" y="703"/>
      <point x="209" y="703" type="curve"/>
      <point x="315" y="712" type="line"/>
      <point x="320" y="713"/>
      <point x="321" y="714"/>
      <point x="321" y="719" type="curve"/>
      <point x="321" y="727" type="line"/>
      <point x="321" y="732"/>
      <point x="320" y="733"/>
      <point x="315" y="733" type="curve"/>
      <point x="31" y="733" type="line"/>
      <point x="26" y="733"/>
      <point x="25" y="732"/>
    </contour>
    <contour>
      <point x="551" y="727" type="curve"/>
      <point x="551" y="719" type="line"/>
      <point x="551" y="714"/>
      <point x="552" y="713"/>
      <point x="557" y="712" type="curve"/>
      <point x="666" y="703" type="line"/>
      <point x="675" y="702"/>
      <point x="679" y="695"/>
      <point x="679" y="685" type="curve"/>
      <point x="679" y="511" type="line"/>
      <point x="715" y="511" type="line"/>
      <point x="715" y="689" type="line"/>
      <point x="715" y="698"/>
      <point x="722" y="703"/>
      <point x="732" y="703" type="curve"/>
      <point x="836" y="712" type="line"/>
      <point x="841" y="713"/>
      <point x="842" y="714"/>
      <point x="842" y="719" type="curve"/>
      <point x="842" y="727" type="line"/>
      <point x="842" y="732"/>
      <point x="841" y="733"/>
      <point x="836" y="733" type="curve"/>
      <point x="557" y="733" type="line"/>
      <point x="552" y="733"/>
      <point x="551" y="732"/>
    </contour>
  </outline>
</glyph>
<glyph name="V" format="2">
  <advance width="815"/>
  <unicode hex="0056"/>
  <anchor x="408" y="0" name="bottom"/>
  <anchor x="408" y="733" name="top"/>
  <outline>
    <contour>
      <point x="414" y="0" type="curve"/>
      <point x="422" y="0" type="line"/>
      <point x="427" y="0"/>
      <point x="428" y="1"/>
      <point x="430" y="6" type="curve"/>
      <point x="692" y="686" type="line"/>
      <point x="695" y="695"/>
      <point x="702" y="702"/>
      <point x="711" y="703" type="curve"/>
      <point x="803" y="712" type="line"/>
      <point x="808" y="713"/>
      <point x="809" y="714"/>
      <point x="809" y="719" type="curve"/>
      <point x="809" y="727" type="line"/>
      <point x="809" y="732"/>
      <point x="808" y="733"/>
      <point x="803" y="733" type="curve"/>
      <point x="519" y="733" type="line"/>
      <point x="514" y="733"/>
      <point x="513" y="732"/>
      <point x="513" y="727" type="curve"/>
      <point x="513" y="719" type="line"/>
      <point x="513" y="714"/>
      <point x="514" y="713"/>
      <point x="519" y="713" type="curve"/>
      <point x="622" y="705" type="line"/>
      <point x="651" y="703"/>
      <point x="661" y="695"/>
      <point x="650" y="667" type="curve"/>
      <point x="412" y="44" type="line"/>
      <point x="432" y="41" type="line"/>
      <point x="179" y="664" type="line"/>
      <point x="169" y="691"/>
      <point x="171" y="703"/>
      <point x="201" y="705" type="curve"/>
      <point x="301" y="713" type="line"/>
      <point x="306" y="713"/>
      <point x="307" y="714"/>
      <point x="307" y="719" type="curve"/>
      <point x="307" y="727" type="line"/>
      <point x="307" y="732"/>
      <point x="306" y="733"/>
      <point x="301" y="733" type="curve"/>
      <point x="17" y="733" type="line"/>
      <point x="12" y="733"/>
      <point x="11" y="732"/>
      <point x="11" y="727" type="curve"/>
      <point x="11" y="719" type="line"/>
      <point x="11" y="714"/>
      <point x="12" y="713"/>
      <point x="17" y="712" type="curve"/>
      <point x="106" y="704" type="line"/>
      <point x="116" y="703"/>
      <point x="125" y="698"/>
      <point x="128" y="690" type="curve"/>
      <point x="406" y="6" type="line"/>
      <point x="408" y="1"/>
      <point x="409" y="0"/>
    </contour>
  </outline>
</glyph>
<glyph name="W" format="2">
  <advance width="1213"/>
  <unicode hex="0057"/>
  <anchor x="607" y="0" name="bottom"/>
  <anchor x="611" y="733" name="top"/>
  <outline>
    <contour>
      <point x="380" y="0" type="curve"/>
      <point x="388" y="0" type="line"/>
      <point x="393" y="0"/>
      <point x="394" y="1"/>
      <point x="396" y="6" type="curve"/>
      <point x="614" y="680" type="line"/>
      <point x="597" y="680" type="line"/>
      <point x="834" y="6" type="line"/>
      <point x="836" y="1"/>
      <point x="837" y="0"/>
      <point x="842" y="0" type="curve"/>
      <point x="849" y="0" type="line"/>
      <point x="854" y="0"/>
      <point x="855" y="1"/>
      <point x="857" y="6" type="curve"/>
      <point x="1088" y="685" type="line"/>
      <point x="1091" y="694"/>
      <point x="1097" y="701"/>
      <point x="1106" y="702" type="curve"/>
      <point x="1201" y="712" type="line"/>
      <point x="1206" y="713"/>
      <point x="1207" y="714"/>
      <point x="1207" y="719" type="curve"/>
      <point x="1207" y="727" type="line"/>
      <point x="1207" y="732"/>
      <point x="1206" y="733"/>
      <point x="1201" y="733" type="curve"/>
      <point x="916" y="733" type="line"/>
      <point x="911" y="733"/>
      <point x="910" y="732"/>
      <point x="910" y="727" type="curve"/>
      <point x="910" y="719" type="line"/>
      <point x="910" y="714"/>
      <point x="911" y="713"/>
      <point x="916" y="712" type="curve"/>
      <point x="1018" y="704" type="line"/>
      <point x="1047" y="701"/>
      <point x="1057" y="693"/>
      <point x="1047" y="665" type="curve"/>
      <point x="837" y="43" type="line"/>
      <point x="859" y="45" type="line"/>
      <point x="619" y="727" type="line"/>
      <point x="617" y="732"/>
      <point x="616" y="733"/>
      <point x="611" y="733" type="curve"/>
      <point x="603" y="733" type="line"/>
      <point x="598" y="733"/>
      <point x="597" y="732"/>
      <point x="595" y="727" type="curve"/>
      <point x="375" y="43" type="line"/>
      <point x="397" y="44" type="line"/>
      <point x="176" y="663" type="line"/>
      <point x="166" y="691"/>
      <point x="169" y="703"/>
      <point x="199" y="705" type="curve"/>
      <point x="301" y="713" type="line"/>
      <point x="306" y="713"/>
      <point x="307" y="714"/>
      <point x="307" y="719" type="curve"/>
      <point x="307" y="727" type="line"/>
      <point x="307" y="732"/>
      <point x="306" y="733"/>
      <point x="301" y="733" type="curve"/>
      <point x="17" y="733" type="line"/>
      <point x="12" y="733"/>
      <point x="11" y="732"/>
      <point x="11" y="727" type="curve"/>
      <point x="11" y="719" type="line"/>
      <point x="11" y="714"/>
      <point x="12" y="713"/>
      <point x="17" y="712" type="curve"/>
      <point x="106" y="704" type="line"/>
      <point x="116" y="703"/>
      <point x="124" y="698"/>
      <point x="127" y="690" type="curve"/>
      <point x="372" y="6" type="line"/>
      <point x="374" y="1"/>
      <point x="375" y="0"/>
    </contour>
  </outline>
</glyph>
<glyph name="X" format="2">
  <advance width="799"/>
  <unicode hex="0058"/>
  <outline>
    <contour>
      <point x="30" y="0" type="curve"/>
      <point x="315" y="0" type="line"/>
      <point x="320" y="0"/>
      <point x="321" y="1"/>
      <point x="321" y="6" type="curve"/>
      <point x="321" y="14" type="line"/>
      <point x="321" y="19"/>
      <point x="320" y="20"/>
      <point x="315" y="21" type="curve"/>
      <point x="215" y="29" type="line"/>
      <point x="186" y="32"/>
      <point x="178" y="39"/>
      <point x="195" y="63" type="curve"/>
      <point x="400" y="359" type="line"/>
      <point x="383" y="384" type="line"/>
      <point x="148" y="47" type="line"/>
      <point x="142" y="39"/>
      <point x="134" y="33"/>
      <point x="125" y="32" type="curve"/>
      <point x="30" y="21" type="line"/>
      <point x="25" y="20"/>
      <point x="24" y="19"/>
      <point x="24" y="14" type="curve"/>
      <point x="24" y="6" type="line"/>
      <point x="24" y="1"/>
      <point x="25" y="0"/>
    </contour>
    <contour>
      <point x="661" y="701" type="curve"/>
      <point x="756" y="711" type="line"/>
      <point x="761" y="712"/>
      <point x="762" y="713"/>
      <point x="762" y="718" type="curve"/>
      <point x="762" y="727" type="line"/>
      <point x="762" y="732"/>
      <point x="761" y="733"/>
      <point x="756" y="733" type="curve"/>
      <point x="472" y="733" type="line"/>
      <point x="467" y="733"/>
      <point x="466" y="732"/>
      <point x="466" y="727" type="curve"/>
      <point x="466" y="718" type="line"/>
      <point x="466" y="713"/>
      <point x="467" y="712"/>
      <point x="472" y="712" type="curve"/>
      <point x="570" y="703" type="line"/>
      <point x="599" y="701"/>
      <point x="607" y="694"/>
      <point x="590" y="670" type="curve"/>
      <point x="380" y="376" type="line"/>
      <point x="396" y="351" type="line"/>
      <point x="638" y="686" type="line"/>
      <point x="644" y="694"/>
      <point x="652" y="700"/>
    </contour>
    <contour>
      <point x="220" y="703" type="curve"/>
      <point x="315" y="711" type="line"/>
      <point x="320" y="712"/>
      <point x="321" y="713"/>
      <point x="321" y="718" type="curve"/>
      <point x="321" y="727" type="line"/>
      <point x="321" y="732"/>
      <point x="320" y="733"/>
      <point x="315" y="733" type="curve"/>
      <point x="30" y="733" type="line"/>
      <point x="25" y="733"/>
      <point x="24" y="732"/>
      <point x="24" y="727" type="curve"/>
      <point x="24" y="718" type="line"/>
      <point x="24" y="713"/>
      <point x="25" y="712"/>
      <point x="30" y="711" type="curve"/>
      <point x="123" y="702" type="line"/>
      <point x="133" y="701"/>
      <point x="142" y="697"/>
      <point x="148" y="689" type="curve"/>
      <point x="592" y="66" type="line"/>
      <point x="609" y="43"/>
      <point x="609" y="32"/>
      <point x="579" y="30" type="curve"/>
      <point x="484" y="21" type="line"/>
      <point x="479" y="20"/>
      <point x="478" y="19"/>
      <point x="478" y="14" type="curve"/>
      <point x="478" y="6" type="line"/>
      <point x="478" y="1"/>
      <point x="479" y="0"/>
      <point x="484" y="0" type="curve"/>
      <point x="768" y="0" type="line"/>
      <point x="773" y="0"/>
      <point x="774" y="1"/>
      <point x="774" y="6" type="curve"/>
      <point x="774" y="14" type="line"/>
      <point x="774" y="19"/>
      <point x="773" y="20"/>
      <point x="768" y="21" type="curve"/>
      <point x="676" y="31" type="line"/>
      <point x="666" y="32"/>
      <point x="657" y="36"/>
      <point x="651" y="44" type="curve"/>
      <point x="207" y="667" type="line"/>
      <point x="190" y="690"/>
      <point x="190" y="701"/>
    </contour>
  </outline>
</glyph>
<glyph name="Y" format="2">
  <advance width="808"/>
  <unicode hex="0059"/>
  <anchor x="410" y="0" name="bottom"/>
  <anchor x="403" y="733" name="top"/>
  <anchor x="7" y="733" name="topleft"/>
  <outline>
    <contour>
      <point x="391" y="0" type="line"/>
      <point x="429" y="0" type="line"/>
      <point x="429" y="317" type="line"/>
      <point x="391" y="317" type="line"/>
    </contour>
    <contour>
      <point x="129" y="689" type="curve"/>
      <point x="401" y="289" type="line"/>
      <point x="420" y="289" type="line"/>
      <point x="675" y="686" type="line"/>
      <point x="680" y="694"/>
      <point x="688" y="700"/>
      <point x="697" y="701" type="curve"/>
      <point x="796" y="711" type="line"/>
      <point x="801" y="712"/>
      <point x="802" y="713"/>
      <point x="802" y="718" type="curve"/>
      <point x="802" y="727" type="line"/>
      <point x="802" y="732"/>
      <point x="801" y="733"/>
      <point x="796" y="733" type="curve"/>
      <point x="512" y="733" type="line"/>
      <point x="507" y="733"/>
      <point x="506" y="732"/>
      <point x="506" y="727" type="curve"/>
      <point x="506" y="718" type="line"/>
      <point x="506" y="713"/>
      <point x="507" y="712"/>
      <point x="512" y="711" type="curve"/>
      <point x="607" y="703" type="line"/>
      <point x="636" y="701"/>
      <point x="644" y="694"/>
      <point x="628" y="669" type="curve"/>
      <point x="405" y="320" type="line"/>
      <point x="423" y="320" type="line"/>
      <point x="187" y="667" type="line"/>
      <point x="171" y="691"/>
      <point x="171" y="702"/>
      <point x="201" y="704" type="curve"/>
      <point x="305" y="712" type="line"/>
      <point x="310" y="712"/>
      <point x="311" y="713"/>
      <point x="311" y="718" type="curve"/>
      <point x="311" y="727" type="line"/>
      <point x="311" y="732"/>
      <point x="310" y="733"/>
      <point x="305" y="733" type="curve"/>
      <point x="17" y="733" type="line"/>
      <point x="12" y="733"/>
      <point x="11" y="732"/>
      <point x="11" y="727" type="curve"/>
      <point x="11" y="718" type="line"/>
      <point x="11" y="713"/>
      <point x="12" y="712"/>
      <point x="17" y="711" type="curve"/>
      <point x="105" y="702" type="line"/>
      <point x="115" y="701"/>
      <point x="124" y="697"/>
    </contour>
    <contour>
      <point x="268" y="0" type="curve"/>
      <point x="552" y="0" type="line"/>
      <point x="557" y="0"/>
      <point x="558" y="1"/>
      <point x="558" y="6" type="curve"/>
      <point x="558" y="14" type="line"/>
      <point x="558" y="19"/>
      <point x="557" y="20"/>
      <point x="552" y="21" type="curve"/>
      <point x="446" y="30" type="line"/>
      <point x="436" y="30"/>
      <point x="429" y="35"/>
      <point x="429" y="44" type="curve"/>
      <point x="429" y="222" type="line"/>
      <point x="391" y="222" type="line"/>
      <point x="391" y="48" type="line"/>
      <point x="391" y="38"/>
      <point x="387" y="31"/>
      <point x="378" y="30" type="curve"/>
      <point x="268" y="21" type="line"/>
      <point x="263" y="20"/>
      <point x="262" y="19"/>
      <point x="262" y="14" type="curve"/>
      <point x="262" y="6" type="line"/>
      <point x="262" y="1"/>
      <point x="263" y="0"/>
    </contour>
  </outline>
</glyph>
<glyph name="Z" format="2">
  <advance width="681"/>
  <unicode hex="005A"/>
  <anchor x="341" y="0" name="bottom"/>
  <anchor x="341" y="366" name="center"/>
  <anchor x="370" y="733" name="top"/>
  <outline>
    <contour>
      <point x="72" y="0" type="curve"/>
      <point x="547" y="0" type="line"/>
      <point x="581" y="-3" type="line"/>
      <point x="598" y="-5"/>
      <point x="600" y="-3"/>
      <point x="601" y="7" type="curve"/>
      <point x="620" y="184" type="line"/>
      <point x="621" y="189"/>
      <point x="620" y="190"/>
      <point x="615" y="191" type="curve"/>
      <point x="602" y="192" type="line"/>
      <point x="597" y="193"/>
      <point x="596" y="192"/>
      <point x="595" y="187" type="curve"/>
      <point x="561" y="46" type="line"/>
      <point x="559" y="36"/>
      <point x="553" y="29"/>
      <point x="544" y="29" type="curve"/>
      <point x="84" y="29" type="line"/>
      <point x="105" y="11" type="line"/>
      <point x="621" y="713" type="line"/>
      <point x="624" y="717"/>
      <point x="625" y="719"/>
      <point x="624" y="724" type="curve"/>
      <point x="624" y="727" type="line"/>
      <point x="623" y="732"/>
      <point x="622" y="733"/>
      <point x="617" y="733" type="curve"/>
      <point x="170" y="733" type="line"/>
      <point x="136" y="736" type="line"/>
      <point x="119" y="737"/>
      <point x="117" y="735"/>
      <point x="116" y="725" type="curve"/>
      <point x="101" y="549" type="line"/>
      <point x="101" y="544"/>
      <point x="102" y="543"/>
      <point x="107" y="542" type="curve"/>
      <point x="118" y="540" type="line"/>
      <point x="123" y="539"/>
      <point x="124" y="540"/>
      <point x="125" y="545" type="curve"/>
      <point x="157" y="687" type="line"/>
      <point x="159" y="697"/>
      <point x="165" y="704"/>
      <point x="174" y="704" type="curve"/>
      <point x="582" y="704" type="line"/>
      <point x="583" y="716" type="line"/>
      <point x="68" y="19" type="line"/>
      <point x="65" y="15"/>
      <point x="64" y="13"/>
      <point x="65" y="8" type="curve"/>
      <point x="65" y="6" type="line"/>
      <point x="66" y="1"/>
      <point x="67" y="0"/>
    </contour>
  </outline>
</glyph>
<glyph name="bracketleft" format="2">
  <advance width="447"/>
  <unicode hex="005B"/>
  <outline>
    <contour>
      <point x="387" y="818" type="curve"/>
      <point x="387" y="825" type="line"/>
      <point x="387" y="830"/>
      <point x="386" y="831"/>
      <point x="381" y="831" type="curve"/>
      <point x="160" y="839" type="line"/>
      <point x="155" y="839"/>
      <point x="154" y="838"/>
      <point x="154" y="833" type="curve"/>
      <point x="154" y="-127" type="line"/>
      <point x="154" y="-132"/>
      <point x="155" y="-133"/>
      <point x="160" y="-133" type="curve"/>
      <point x="381" y="-129" type="line"/>
      <point x="386" y="-129"/>
      <point x="387" y="-128"/>
      <point x="387" y="-123" type="curve"/>
      <point x="387" y="-116" type="line"/>
      <point x="387" y="-111"/>
      <point x="386" y="-110"/>
      <point x="381" y="-110" type="curve"/>
      <point x="207" y="-103" type="line"/>
      <point x="197" y="-102"/>
      <point x="190" y="-98"/>
      <point x="190" y="-89" type="curve"/>
      <point x="190" y="795" type="line"/>
      <point x="190" y="804"/>
      <point x="197" y="808"/>
      <point x="207" y="808" type="curve"/>
      <point x="381" y="812" type="line"/>
      <point x="386" y="812"/>
      <point x="387" y="813"/>
    </contour>
  </outline>
</glyph>
<glyph name="asciicircum" format="2">
  <advance width="670"/>
  <unicode hex="005E"/>
  <outline>
    <contour>
      <point x="79" y="285" type="curve"/>
      <point x="319" y="724" type="line"/>
      <point x="322" y="728"/>
      <point x="323" y="729"/>
      <point x="328" y="729" type="curve"/>
      <point x="340" y="729" type="line"/>
      <point x="345" y="729"/>
      <point x="346" y="728"/>
      <point x="349" y="724" type="curve"/>
      <point x="592" y="288" type="line"/>
      <point x="595" y="284"/>
      <point x="594" y="283"/>
      <point x="589" y="282" type="curve"/>
      <point x="579" y="281"/>
      <point x="570" y="280"/>
      <point x="561" y="280" type="curve"/>
      <point x="556" y="280"/>
      <point x="555" y="281"/>
      <point x="552" y="285" type="curve"/>
      <point x="333" y="683" type="line"/>
      <point x="118" y="288" type="line"/>
      <point x="115" y="284"/>
      <point x="114" y="283"/>
      <point x="109" y="282" type="curve"/>
      <point x="100" y="281"/>
      <point x="91" y="280"/>
      <point x="82" y="280" type="curve"/>
      <point x="77" y="280"/>
      <point x="76" y="281"/>
    </contour>
  </outline>
</glyph>
<glyph name="underscore" format="2">
  <advance width="670"/>
  <unicode hex="005F"/>
  <outline>
    <contour>
      <point x="4" y="-112" type="curve"/>
      <point x="666" y="-112" type="line"/>
      <point x="671" y="-112"/>
      <point x="672" y="-111"/>
      <point x="672" y="-106" type="curve"/>
      <point x="672" y="-89" type="line"/>
      <point x="672" y="-84"/>
      <point x="671" y="-83"/>
      <point x="666" y="-83" type="curve"/>
      <point x="4" y="-83" type="line"/>
      <point x="-1" y="-83"/>
      <point x="-2" y="-84"/>
      <point x="-2" y="-89" type="curve"/>
      <point x="-2" y="-106" type="line"/>
      <point x="-2" y="-111"/>
      <point x="-1" y="-112"/>
    </contour>
  </outline>
</glyph>
<glyph name="a" format="2">
  <advance width="548"/>
  <unicode hex="0061"/>
  <anchor x="257" y="0" name="bottom"/>
  <anchor x="416" y="0" name="ogonek"/>
  <anchor x="257" y="486" name="top"/>
  <outline>
    <contour>
      <point x="193" y="-6" type="curve" smooth="yes"/>
      <point x="293" y="-6"/>
      <point x="388" y="66"/>
      <point x="398" y="106" type="curve"/>
      <point x="390" y="120" type="line"/>
      <point x="368" y="88"/>
      <point x="291" y="27"/>
      <point x="194" y="27" type="curve" smooth="yes"/>
      <point x="133" y="27"/>
      <point x="96" y="60"/>
      <point x="96" y="114" type="curve" smooth="yes"/>
      <point x="96" y="178"/>
      <point x="134" y="206"/>
      <point x="239" y="218" type="curve" smooth="yes"/>
      <point x="396" y="235" type="line"/>
      <point x="397" y="264" type="line"/>
      <point x="234" y="247" type="line" smooth="yes"/>
      <point x="112" y="235"/>
      <point x="58" y="194"/>
      <point x="58" y="113" type="curve" smooth="yes"/>
      <point x="58" y="41"/>
      <point x="111" y="-6"/>
    </contour>
    <contour>
      <point x="389" y="333" type="curve" smooth="yes"/>
      <point x="389" y="162" type="line"/>
      <point x="425" y="162" type="line"/>
      <point x="425" y="336" type="line" smooth="yes"/>
      <point x="425" y="435"/>
      <point x="364" y="492"/>
      <point x="258" y="492" type="curve" smooth="yes"/>
      <point x="188" y="492"/>
      <point x="130" y="464"/>
      <point x="101" y="446" type="curve"/>
      <point x="97" y="444"/>
      <point x="96" y="442"/>
      <point x="97" y="437" type="curve"/>
      <point x="102" y="405"/>
      <point x="108" y="374"/>
      <point x="113" y="342" type="curve"/>
      <point x="114" y="337"/>
      <point x="115" y="336"/>
      <point x="120" y="336" type="curve"/>
      <point x="128" y="336" type="line"/>
      <point x="133" y="336"/>
      <point x="134" y="337"/>
      <point x="135" y="342" type="curve"/>
      <point x="141" y="390" type="line" smooth="yes"/>
      <point x="149" y="449"/>
      <point x="203" y="463"/>
      <point x="258" y="463" type="curve" smooth="yes"/>
      <point x="344" y="463"/>
      <point x="389" y="419"/>
    </contour>
    <contour>
      <point x="425" y="162" type="line"/>
      <point x="389" y="162" type="line"/>
      <point x="389" y="100" type="line"/>
      <point x="389" y="95" type="line"/>
      <point x="389" y="18" type="line" smooth="yes"/>
      <point x="389" y="-1"/>
      <point x="392" y="-6"/>
      <point x="459" y="0" type="curve" smooth="yes"/>
      <point x="514" y="5" type="line"/>
      <point x="519" y="5"/>
      <point x="520" y="6"/>
      <point x="520" y="11" type="curve"/>
      <point x="520" y="18" type="line"/>
      <point x="520" y="23"/>
      <point x="519" y="24"/>
      <point x="514" y="25" type="curve"/>
      <point x="405" y="40" type="line"/>
      <point x="425" y="14" type="line"/>
    </contour>
  </outline>
</glyph>
<glyph name="b" format="2">
  <advance width="596"/>
  <unicode hex="0062"/>
  <outline>
    <contour>
      <point x="111" y="576" type="line"/>
      <point x="111" y="-2" type="line"/>
      <point x="111" y="-7"/>
      <point x="112" y="-8"/>
      <point x="117" y="-8" type="curve"/>
      <point x="124" y="-8" type="line"/>
      <point x="129" y="-8"/>
      <point x="130" y="-7"/>
      <point x="131" y="-2" type="curve"/>
      <point x="147" y="83" type="line"/>
      <point x="147" y="576" type="line"/>
    </contour>
    <contour>
      <point x="137" y="107" type="curve"/>
      <point x="124" y="86" type="line"/>
      <point x="169" y="28"/>
      <point x="237" y="-6"/>
      <point x="305" y="-6" type="curve" smooth="yes"/>
      <point x="443" y="-6"/>
      <point x="528" y="93"/>
      <point x="528" y="253" type="curve" smooth="yes"/>
      <point x="528" y="402"/>
      <point x="455" y="492"/>
      <point x="334" y="492" type="curve" smooth="yes"/>
      <point x="263" y="492"/>
      <point x="183" y="444"/>
      <point x="133" y="370" type="curve"/>
      <point x="141" y="349" type="line"/>
      <point x="197" y="419"/>
      <point x="267" y="459"/>
      <point x="334" y="459" type="curve" smooth="yes"/>
      <point x="433" y="459"/>
      <point x="492" y="382"/>
      <point x="492" y="253" type="curve" smooth="yes"/>
      <point x="492" y="110"/>
      <point x="423" y="27"/>
      <point x="304" y="27" type="curve" smooth="yes"/>
      <point x="238" y="27"/>
      <point x="181" y="55"/>
    </contour>
    <contour>
      <point x="111" y="576" type="line"/>
      <point x="147" y="576" type="line"/>
      <point x="147" y="729" type="line"/>
      <point x="147" y="740"/>
      <point x="144" y="743"/>
      <point x="127" y="740" type="curve"/>
      <point x="22" y="725" type="line"/>
      <point x="17" y="724"/>
      <point x="16" y="723"/>
      <point x="16" y="718" type="curve"/>
      <point x="16" y="711" type="line"/>
      <point x="16" y="706"/>
      <point x="17" y="705"/>
      <point x="22" y="704" type="curve"/>
      <point x="130" y="695" type="line"/>
      <point x="111" y="720" type="line"/>
    </contour>
  </outline>
</glyph>
<glyph name="c" format="2">
  <advance width="519"/>
  <unicode hex="0063"/>
  <anchor x="284" y="0" name="bottom"/>
  <anchor x="284" y="486" name="top"/>
  <outline>
    <contour>
      <point x="283" y="-6" type="curve" smooth="yes"/>
      <point x="352" y="-6"/>
      <point x="414" y="16"/>
      <point x="451" y="55" type="curve"/>
      <point x="454" y="58"/>
      <point x="454" y="60"/>
      <point x="451" y="64" type="curve"/>
      <point x="445" y="71" type="line"/>
      <point x="442" y="75"/>
      <point x="440" y="75"/>
      <point x="436" y="72" type="curve"/>
      <point x="404" y="47"/>
      <point x="359" y="27"/>
      <point x="283" y="27" type="curve" smooth="yes"/>
      <point x="180" y="27"/>
      <point x="104" y="119"/>
      <point x="104" y="245" type="curve" smooth="yes"/>
      <point x="104" y="380"/>
      <point x="172" y="459"/>
      <point x="289" y="459" type="curve" smooth="yes"/>
      <point x="338" y="459"/>
      <point x="399" y="442"/>
      <point x="428" y="420" type="curve"/>
      <point x="398" y="448" type="line"/>
      <point x="409" y="323" type="line"/>
      <point x="410" y="318"/>
      <point x="411" y="317"/>
      <point x="416" y="317" type="curve"/>
      <point x="431" y="317" type="line"/>
      <point x="436" y="317"/>
      <point x="437" y="318"/>
      <point x="437" y="323" type="curve"/>
      <point x="445" y="449" type="line"/>
      <point x="445" y="454"/>
      <point x="444" y="455"/>
      <point x="440" y="458" type="curve"/>
      <point x="409" y="472"/>
      <point x="354" y="492"/>
      <point x="289" y="492" type="curve" smooth="yes"/>
      <point x="156" y="492"/>
      <point x="67" y="392"/>
      <point x="67" y="243" type="curve" smooth="yes"/>
      <point x="67" y="94"/>
      <point x="153" y="-6"/>
    </contour>
  </outline>
</glyph>
<glyph name="d" format="2">
  <advance width="616"/>
  <unicode hex="0064"/>
  <anchor x="308" y="0" name="bottom"/>
  <anchor x="418" y="592" name="center"/>
  <anchor x="308" y="733" name="top"/>
  <anchor x="581" y="486" name="topright"/>
  <outline>
    <contour>
      <point x="448" y="162" type="line"/>
      <point x="484" y="162" type="line"/>
      <point x="484" y="602" type="line"/>
      <point x="448" y="602" type="line"/>
    </contour>
    <contour>
      <point x="458" y="379" type="curve"/>
      <point x="471" y="400" type="line"/>
      <point x="426" y="458"/>
      <point x="358" y="492"/>
      <point x="290" y="492" type="curve" smooth="yes"/>
      <point x="152" y="492"/>
      <point x="67" y="393"/>
      <point x="67" y="233" type="curve" smooth="yes"/>
      <point x="67" y="84"/>
      <point x="140" y="-6"/>
      <point x="261" y="-6" type="curve" smooth="yes"/>
      <point x="332" y="-6"/>
      <point x="412" y="42"/>
      <point x="462" y="116" type="curve"/>
      <point x="454" y="137" type="line"/>
      <point x="398" y="67"/>
      <point x="328" y="27"/>
      <point x="261" y="27" type="curve" smooth="yes"/>
      <point x="162" y="27"/>
      <point x="103" y="104"/>
      <point x="103" y="233" type="curve" smooth="yes"/>
      <point x="103" y="376"/>
      <point x="172" y="459"/>
      <point x="291" y="459" type="curve" smooth="yes"/>
      <point x="357" y="459"/>
      <point x="414" y="431"/>
    </contour>
    <contour>
      <point x="448" y="576" type="line"/>
      <point x="484" y="576" type="line"/>
      <point x="484" y="729" type="line"/>
      <point x="484" y="740"/>
      <point x="481" y="743"/>
      <point x="464" y="740" type="curve"/>
      <point x="359" y="725" type="line"/>
      <point x="354" y="724"/>
      <point x="353" y="723"/>
      <point x="353" y="718" type="curve"/>
      <point x="353" y="711" type="line"/>
      <point x="353" y="706"/>
      <point x="354" y="705"/>
      <point x="359" y="704" type="curve"/>
      <point x="467" y="695" type="line"/>
      <point x="448" y="720" type="line"/>
    </contour>
    <contour>
      <point x="484" y="162" type="line"/>
      <point x="448" y="162" type="line"/>
      <point x="448" y="125" type="line"/>
      <point x="448" y="116" type="line"/>
      <point x="448" y="5" type="line" smooth="yes"/>
      <point x="448" y="-4"/>
      <point x="452" y="-6"/>
      <point x="457" y="-6" type="curve" smooth="yes"/>
      <point x="574" y="4" type="line"/>
      <point x="579" y="5"/>
      <point x="580" y="6"/>
      <point x="580" y="11" type="curve"/>
      <point x="580" y="18" type="line"/>
      <point x="580" y="23"/>
      <point x="579" y="24"/>
      <point x="574" y="25" type="curve"/>
      <point x="465" y="40" type="line"/>
      <point x="484" y="14" type="line"/>
    </contour>
  </outline>
</glyph>
<glyph name="e" format="2">
  <advance width="535"/>
  <unicode hex="0065"/>
  <anchor x="287" y="0" name="bottom"/>
  <anchor x="401" y="0" name="ogonek"/>
  <anchor x="285" y="486" name="top"/>
  <outline>
    <contour>
      <point x="288" y="-6" type="curve" smooth="yes"/>
      <point x="351" y="-6"/>
      <point x="408" y="16"/>
      <point x="443" y="55" type="curve"/>
      <point x="446" y="58"/>
      <point x="446" y="60"/>
      <point x="444" y="64" type="curve"/>
      <point x="439" y="71" type="line"/>
      <point x="437" y="75"/>
      <point x="435" y="75"/>
      <point x="431" y="72" type="curve"/>
      <point x="393" y="41"/>
      <point x="348" y="27"/>
      <point x="289" y="27" type="curve" smooth="yes"/>
      <point x="182" y="27"/>
      <point x="104" y="119"/>
      <point x="104" y="245" type="curve" smooth="yes"/>
      <point x="104" y="380"/>
      <point x="172" y="459"/>
      <point x="287" y="459" type="curve" smooth="yes"/>
      <point x="377" y="459"/>
      <point x="445" y="384"/>
      <point x="445" y="284" type="curve" smooth="yes"/>
      <point x="445" y="280"/>
      <point x="444" y="276"/>
      <point x="443" y="273" type="curve"/>
      <point x="458" y="292" type="line"/>
      <point x="89" y="292" type="line"/>
      <point x="89" y="264" type="line"/>
      <point x="474" y="264" type="line"/>
      <point x="479" y="264"/>
      <point x="480" y="265"/>
      <point x="481" y="270" type="curve"/>
      <point x="481" y="273"/>
      <point x="481" y="276"/>
      <point x="481" y="280" type="curve" smooth="yes"/>
      <point x="481" y="403"/>
      <point x="399" y="492"/>
      <point x="287" y="492" type="curve" smooth="yes"/>
      <point x="154" y="492"/>
      <point x="67" y="393"/>
      <point x="67" y="243" type="curve" smooth="yes"/>
      <point x="67" y="93"/>
      <point x="155" y="-6"/>
    </contour>
  </outline>
</glyph>
<glyph name="f" format="2">
  <advance width="385"/>
  <unicode hex="0066"/>
  <outline>
    <contour>
      <point x="149" y="514" type="curve" smooth="yes"/>
      <point x="149" y="0" type="line"/>
      <point x="185" y="0" type="line"/>
      <point x="185" y="486" type="line"/>
      <point x="185" y="497"/>
      <point x="185" y="507"/>
      <point x="185" y="516" type="curve" smooth="yes"/>
      <point x="185" y="629"/>
      <point x="245" y="702"/>
      <point x="339" y="702" type="curve" smooth="yes"/>
      <point x="372" y="702"/>
      <point x="402" y="694"/>
      <point x="423" y="684" type="curve"/>
      <point x="427" y="682"/>
      <point x="429" y="683"/>
      <point x="431" y="687" type="curve"/>
      <point x="435" y="693"/>
      <point x="437" y="700"/>
      <point x="437" y="707" type="curve" smooth="yes"/>
      <point x="437" y="727"/>
      <point x="405" y="739"/>
      <point x="350" y="739" type="curve" smooth="yes"/>
      <point x="230" y="739"/>
      <point x="149" y="649"/>
    </contour>
    <contour>
      <point x="70" y="455" type="curve"/>
      <point x="361" y="455" type="line"/>
      <point x="366" y="455"/>
      <point x="367" y="456"/>
      <point x="368" y="461" type="curve"/>
      <point x="369" y="468"/>
      <point x="369" y="475"/>
      <point x="369" y="482" type="curve"/>
      <point x="369" y="487"/>
      <point x="368" y="488"/>
      <point x="363" y="488" type="curve"/>
      <point x="322" y="486" type="line"/>
      <point x="149" y="486" type="line"/>
      <point x="75" y="478" type="line"/>
      <point x="70" y="477"/>
      <point x="69" y="476"/>
      <point x="68" y="471" type="curve"/>
      <point x="65" y="461" type="line"/>
      <point x="64" y="456"/>
      <point x="65" y="455"/>
    </contour>
    <contour>
      <point x="67" y="0" type="curve"/>
      <point x="291" y="0" type="line"/>
      <point x="296" y="0"/>
      <point x="297" y="1"/>
      <point x="297" y="6" type="curve"/>
      <point x="297" y="14" type="line"/>
      <point x="297" y="19"/>
      <point x="296" y="20"/>
      <point x="291" y="21" type="curve"/>
      <point x="202" y="28" type="line"/>
      <point x="189" y="30"/>
      <point x="185" y="32"/>
      <point x="185" y="43" type="curve"/>
      <point x="185" y="180" type="line"/>
      <point x="149" y="180" type="line"/>
      <point x="149" y="47" type="line"/>
      <point x="149" y="34"/>
      <point x="147" y="30"/>
      <point x="136" y="29" type="curve"/>
      <point x="67" y="21" type="line"/>
      <point x="62" y="20"/>
      <point x="61" y="19"/>
      <point x="61" y="14" type="curve"/>
      <point x="61" y="6" type="line"/>
      <point x="61" y="1"/>
      <point x="62" y="0"/>
    </contour>
  </outline>
</glyph>
<glyph name="g" format="2">
  <advance width="545"/>
  <unicode hex="0067"/>
  <anchor x="270" y="-205" name="bottom"/>
  <anchor x="291" y="486" name="top"/>
  <outline>
    <contour>
      <point x="259" y="-227" type="curve" smooth="yes"/>
      <point x="407" y="-227"/>
      <point x="494" y="-169"/>
      <point x="494" y="-70" type="curve" smooth="yes"/>
      <point x="494" y="0"/>
      <point x="445" y="40"/>
      <point x="361" y="40" type="curve" smooth="yes"/>
      <point x="233" y="40" type="line" smooth="yes"/>
      <point x="172" y="40"/>
      <point x="141" y="58"/>
      <point x="141" y="94" type="curve" smooth="yes"/>
      <point x="141" y="124"/>
      <point x="159" y="148"/>
      <point x="204" y="180" type="curve"/>
      <point x="187" y="187" type="line"/>
      <point x="122" y="147"/>
      <point x="104" y="127"/>
      <point x="104" y="93" type="curve" smooth="yes"/>
      <point x="104" y="34"/>
      <point x="144" y="7"/>
      <point x="233" y="7" type="curve" smooth="yes"/>
      <point x="361" y="7" type="line" smooth="yes"/>
      <point x="420" y="7"/>
      <point x="457" y="-23"/>
      <point x="457" y="-70" type="curve" smooth="yes"/>
      <point x="457" y="-153"/>
      <point x="391" y="-194"/>
      <point x="259" y="-194" type="curve" smooth="yes"/>
      <point x="149" y="-194"/>
      <point x="87" y="-157"/>
      <point x="87" y="-90" type="curve" smooth="yes"/>
      <point x="87" y="-45"/>
      <point x="120" y="-10"/>
      <point x="188" y="16" type="curve"/>
      <point x="162" y="22" type="line"/>
      <point x="116" y="8"/>
      <point x="51" y="-33"/>
      <point x="51" y="-93" type="curve" smooth="yes"/>
      <point x="51" y="-179"/>
      <point x="125" y="-227"/>
    </contour>
    <contour>
      <point x="260" y="192" type="curve" smooth="yes"/>
      <point x="172" y="192"/>
      <point x="115" y="246"/>
      <point x="115" y="328" type="curve" smooth="yes"/>
      <point x="115" y="408"/>
      <point x="172" y="461"/>
      <point x="259" y="461" type="curve" smooth="yes"/>
      <point x="355" y="461"/>
      <point x="415" y="410"/>
      <point x="415" y="328" type="curve" smooth="yes"/>
      <point x="415" y="241"/>
      <point x="359" y="192"/>
    </contour>
    <contour>
      <point x="341" y="477" type="curve"/>
      <point x="339" y="460" type="line"/>
      <point x="520" y="460" type="line"/>
      <point x="525" y="460"/>
      <point x="526" y="461"/>
      <point x="525" y="466" type="curve"/>
      <point x="521" y="480"/>
      <point x="513" y="492"/>
      <point x="506" y="503" type="curve"/>
      <point x="503" y="507"/>
      <point x="501" y="508"/>
      <point x="496" y="506" type="curve"/>
      <point x="394" y="478" type="line"/>
      <point x="427" y="483" type="line"/>
      <point x="352" y="488"/>
      <point x="302" y="492"/>
      <point x="264" y="492" type="curve" smooth="yes"/>
      <point x="152" y="492"/>
      <point x="80" y="428"/>
      <point x="80" y="328" type="curve" smooth="yes"/>
      <point x="80" y="228"/>
      <point x="152" y="161"/>
      <point x="260" y="161" type="curve" smooth="yes"/>
      <point x="376" y="161"/>
      <point x="450" y="226"/>
      <point x="450" y="328" type="curve" smooth="yes"/>
      <point x="450" y="403"/>
      <point x="409" y="459"/>
    </contour>
  </outline>
</glyph>
<glyph name="h" format="2">
  <advance width="647"/>
  <unicode hex="0068"/>
  <anchor x="320" y="0" name="bottom"/>
  <anchor x="183" y="592" name="center"/>
  <anchor x="139" y="733" name="top"/>
  <outline>
    <contour>
      <point x="121" y="0" type="line"/>
      <point x="157" y="0" type="line"/>
      <point x="157" y="576" type="line"/>
      <point x="121" y="576" type="line"/>
    </contour>
    <contour>
      <point x="483" y="339" type="curve" smooth="yes"/>
      <point x="483" y="0" type="line"/>
      <point x="519" y="0" type="line"/>
      <point x="519" y="339" type="line" smooth="yes"/>
      <point x="519" y="438"/>
      <point x="469" y="492"/>
      <point x="377" y="492" type="curve" smooth="yes"/>
      <point x="300" y="492"/>
      <point x="203" y="439"/>
      <point x="145" y="365" type="curve"/>
      <point x="148" y="340" type="line"/>
      <point x="218" y="417"/>
      <point x="298" y="459"/>
      <point x="372" y="459" type="curve" smooth="yes"/>
      <point x="446" y="459"/>
      <point x="483" y="419"/>
    </contour>
    <contour>
      <point x="39" y="0" type="curve"/>
      <point x="263" y="0" type="line"/>
      <point x="268" y="0"/>
      <point x="269" y="1"/>
      <point x="269" y="6" type="curve"/>
      <point x="269" y="14" type="line"/>
      <point x="269" y="19"/>
      <point x="268" y="20"/>
      <point x="263" y="21" type="curve"/>
      <point x="174" y="28" type="line"/>
      <point x="161" y="30"/>
      <point x="157" y="32"/>
      <point x="157" y="43" type="curve"/>
      <point x="157" y="180" type="line"/>
      <point x="121" y="180" type="line"/>
      <point x="121" y="47" type="line"/>
      <point x="121" y="34"/>
      <point x="119" y="30"/>
      <point x="108" y="29" type="curve"/>
      <point x="39" y="21" type="line"/>
      <point x="34" y="20"/>
      <point x="33" y="19"/>
      <point x="33" y="14" type="curve"/>
      <point x="33" y="6" type="line"/>
      <point x="33" y="1"/>
      <point x="34" y="0"/>
    </contour>
    <contour>
      <point x="121" y="576" type="line"/>
      <point x="157" y="576" type="line"/>
      <point x="157" y="729" type="line"/>
      <point x="157" y="740"/>
      <point x="154" y="743"/>
      <point x="137" y="740" type="curve"/>
      <point x="32" y="725" type="line"/>
      <point x="27" y="724"/>
      <point x="26" y="723"/>
      <point x="26" y="718" type="curve"/>
      <point x="26" y="711" type="line"/>
      <point x="26" y="706"/>
      <point x="27" y="705"/>
      <point x="32" y="704" type="curve"/>
      <point x="140" y="695" type="line"/>
      <point x="121" y="720" type="line"/>
    </contour>
    <contour>
      <point x="401" y="0" type="curve"/>
      <point x="625" y="0" type="line"/>
      <point x="630" y="0"/>
      <point x="631" y="1"/>
      <point x="631" y="6" type="curve"/>
      <point x="631" y="14" type="line"/>
      <point x="631" y="19"/>
      <point x="630" y="20"/>
      <point x="625" y="21" type="curve"/>
      <point x="536" y="28" type="line"/>
      <point x="523" y="30"/>
      <point x="519" y="32"/>
      <point x="519" y="43" type="curve"/>
      <point x="519" y="180" type="line"/>
      <point x="483" y="180" type="line"/>
      <point x="483" y="47" type="line"/>
      <point x="483" y="34"/>
      <point x="481" y="30"/>
      <point x="470" y="29" type="curve"/>
      <point x="401" y="21" type="line"/>
      <point x="396" y="20"/>
      <point x="395" y="19"/>
      <point x="395" y="14" type="curve"/>
      <point x="395" y="6" type="line"/>
      <point x="395" y="1"/>
      <point x="396" y="0"/>
    </contour>
  </outline>
</glyph>
<glyph name="k" format="2">
  <advance width="547"/>
  <unicode hex="006B"/>
  <anchor x="273" y="0" name="bottom"/>
  <anchor x="273" y="733" name="top"/>
  <outline>
    <contour>
      <point x="121" y="0" type="line"/>
      <point x="157" y="0" type="line"/>
      <point x="157" y="576" type="line"/>
      <point x="121" y="576" type="line"/>
    </contour>
    <contour>
      <point x="39" y="0" type="curve"/>
      <point x="263" y="0" type="line"/>
      <point x="268" y="0"/>
      <point x="269" y="1"/>
      <point x="269" y="6" type="curve"/>
      <point x="269" y="14" type="line"/>
      <point x="269" y="19"/>
      <point x="268" y="20"/>
      <point x="263" y="21" type="curve"/>
      <point x="174" y="28" type="line"/>
      <point x="161" y="30"/>
      <point x="157" y="32"/>
      <point x="157" y="43" type="curve"/>
      <point x="157" y="180" type="line"/>
      <point x="121" y="180" type="line"/>
      <point x="121" y="47" type="line"/>
      <point x="121" y="34"/>
      <point x="119" y="30"/>
      <point x="108" y="29" type="curve"/>
      <point x="39" y="21" type="line"/>
      <point x="34" y="20"/>
      <point x="33" y="19"/>
      <point x="33" y="14" type="curve"/>
      <point x="33" y="6" type="line"/>
      <point x="33" y="1"/>
      <point x="34" y="0"/>
    </contour>
    <contour>
      <point x="121" y="576" type="line"/>
      <point x="157" y="576" type="line"/>
      <point x="157" y="729" type="line"/>
      <point x="157" y="740"/>
      <point x="154" y="743"/>
      <point x="137" y="740" type="curve"/>
      <point x="32" y="725" type="line"/>
      <point x="27" y="724"/>
      <point x="26" y="723"/>
      <point x="26" y="718" type="curve"/>
      <point x="26" y="711" type="line"/>
      <point x="26" y="706"/>
      <point x="27" y="705"/>
      <point x="32" y="704" type="curve"/>
      <point x="140" y="695" type="line"/>
      <point x="121" y="720" type="line"/>
    </contour>
    <contour>
      <point x="447" y="0" type="curve"/>
      <point x="533" y="0" type="line"/>
      <point x="538" y="0"/>
      <point x="539" y="1"/>
      <point x="539" y="6" type="curve"/>
      <point x="539" y="14" type="line"/>
      <point x="539" y="19"/>
      <point x="538" y="20"/>
      <point x="533" y="21" type="curve"/>
      <point x="478" y="30" type="line"/>
      <point x="468" y="32"/>
      <point x="458" y="36"/>
      <point x="453" y="43" type="curve"/>
      <point x="231" y="300" type="line"/>
      <point x="206" y="278" type="line"/>
      <point x="437" y="5" type="line"/>
      <point x="440" y="1"/>
      <point x="442" y="0"/>
    </contour>
    <contour>
      <point x="146" y="217" type="line"/>
      <point x="399" y="444" type="line"/>
      <point x="407" y="450"/>
      <point x="416" y="455"/>
      <point x="425" y="456" type="curve"/>
      <point x="499" y="464" type="line"/>
      <point x="504" y="465"/>
      <point x="505" y="466"/>
      <point x="505" y="471" type="curve"/>
      <point x="505" y="480" type="line"/>
      <point x="505" y="485"/>
      <point x="504" y="486"/>
      <point x="499" y="486" type="curve"/>
      <point x="293" y="486" type="line"/>
      <point x="288" y="486"/>
      <point x="287" y="485"/>
      <point x="287" y="480" type="curve"/>
      <point x="287" y="471" type="line"/>
      <point x="287" y="466"/>
      <point x="288" y="465"/>
      <point x="293" y="465" type="curve"/>
      <point x="330" y="461" type="line"/>
      <point x="359" y="459"/>
      <point x="366" y="453"/>
      <point x="344" y="433" type="curve"/>
      <point x="140" y="246" type="line"/>
    </contour>
  </outline>
</glyph>
<glyph name="l" format="2">
  <advance width="278"/>
  <unicode hex="006C"/>
  <anchor x="140" y="0" name="bottom"/>
  <anchor x="140" y="396" name="center"/>
  <anchor x="140" y="733" name="top"/>
  <anchor x="254" y="486" name="topright"/>
  <outline>
    <contour>
      <point x="121" y="0" type="line"/>
      <point x="157" y="0" type="line"/>
      <point x="157" y="576" type="line"/>
      <point x="121" y="576" type="line"/>
    </contour>
    <contour>
      <point x="39" y="0" type="curve"/>
      <point x="263" y="0" type="line"/>
      <point x="268" y="0"/>
      <point x="269" y="1"/>
      <point x="269" y="6" type="curve"/>
      <point x="269" y="14" type="line"/>
      <point x="269" y="19"/>
      <point x="268" y="20"/>
      <point x="263" y="21" type="curve"/>
      <point x="174" y="28" type="line"/>
      <point x="161" y="30"/>
      <point x="157" y="32"/>
      <point x="157" y="43" type="curve"/>
      <point x="157" y="180" type="line"/>
      <point x="121" y="180" type="line"/>
      <point x="121" y="47" type="line"/>
      <point x="121" y="34"/>
      <point x="119" y="30"/>
      <point x="108" y="29" type="curve"/>
      <point x="39" y="21" type="line"/>
      <point x="34" y="20"/>
      <point x="33" y="19"/>
      <point x="33" y="14" type="curve"/>
      <point x="33" y="6" type="line"/>
      <point x="33" y="1"/>
      <point x="34" y="0"/>
    </contour>
    <contour>
      <point x="121" y="576" type="line"/>
      <point x="157" y="576" type="line"/>
      <point x="157" y="729" type="line"/>
      <point x="157" y="740"/>
      <point x="154" y="743"/>
      <point x="137" y="740" type="curve"/>
      <point x="32" y="725" type="line"/>
      <point x="27" y="724"/>
      <point x="26" y="723"/>
      <point x="26" y="718" type="curve"/>
      <point x="26" y="711" type="line"/>
      <point x="26" y="706"/>
      <point x="27" y="705"/>
      <point x="32" y="704" type="curve"/>
      <point x="140" y="695" type="line"/>
      <point x="121" y="720" type="line"/>
    </contour>
  </outline>
</glyph>
<glyph name="m" format="2">
  <advance width="987"/>
  <unicode hex="006D"/>
  <anchor x="494" y="0" name="bottom"/>
  <anchor x="494" y="486" name="top"/>
  <outline>
    <contour>
      <point x="729" y="0" type="curve"/>
      <point x="965" y="0" type="line"/>
      <point x="970" y="0"/>
      <point x="971" y="1"/>
      <point x="971" y="6" type="curve"/>
      <point x="971" y="14" type="line"/>
      <point x="971" y="19"/>
      <point x="970" y="20"/>
      <point x="965" y="21" type="curve"/>
      <point x="876" y="28" type="line"/>
      <point x="863" y="30"/>
      <point x="859" y="32"/>
      <point x="859" y="43" type="curve"/>
      <point x="859" y="339" type="line" smooth="yes"/>
      <point x="859" y="438"/>
      <point x="813" y="492"/>
      <point x="729" y="492" type="curve" smooth="yes"/>
      <point x="652" y="492"/>
      <point x="562" y="439"/>
      <point x="507" y="365" type="curve"/>
      <point x="511" y="340" type="line"/>
      <point x="582" y="420"/>
      <point x="652" y="459"/>
      <point x="725" y="459" type="curve" smooth="yes"/>
      <point x="791" y="459"/>
      <point x="823" y="420"/>
      <point x="823" y="339" type="curve" smooth="yes"/>
      <point x="823" y="47" type="line"/>
      <point x="823" y="34"/>
      <point x="821" y="30"/>
      <point x="810" y="29" type="curve"/>
      <point x="729" y="21" type="line"/>
      <point x="724" y="20"/>
      <point x="723" y="19"/>
      <point x="723" y="14" type="curve"/>
      <point x="723" y="6" type="line"/>
      <point x="723" y="1"/>
      <point x="724" y="0"/>
    </contour>
    <contour>
      <point x="59" y="0" type="curve"/>
      <point x="271" y="0" type="line"/>
      <point x="276" y="0"/>
      <point x="277" y="1"/>
      <point x="277" y="6" type="curve"/>
      <point x="277" y="14" type="line"/>
      <point x="277" y="19"/>
      <point x="276" y="20"/>
      <point x="271" y="21" type="curve"/>
      <point x="194" y="28" type="line"/>
      <point x="181" y="30"/>
      <point x="177" y="32"/>
      <point x="177" y="43" type="curve"/>
      <point x="177" y="327" type="line"/>
      <point x="141" y="327" type="line"/>
      <point x="141" y="47" type="line"/>
      <point x="141" y="34"/>
      <point x="139" y="30"/>
      <point x="128" y="29" type="curve"/>
      <point x="59" y="21" type="line"/>
      <point x="54" y="20"/>
      <point x="53" y="19"/>
      <point x="53" y="14" type="curve"/>
      <point x="53" y="6" type="line"/>
      <point x="53" y="1"/>
      <point x="54" y="0"/>
    </contour>
    <contour>
      <point x="383" y="0" type="curve"/>
      <point x="607" y="0" type="line"/>
      <point x="612" y="0"/>
      <point x="613" y="1"/>
      <point x="613" y="6" type="curve"/>
      <point x="613" y="14" type="line"/>
      <point x="613" y="19"/>
      <point x="612" y="20"/>
      <point x="607" y="21" type="curve"/>
      <point x="530" y="28" type="line"/>
      <point x="517" y="30"/>
      <point x="513" y="32"/>
      <point x="513" y="43" type="curve"/>
      <point x="513" y="339" type="line" smooth="yes"/>
      <point x="513" y="438"/>
      <point x="467" y="492"/>
      <point x="383" y="492" type="curve" smooth="yes"/>
      <point x="307" y="492"/>
      <point x="221" y="442"/>
      <point x="161" y="365" type="curve"/>
      <point x="165" y="340" type="line"/>
      <point x="236" y="420"/>
      <point x="306" y="459"/>
      <point x="378" y="459" type="curve" smooth="yes"/>
      <point x="444" y="459"/>
      <point x="477" y="419"/>
      <point x="477" y="339" type="curve" smooth="yes"/>
      <point x="477" y="47" type="line"/>
      <point x="477" y="34"/>
      <point x="475" y="30"/>
      <point x="464" y="29" type="curve"/>
      <point x="383" y="21" type="line"/>
      <point x="378" y="20"/>
      <point x="377" y="19"/>
      <point x="377" y="14" type="curve"/>
      <point x="377" y="6" type="line"/>
      <point x="377" y="1"/>
      <point x="378" y="0"/>
    </contour>
    <contour>
      <point x="141" y="327" type="line"/>
      <point x="177" y="327" type="line"/>
      <point x="177" y="374" type="line"/>
      <point x="176" y="392" type="line"/>
      <point x="176" y="480" type="line"/>
      <point x="176" y="491"/>
      <point x="173" y="494"/>
      <point x="156" y="491" type="curve"/>
      <point x="52" y="476" type="line"/>
      <point x="47" y="475"/>
      <point x="46" y="474"/>
      <point x="46" y="469" type="curve"/>
      <point x="46" y="462" type="line"/>
      <point x="46" y="457"/>
      <point x="47" y="456"/>
      <point x="52" y="455" type="curve"/>
      <point x="160" y="446" type="line"/>
      <point x="141" y="471" type="line"/>
    </contour>
  </outline>
</glyph>
<glyph name="n" format="2">
  <advance width="669"/>
  <unicode hex="006E"/>
  <anchor x="346" y="0" name="bottom"/>
  <anchor x="346" y="486" name="top"/>
  <outline>
    <contour>
      <point x="505" y="339" type="curve" smooth="yes"/>
      <point x="505" y="0" type="line"/>
      <point x="541" y="0" type="line"/>
      <point x="541" y="339" type="line" smooth="yes"/>
      <point x="541" y="438"/>
      <point x="491" y="492"/>
      <point x="399" y="492" type="curve" smooth="yes"/>
      <point x="319" y="492"/>
      <point x="224" y="439"/>
      <point x="166" y="365" type="curve"/>
      <point x="170" y="340" type="line"/>
      <point x="241" y="417"/>
      <point x="319" y="459"/>
      <point x="394" y="459" type="curve" smooth="yes"/>
      <point x="468" y="459"/>
      <point x="505" y="419"/>
    </contour>
    <contour>
      <point x="141" y="0" type="line"/>
      <point x="177" y="0" type="line"/>
      <point x="177" y="327" type="line"/>
      <point x="141" y="327" type="line"/>
    </contour>
    <contour>
      <point x="59" y="0" type="curve"/>
      <point x="283" y="0" type="line"/>
      <point x="288" y="0"/>
      <point x="289" y="1"/>
      <point x="289" y="6" type="curve"/>
      <point x="289" y="14" type="line"/>
      <point x="289" y="19"/>
      <point x="288" y="20"/>
      <point x="283" y="21" type="curve"/>
      <point x="194" y="28" type="line"/>
      <point x="181" y="30"/>
      <point x="177" y="32"/>
      <point x="177" y="43" type="curve"/>
      <point x="177" y="180" type="line"/>
      <point x="141" y="180" type="line"/>
      <point x="141" y="47" type="line"/>
      <point x="141" y="34"/>
      <point x="139" y="30"/>
      <point x="128" y="29" type="curve"/>
      <point x="59" y="21" type="line"/>
      <point x="54" y="20"/>
      <point x="53" y="19"/>
      <point x="53" y="14" type="curve"/>
      <point x="53" y="6" type="line"/>
      <point x="53" y="1"/>
      <point x="54" y="0"/>
    </contour>
    <contour>
      <point x="423" y="0" type="curve"/>
      <point x="647" y="0" type="line"/>
      <point x="652" y="0"/>
      <point x="653" y="1"/>
      <point x="653" y="6" type="curve"/>
      <point x="653" y="14" type="line"/>
      <point x="653" y="19"/>
      <point x="652" y="20"/>
      <point x="647" y="21" type="curve"/>
      <point x="558" y="28" type="line"/>
      <point x="545" y="30"/>
      <point x="541" y="32"/>
      <point x="541" y="43" type="curve"/>
      <point x="541" y="180" type="line"/>
      <point x="505" y="180" type="line"/>
      <point x="505" y="47" type="line"/>
      <point x="505" y="34"/>
      <point x="503" y="30"/>
      <point x="492" y="29" type="curve"/>
      <point x="423" y="21" type="line"/>
      <point x="418" y="20"/>
      <point x="417" y="19"/>
      <point x="417" y="14" type="curve"/>
      <point x="417" y="6" type="line"/>
      <point x="417" y="1"/>
      <point x="418" y="0"/>
    </contour>
    <contour>
      <point x="141" y="327" type="line"/>
      <point x="177" y="327" type="line"/>
      <point x="177" y="374" type="line"/>
      <point x="176" y="392" type="line"/>
      <point x="176" y="480" type="line"/>
      <point x="176" y="491"/>
      <point x="173" y="494"/>
      <point x="156" y="491" type="curve"/>
      <point x="52" y="476" type="line"/>
      <point x="47" y="475"/>
      <point x="46" y="474"/>
      <point x="46" y="469" type="curve"/>
      <point x="46" y="462" type="line"/>
      <point x="46" y="457"/>
      <point x="47" y="456"/>
      <point x="52" y="455" type="curve"/>
      <point x="160" y="446" type="line"/>
      <point x="141" y="471" type="line"/>
    </contour>
  </outline>
</glyph>
<glyph name="o" format="2">
  <advance width="593"/>
  <unicode hex="006F"/>
  <anchor x="296" y="0" name="bottom"/>
  <anchor x="296" y="243" name="center"/>
  <anchor x="347" y="0" name="ogonek"/>
  <anchor x="296" y="486" name="top"/>
  <anchor x="569" y="486" name="topright"/>
  <outline>
    <contour>
      <point x="296" y="-6" type="curve" smooth="yes"/>
      <point x="439" y="-6"/>
      <point x="525" y="87"/>
      <point x="525" y="243" type="curve" smooth="yes"/>
      <point x="525" y="398"/>
      <point x="439" y="492"/>
      <point x="296" y="492" type="curve" smooth="yes"/>
      <point x="154" y="492"/>
      <point x="67" y="398"/>
      <point x="67" y="243" type="curve" smooth="yes"/>
      <point x="67" y="88"/>
      <point x="154" y="-6"/>
    </contour>
    <contour>
      <point x="296" y="27" type="curve" smooth="yes"/>
      <point x="174" y="27"/>
      <point x="104" y="105"/>
      <point x="104" y="243" type="curve" smooth="yes"/>
      <point x="104" y="379"/>
      <point x="176" y="459"/>
      <point x="296" y="459" type="curve" smooth="yes"/>
      <point x="416" y="459"/>
      <point x="488" y="378"/>
      <point x="488" y="243" type="curve" smooth="yes"/>
      <point x="488" y="107"/>
      <point x="417" y="27"/>
    </contour>
  </outline>
</glyph>
<glyph name="p" format="2">
  <advance width="608"/>
  <unicode hex="0070"/>
  <outline>
    <contour>
      <point x="123" y="-205" type="line"/>
      <point x="159" y="-205" type="line"/>
      <point x="159" y="327" type="line"/>
      <point x="123" y="327" type="line"/>
    </contour>
    <contour>
      <point x="41" y="-205" type="curve"/>
      <point x="265" y="-205" type="line"/>
      <point x="270" y="-205"/>
      <point x="271" y="-204"/>
      <point x="271" y="-199" type="curve"/>
      <point x="271" y="-191" type="line"/>
      <point x="271" y="-186"/>
      <point x="270" y="-185"/>
      <point x="265" y="-184" type="curve"/>
      <point x="176" y="-177" type="line"/>
      <point x="163" y="-175"/>
      <point x="159" y="-173"/>
      <point x="159" y="-162" type="curve"/>
      <point x="159" y="-25" type="line"/>
      <point x="123" y="-25" type="line"/>
      <point x="123" y="-158" type="line"/>
      <point x="123" y="-171"/>
      <point x="121" y="-175"/>
      <point x="110" y="-176" type="curve"/>
      <point x="41" y="-184" type="line"/>
      <point x="36" y="-185"/>
      <point x="35" y="-186"/>
      <point x="35" y="-191" type="curve"/>
      <point x="35" y="-199" type="line"/>
      <point x="35" y="-204"/>
      <point x="36" y="-205"/>
    </contour>
    <contour>
      <point x="149" y="107" type="curve"/>
      <point x="136" y="86" type="line"/>
      <point x="181" y="28"/>
      <point x="249" y="-6"/>
      <point x="317" y="-6" type="curve" smooth="yes"/>
      <point x="455" y="-6"/>
      <point x="540" y="93"/>
      <point x="540" y="253" type="curve" smooth="yes"/>
      <point x="540" y="402"/>
      <point x="467" y="492"/>
      <point x="346" y="492" type="curve" smooth="yes"/>
      <point x="275" y="492"/>
      <point x="195" y="444"/>
      <point x="145" y="370" type="curve"/>
      <point x="153" y="349" type="line"/>
      <point x="209" y="419"/>
      <point x="279" y="459"/>
      <point x="346" y="459" type="curve" smooth="yes"/>
      <point x="445" y="459"/>
      <point x="504" y="382"/>
      <point x="504" y="253" type="curve" smooth="yes"/>
      <point x="504" y="110"/>
      <point x="435" y="27"/>
      <point x="316" y="27" type="curve" smooth="yes"/>
      <point x="250" y="27"/>
      <point x="193" y="55"/>
    </contour>
    <contour>
      <point x="123" y="327" type="line"/>
      <point x="159" y="327" type="line"/>
      <point x="159" y="374" type="line"/>
      <point x="158" y="392" type="line"/>
      <point x="158" y="480" type="line"/>
      <point x="158" y="491"/>
      <point x="155" y="494"/>
      <point x="138" y="491" type="curve"/>
      <point x="34" y="476" type="line"/>
      <point x="29" y="475"/>
      <point x="28" y="474"/>
      <point x="28" y="469" type="curve"/>
      <point x="28" y="462" type="line"/>
      <point x="28" y="457"/>
      <point x="29" y="456"/>
      <point x="34" y="455" type="curve"/>
      <point x="142" y="446" type="line"/>
      <point x="123" y="471" type="line"/>
    </contour>
  </outline>
</glyph>
<glyph name="q" format="2">
  <advance width="599"/>
  <unicode hex="0071"/>
  <outline>
    <contour>
      <point x="483" y="-90" type="line"/>
      <point x="483" y="488" type="line"/>
      <point x="483" y="493"/>
      <point x="482" y="494"/>
      <point x="477" y="494" type="curve"/>
      <point x="470" y="494" type="line"/>
      <point x="465" y="494"/>
      <point x="464" y="493"/>
      <point x="463" y="488" type="curve"/>
      <point x="447" y="402" type="line"/>
      <point x="447" y="-90" type="line"/>
    </contour>
    <contour>
      <point x="458" y="379" type="curve"/>
      <point x="471" y="400" type="line"/>
      <point x="426" y="458"/>
      <point x="358" y="492"/>
      <point x="290" y="492" type="curve" smooth="yes"/>
      <point x="152" y="492"/>
      <point x="67" y="393"/>
      <point x="67" y="233" type="curve" smooth="yes"/>
      <point x="67" y="84"/>
      <point x="140" y="-6"/>
      <point x="261" y="-6" type="curve" smooth="yes"/>
      <point x="332" y="-6"/>
      <point x="412" y="42"/>
      <point x="462" y="116" type="curve"/>
      <point x="454" y="137" type="line"/>
      <point x="398" y="67"/>
      <point x="328" y="27"/>
      <point x="261" y="27" type="curve" smooth="yes"/>
      <point x="162" y="27"/>
      <point x="103" y="104"/>
      <point x="103" y="233" type="curve" smooth="yes"/>
      <point x="103" y="376"/>
      <point x="172" y="459"/>
      <point x="291" y="459" type="curve" smooth="yes"/>
      <point x="357" y="459"/>
      <point x="414" y="431"/>
    </contour>
    <contour>
      <point x="365" y="-205" type="curve"/>
      <point x="589" y="-205" type="line"/>
      <point x="594" y="-205"/>
      <point x="595" y="-204"/>
      <point x="595" y="-199" type="curve"/>
      <point x="595" y="-191" type="line"/>
      <point x="595" y="-186"/>
      <point x="594" y="-185"/>
      <point x="589" y="-184" type="curve"/>
      <point x="500" y="-177" type="line"/>
      <point x="487" y="-175"/>
      <point x="483" y="-173"/>
      <point x="483" y="-162" type="curve"/>
      <point x="483" y="-25" type="line"/>
      <point x="447" y="-25" type="line"/>
      <point x="447" y="-158" type="line"/>
      <point x="447" y="-171"/>
      <point x="445" y="-175"/>
      <point x="434" y="-176" type="curve"/>
      <point x="365" y="-184" type="line"/>
      <point x="360" y="-185"/>
      <point x="359" y="-186"/>
      <point x="359" y="-191" type="curve"/>
      <point x="359" y="-199" type="line"/>
      <point x="359" y="-204"/>
      <point x="360" y="-205"/>
    </contour>
  </outline>
</glyph>
<glyph name="r" format="2">
  <advance width="418"/>
  <unicode hex="0072"/>
  <anchor x="186" y="0" name="bottom"/>
  <anchor x="223" y="486" name="top"/>
  <outline>
    <contour>
      <point x="141" y="0" type="line"/>
      <point x="177" y="0" type="line"/>
      <point x="177" y="327" type="line"/>
      <point x="141" y="327" type="line"/>
    </contour>
    <contour>
      <point x="389" y="455" type="curve"/>
      <point x="389" y="483" type="line"/>
      <point x="389" y="489"/>
      <point x="381" y="492"/>
      <point x="364" y="492" type="curve" smooth="yes"/>
      <point x="281" y="492"/>
      <point x="183" y="402"/>
      <point x="163" y="351" type="curve"/>
      <point x="169" y="333" type="line"/>
      <point x="208" y="389"/>
      <point x="256" y="426"/>
      <point x="296" y="443" type="curve"/>
      <point x="305" y="447"/>
      <point x="316" y="449"/>
      <point x="325" y="449" type="curve"/>
      <point x="383" y="449" type="line"/>
      <point x="388" y="449"/>
      <point x="389" y="450"/>
    </contour>
    <contour>
      <point x="59" y="0" type="curve"/>
      <point x="283" y="0" type="line"/>
      <point x="288" y="0"/>
      <point x="289" y="1"/>
      <point x="289" y="6" type="curve"/>
      <point x="289" y="14" type="line"/>
      <point x="289" y="19"/>
      <point x="288" y="20"/>
      <point x="283" y="21" type="curve"/>
      <point x="194" y="28" type="line"/>
      <point x="181" y="30"/>
      <point x="177" y="32"/>
      <point x="177" y="43" type="curve"/>
      <point x="177" y="180" type="line"/>
      <point x="141" y="180" type="line"/>
      <point x="141" y="47" type="line"/>
      <point x="141" y="34"/>
      <point x="139" y="30"/>
      <point x="128" y="29" type="curve"/>
      <point x="59" y="21" type="line"/>
      <point x="54" y="20"/>
      <point x="53" y="19"/>
      <point x="53" y="14" type="curve"/>
      <point x="53" y="6" type="line"/>
      <point x="53" y="1"/>
      <point x="54" y="0"/>
    </contour>
    <contour>
      <point x="141" y="327" type="line"/>
      <point x="177" y="327" type="line"/>
      <point x="177" y="374" type="line"/>
      <point x="176" y="392" type="line"/>
      <point x="176" y="480" type="line"/>
      <point x="176" y="491"/>
      <point x="173" y="494"/>
      <point x="156" y="491" type="curve"/>
      <point x="52" y="476" type="line"/>
      <point x="47" y="475"/>
      <point x="46" y="474"/>
      <point x="46" y="469" type="curve"/>
      <point x="46" y="462" type="line"/>
      <point x="46" y="457"/>
      <point x="47" y="456"/>
      <point x="52" y="455" type="curve"/>
      <point x="160" y="446" type="line"/>
      <point x="141" y="471" type="line"/>
    </contour>
  </outline>
</glyph>
<glyph name="s" format="2">
  <advance width="510"/>
  <unicode hex="0073"/>
  <anchor x="255" y="0" name="bottom"/>
  <anchor x="255" y="486" name="top"/>
  <anchor x="183" y="486" name="top_acutedot"/>
  <outline>
    <contour>
      <point x="276" y="265" type="curve" smooth="yes"/>
      <point x="168" y="300"/>
      <point x="136" y="324"/>
      <point x="136" y="370" type="curve" smooth="yes"/>
      <point x="136" y="427"/>
      <point x="190" y="463"/>
      <point x="276" y="463" type="curve" smooth="yes"/>
      <point x="327" y="463"/>
      <point x="377" y="454"/>
      <point x="386" y="400" type="curve" smooth="yes"/>
      <point x="394" y="346" type="line"/>
      <point x="395" y="341"/>
      <point x="396" y="340"/>
      <point x="401" y="340" type="curve"/>
      <point x="416" y="342" type="line"/>
      <point x="421" y="342"/>
      <point x="422" y="343"/>
      <point x="422" y="348" type="curve"/>
      <point x="413" y="458" type="line"/>
      <point x="413" y="463"/>
      <point x="412" y="465"/>
      <point x="408" y="467" type="curve"/>
      <point x="390" y="476"/>
      <point x="332" y="492"/>
      <point x="278" y="492" type="curve" smooth="yes"/>
      <point x="169" y="492"/>
      <point x="98" y="442"/>
      <point x="98" y="366" type="curve" smooth="yes"/>
      <point x="98" y="303"/>
      <point x="135" y="273"/>
      <point x="260" y="234" type="curve" smooth="yes"/>
      <point x="366" y="199"/>
      <point x="400" y="173"/>
      <point x="400" y="127" type="curve" smooth="yes"/>
      <point x="400" y="60"/>
      <point x="347" y="23"/>
      <point x="249" y="23" type="curve" smooth="yes"/>
      <point x="167" y="23"/>
      <point x="130" y="39"/>
      <point x="118" y="89" type="curve" smooth="yes"/>
      <point x="103" y="147" type="line"/>
      <point x="102" y="152"/>
      <point x="101" y="153"/>
      <point x="96" y="152" type="curve"/>
      <point x="84" y="150" type="line"/>
      <point x="79" y="149"/>
      <point x="78" y="148"/>
      <point x="79" y="143" type="curve"/>
      <point x="89" y="37" type="line"/>
      <point x="90" y="32"/>
      <point x="91" y="30"/>
      <point x="95" y="27" type="curve"/>
      <point x="120" y="11"/>
      <point x="180" y="-6"/>
      <point x="247" y="-6" type="curve" smooth="yes"/>
      <point x="369" y="-6"/>
      <point x="439" y="43"/>
      <point x="439" y="130" type="curve" smooth="yes"/>
      <point x="439" y="193"/>
      <point x="403" y="223"/>
    </contour>
  </outline>
</glyph>
<glyph name="t" format="2">
  <advance width="377"/>
  <unicode hex="0074"/>
  <anchor x="224" y="0" name="bottom"/>
  <anchor x="189" y="267" name="center"/>
  <anchor x="139" y="522" name="top"/>
  <anchor x="281" y="486" name="topright"/>
  <outline>
    <contour>
      <point x="234" y="-6" type="curve" smooth="yes"/>
      <point x="269" y="-6"/>
      <point x="304" y="2"/>
      <point x="332" y="14" type="curve"/>
      <point x="336" y="17"/>
      <point x="337" y="18"/>
      <point x="336" y="23" type="curve"/>
      <point x="335" y="34" type="line"/>
      <point x="334" y="39"/>
      <point x="333" y="40"/>
      <point x="328" y="38" type="curve"/>
      <point x="301" y="29"/>
      <point x="275" y="25"/>
      <point x="249" y="25" type="curve" smooth="yes"/>
      <point x="178" y="25"/>
      <point x="147" y="56"/>
      <point x="147" y="124" type="curve" smooth="yes"/>
      <point x="147" y="583" type="line"/>
      <point x="147" y="588"/>
      <point x="146" y="589"/>
      <point x="141" y="589" type="curve"/>
      <point x="133" y="589"/>
      <point x="124" y="588"/>
      <point x="117" y="586" type="curve"/>
      <point x="112" y="584"/>
      <point x="111" y="583"/>
      <point x="111" y="578" type="curve"/>
      <point x="111" y="486" type="line"/>
      <point x="111" y="484" type="line"/>
      <point x="111" y="124" type="line" smooth="yes"/>
      <point x="111" y="39"/>
      <point x="153" y="-6"/>
    </contour>
    <contour>
      <point x="36" y="455" type="curve"/>
      <point x="340" y="455" type="line"/>
      <point x="345" y="455"/>
      <point x="346" y="456"/>
      <point x="347" y="461" type="curve"/>
      <point x="348" y="468"/>
      <point x="348" y="475"/>
      <point x="348" y="482" type="curve"/>
      <point x="348" y="487"/>
      <point x="347" y="488"/>
      <point x="342" y="488" type="curve"/>
      <point x="301" y="486" type="line"/>
      <point x="111" y="486" type="line"/>
      <point x="41" y="478" type="line"/>
      <point x="36" y="477"/>
      <point x="35" y="476"/>
      <point x="34" y="471" type="curve"/>
      <point x="31" y="461" type="line"/>
      <point x="30" y="456"/>
      <point x="31" y="455"/>
    </contour>
  </outline>
</glyph>
<glyph name="u" format="2">
  <advance width="652"/>
  <unicode hex="0075"/>
  <anchor x="327" y="0" name="bottom"/>
  <anchor x="518" y="5" name="ogonek"/>
  <anchor x="323" y="486" name="top"/>
  <anchor x="610" y="486" name="topright"/>
  <outline>
    <contour>
      <point x="520" y="162" type="line"/>
      <point x="484" y="162" type="line"/>
      <point x="484" y="125" type="line"/>
      <point x="484" y="116" type="line"/>
      <point x="484" y="5" type="line" smooth="yes"/>
      <point x="484" y="-4"/>
      <point x="488" y="-6"/>
      <point x="493" y="-6" type="curve" smooth="yes"/>
      <point x="610" y="4" type="line"/>
      <point x="615" y="5"/>
      <point x="616" y="6"/>
      <point x="616" y="11" type="curve"/>
      <point x="616" y="18" type="line"/>
      <point x="616" y="23"/>
      <point x="615" y="24"/>
      <point x="610" y="25" type="curve"/>
      <point x="501" y="40" type="line"/>
      <point x="520" y="14" type="line"/>
    </contour>
    <contour>
      <point x="266" y="-6" type="curve" smooth="yes"/>
      <point x="353" y="-6"/>
      <point x="443" y="46"/>
      <point x="500" y="120" type="curve"/>
      <point x="496" y="147" type="line"/>
      <point x="423" y="66"/>
      <point x="349" y="28"/>
      <point x="267" y="28" type="curve" smooth="yes"/>
      <point x="197" y="28"/>
      <point x="161" y="68"/>
      <point x="161" y="147" type="curve" smooth="yes"/>
      <point x="161" y="327" type="line"/>
      <point x="125" y="327" type="line"/>
      <point x="125" y="147" type="line" smooth="yes"/>
      <point x="125" y="45"/>
      <point x="172" y="-6"/>
    </contour>
    <contour>
      <point x="484" y="162" type="line"/>
      <point x="520" y="162" type="line"/>
      <point x="520" y="327" type="line"/>
      <point x="484" y="327" type="line"/>
    </contour>
    <contour>
      <point x="125" y="327" type="line"/>
      <point x="161" y="327" type="line"/>
      <point x="161" y="480" type="line"/>
      <point x="161" y="491"/>
      <point x="158" y="494"/>
      <point x="141" y="491" type="curve"/>
      <point x="36" y="476" type="line"/>
      <point x="31" y="475"/>
      <point x="30" y="474"/>
      <point x="30" y="469" type="curve"/>
      <point x="30" y="462" type="line"/>
      <point x="30" y="457"/>
      <point x="31" y="456"/>
      <point x="36" y="455" type="curve"/>
      <point x="144" y="446" type="line"/>
      <point x="125" y="471" type="line"/>
    </contour>
    <contour>
      <point x="484" y="327" type="line"/>
      <point x="520" y="327" type="line"/>
      <point x="520" y="480" type="line"/>
      <point x="520" y="491"/>
      <point x="517" y="494"/>
      <point x="500" y="491" type="curve"/>
      <point x="395" y="476" type="line"/>
      <point x="390" y="475"/>
      <point x="389" y="474"/>
      <point x="389" y="469" type="curve"/>
      <point x="389" y="462" type="line"/>
      <point x="389" y="457"/>
      <point x="390" y="456"/>
      <point x="395" y="455" type="curve"/>
      <point x="503" y="446" type="line"/>
      <point x="484" y="471" type="line"/>
    </contour>
  </outline>
</glyph>
<glyph name="v" format="2">
  <advance width="525"/>
  <unicode hex="0076"/>
  <outline>
    <contour>
      <point x="269" y="-2" type="curve"/>
      <point x="276" y="-2" type="line"/>
      <point x="281" y="-2"/>
      <point x="282" y="-1"/>
      <point x="284" y="3" type="curve"/>
      <point x="479" y="441" type="line"/>
      <point x="483" y="451"/>
      <point x="490" y="457"/>
      <point x="499" y="458" type="curve"/>
      <point x="554" y="464" type="line"/>
      <point x="559" y="465"/>
      <point x="560" y="466"/>
      <point x="560" y="471" type="curve"/>
      <point x="560" y="480" type="line"/>
      <point x="560" y="485"/>
      <point x="559" y="486"/>
      <point x="554" y="486" type="curve"/>
      <point x="346" y="486" type="line"/>
      <point x="341" y="486"/>
      <point x="340" y="485"/>
      <point x="340" y="480" type="curve"/>
      <point x="340" y="471" type="line"/>
      <point x="340" y="466"/>
      <point x="341" y="465"/>
      <point x="346" y="465" type="curve"/>
      <point x="411" y="460" type="line"/>
      <point x="440" y="458"/>
      <point x="449" y="451"/>
      <point x="437" y="423" type="curve"/>
      <point x="260" y="16" type="line"/>
      <point x="283" y="31" type="line"/>
      <point x="265" y="70"/>
      <point x="247" y="108"/>
      <point x="228" y="147" type="curve" smooth="yes"/>
      <point x="98" y="421" type="line"/>
      <point x="85" y="447"/>
      <point x="87" y="458"/>
      <point x="117" y="460" type="curve"/>
      <point x="187" y="465" type="line"/>
      <point x="192" y="465"/>
      <point x="193" y="466"/>
      <point x="193" y="471" type="curve"/>
      <point x="193" y="480" type="line"/>
      <point x="193" y="485"/>
      <point x="192" y="486"/>
      <point x="187" y="486" type="curve"/>
      <point x="-29" y="486" type="line"/>
      <point x="-34" y="486"/>
      <point x="-35" y="485"/>
      <point x="-35" y="480" type="curve"/>
      <point x="-35" y="471" type="line"/>
      <point x="-35" y="466"/>
      <point x="-34" y="465"/>
      <point x="-29" y="464" type="curve"/>
      <point x="23" y="460" type="line"/>
      <point x="33" y="459"/>
      <point x="42" y="454"/>
      <point x="46" y="446" type="curve"/>
      <point x="260" y="3" type="line"/>
      <point x="263" y="-1"/>
      <point x="264" y="-2"/>
    </contour>
  </outline>
</glyph>
<glyph name="w" format="2">
  <advance width="754"/>
  <unicode hex="0077"/>
  <anchor x="381" y="0" name="bottom"/>
  <anchor x="383" y="486" name="top"/>
  <outline>
    <contour>
      <point x="226" y="-2" type="curve"/>
      <point x="234" y="-2" type="line"/>
      <point x="239" y="-2"/>
      <point x="240" y="-1"/>
      <point x="242" y="4" type="curve"/>
      <point x="390" y="452" type="line"/>
      <point x="371" y="436" type="line"/>
      <point x="532" y="4" type="line"/>
      <point x="534" y="-1"/>
      <point x="535" y="-2"/>
      <point x="540" y="-2" type="curve"/>
      <point x="547" y="-2" type="line"/>
      <point x="552" y="-2"/>
      <point x="553" y="-1"/>
      <point x="555" y="4" type="curve"/>
      <point x="706" y="441" type="line"/>
      <point x="710" y="450"/>
      <point x="716" y="457"/>
      <point x="725" y="458" type="curve"/>
      <point x="783" y="464" type="line"/>
      <point x="788" y="465"/>
      <point x="789" y="466"/>
      <point x="789" y="471" type="curve"/>
      <point x="789" y="480" type="line"/>
      <point x="789" y="485"/>
      <point x="788" y="486"/>
      <point x="783" y="486" type="curve"/>
      <point x="575" y="486" type="line"/>
      <point x="570" y="486"/>
      <point x="569" y="485"/>
      <point x="569" y="480" type="curve"/>
      <point x="569" y="471" type="line"/>
      <point x="569" y="466"/>
      <point x="570" y="465"/>
      <point x="575" y="465" type="curve"/>
      <point x="640" y="461" type="line"/>
      <point x="669" y="459"/>
      <point x="679" y="451"/>
      <point x="669" y="423" type="curve"/>
      <point x="531" y="23" type="line"/>
      <point x="557" y="35" type="line"/>
      <point x="542" y="73"/>
      <point x="529" y="112"/>
      <point x="514" y="151" type="curve" smooth="yes"/>
      <point x="391" y="480" type="line"/>
      <point x="389" y="485"/>
      <point x="388" y="486"/>
      <point x="383" y="486" type="curve"/>
      <point x="376" y="486" type="line"/>
      <point x="371" y="486"/>
      <point x="370" y="485"/>
      <point x="368" y="480" type="curve"/>
      <point x="217" y="21" type="line"/>
      <point x="242" y="31" type="line"/>
      <point x="228" y="71"/>
      <point x="214" y="111"/>
      <point x="199" y="151" type="curve" smooth="yes"/>
      <point x="98" y="420" type="line"/>
      <point x="88" y="447"/>
      <point x="91" y="458"/>
      <point x="121" y="460" type="curve"/>
      <point x="187" y="465" type="line"/>
      <point x="192" y="465"/>
      <point x="193" y="466"/>
      <point x="193" y="471" type="curve"/>
      <point x="193" y="480" type="line"/>
      <point x="193" y="485"/>
      <point x="192" y="486"/>
      <point x="187" y="486" type="curve"/>
      <point x="-29" y="486" type="line"/>
      <point x="-34" y="486"/>
      <point x="-35" y="485"/>
      <point x="-35" y="480" type="curve"/>
      <point x="-35" y="471" type="line"/>
      <point x="-35" y="466"/>
      <point x="-34" y="465"/>
      <point x="-29" y="464" type="curve"/>
      <point x="26" y="460" type="line"/>
      <point x="36" y="459"/>
      <point x="44" y="454"/>
      <point x="48" y="446" type="curve"/>
      <point x="218" y="4" type="line"/>
      <point x="220" y="-1"/>
      <point x="221" y="-2"/>
    </contour>
  </outline>
</glyph>
<glyph name="x" format="2">
  <advance width="569"/>
  <unicode hex="0078"/>
  <outline>
    <contour>
      <point x="367" y="0" type="curve"/>
      <point x="557" y="0" type="line"/>
      <point x="562" y="0"/>
      <point x="563" y="1"/>
      <point x="563" y="6" type="curve"/>
      <point x="563" y="14" type="line"/>
      <point x="563" y="19"/>
      <point x="562" y="20"/>
      <point x="557" y="21" type="curve"/>
      <point x="510" y="28" type="line"/>
      <point x="500" y="29"/>
      <point x="490" y="33"/>
      <point x="485" y="40" type="curve"/>
      <point x="157" y="427" type="line"/>
      <point x="139" y="449"/>
      <point x="138" y="459"/>
      <point x="168" y="461" type="curve"/>
      <point x="215" y="465" type="line"/>
      <point x="220" y="466"/>
      <point x="221" y="467"/>
      <point x="221" y="472" type="curve"/>
      <point x="221" y="480" type="line"/>
      <point x="221" y="485"/>
      <point x="220" y="486"/>
      <point x="215" y="486" type="curve"/>
      <point x="24" y="486" type="line"/>
      <point x="19" y="486"/>
      <point x="18" y="485"/>
      <point x="18" y="480" type="curve"/>
      <point x="18" y="472" type="line"/>
      <point x="18" y="467"/>
      <point x="19" y="466"/>
      <point x="24" y="465" type="curve"/>
      <point x="71" y="458" type="line"/>
      <point x="81" y="457"/>
      <point x="91" y="453"/>
      <point x="96" y="446" type="curve"/>
      <point x="422" y="61" type="line"/>
      <point x="440" y="39"/>
      <point x="441" y="29"/>
      <point x="411" y="27" type="curve"/>
      <point x="367" y="23" type="line"/>
      <point x="362" y="23"/>
      <point x="361" y="22"/>
      <point x="361" y="17" type="curve"/>
      <point x="361" y="6" type="line"/>
      <point x="361" y="1"/>
      <point x="362" y="0"/>
    </contour>
    <contour>
      <point x="10" y="0" type="curve"/>
      <point x="197" y="0" type="line"/>
      <point x="202" y="0"/>
      <point x="203" y="1"/>
      <point x="203" y="6" type="curve"/>
      <point x="203" y="14" type="line"/>
      <point x="203" y="19"/>
      <point x="202" y="20"/>
      <point x="197" y="21" type="curve"/>
      <point x="159" y="25" type="line"/>
      <point x="130" y="29"/>
      <point x="122" y="35"/>
      <point x="142" y="58" type="curve"/>
      <point x="301" y="251" type="line"/>
      <point x="266" y="251" type="line"/>
      <point x="90" y="43" type="line"/>
      <point x="84" y="35"/>
      <point x="75" y="29"/>
      <point x="66" y="28" type="curve"/>
      <point x="10" y="21" type="line"/>
      <point x="5" y="20"/>
      <point x="4" y="19"/>
      <point x="4" y="14" type="curve"/>
      <point x="4" y="6" type="line"/>
      <point x="4" y="1"/>
      <point x="5" y="0"/>
    </contour>
    <contour>
      <point x="419" y="430" type="curve"/>
      <point x="257" y="236" type="line"/>
      <point x="292" y="236" type="line"/>
      <point x="469" y="443" type="line"/>
      <point x="475" y="451"/>
      <point x="484" y="457"/>
      <point x="493" y="458" type="curve"/>
      <point x="548" y="465" type="line"/>
      <point x="553" y="466"/>
      <point x="554" y="467"/>
      <point x="554" y="472" type="curve"/>
      <point x="554" y="480" type="line"/>
      <point x="554" y="485"/>
      <point x="553" y="486"/>
      <point x="548" y="486" type="curve"/>
      <point x="359" y="486" type="line"/>
      <point x="354" y="486"/>
      <point x="353" y="485"/>
      <point x="353" y="480" type="curve"/>
      <point x="353" y="472" type="line"/>
      <point x="353" y="467"/>
      <point x="354" y="466"/>
      <point x="359" y="465" type="curve"/>
      <point x="402" y="462" type="line"/>
      <point x="431" y="459"/>
      <point x="439" y="453"/>
    </contour>
  </outline>
</glyph>
<glyph name="y" format="2">
  <advance width="514"/>
  <unicode hex="0079"/>
  <anchor x="349" y="0" name="bottom"/>
  <anchor x="275" y="486" name="top"/>
  <outline>
    <contour>
      <point x="110" y="-211" type="curve" smooth="yes"/>
      <point x="166" y="-211"/>
      <point x="203" y="-180"/>
      <point x="236" y="-106" type="curve" smooth="yes"/>
      <point x="480" y="442" type="line"/>
      <point x="484" y="452"/>
      <point x="491" y="458"/>
      <point x="500" y="459" type="curve"/>
      <point x="554" y="464" type="line"/>
      <point x="559" y="465"/>
      <point x="560" y="466"/>
      <point x="560" y="471" type="curve"/>
      <point x="560" y="480" type="line"/>
      <point x="560" y="485"/>
      <point x="559" y="486"/>
      <point x="554" y="486" type="curve"/>
      <point x="346" y="486" type="line"/>
      <point x="341" y="486"/>
      <point x="340" y="485"/>
      <point x="340" y="480" type="curve"/>
      <point x="340" y="471" type="line"/>
      <point x="340" y="466"/>
      <point x="341" y="465"/>
      <point x="346" y="465" type="curve"/>
      <point x="412" y="461" type="line"/>
      <point x="441" y="459"/>
      <point x="450" y="452"/>
      <point x="438" y="424" type="curve"/>
      <point x="209" y="-95" type="line" smooth="yes"/>
      <point x="186" y="-147"/>
      <point x="163" y="-170"/>
      <point x="123" y="-170" type="curve" smooth="yes"/>
      <point x="109" y="-170"/>
      <point x="98" y="-168"/>
      <point x="87" y="-165" type="curve"/>
      <point x="82" y="-164"/>
      <point x="80" y="-165"/>
      <point x="78" y="-169" type="curve"/>
      <point x="75" y="-174"/>
      <point x="73" y="-180"/>
      <point x="73" y="-187" type="curve" smooth="yes"/>
      <point x="73" y="-203"/>
      <point x="89" y="-211"/>
    </contour>
    <contour>
      <point x="46" y="446" type="curve"/>
      <point x="268" y="5" type="line"/>
      <point x="285" y="48" type="line"/>
      <point x="99" y="421" type="line"/>
      <point x="86" y="447"/>
      <point x="88" y="458"/>
      <point x="118" y="460" type="curve"/>
      <point x="187" y="465" type="line"/>
      <point x="192" y="465"/>
      <point x="193" y="466"/>
      <point x="193" y="471" type="curve"/>
      <point x="193" y="480" type="line"/>
      <point x="193" y="485"/>
      <point x="192" y="486"/>
      <point x="187" y="486" type="curve"/>
      <point x="-29" y="486" type="line"/>
      <point x="-34" y="486"/>
      <point x="-35" y="485"/>
      <point x="-35" y="480" type="curve"/>
      <point x="-35" y="471" type="line"/>
      <point x="-35" y="466"/>
      <point x="-34" y="465"/>
      <point x="-29" y="464" type="curve"/>
      <point x="23" y="460" type="line"/>
      <point x="33" y="459"/>
      <point x="42" y="454"/>
    </contour>
  </outline>
</glyph>
<glyph name="z" format="2">
  <advance width="511"/>
  <unicode hex="007A"/>
  <anchor x="255" y="0" name="bottom"/>
  <anchor x="255" y="243" name="center"/>
  <anchor x="255" y="486" name="top"/>
  <outline>
    <contour>
      <point x="421" y="127" type="curve"/>
      <point x="404" y="44" type="line"/>
      <point x="402" y="34"/>
      <point x="397" y="27"/>
      <point x="388" y="27" type="curve"/>
      <point x="95" y="27" type="line"/>
      <point x="106" y="11" type="line"/>
      <point x="431" y="466" type="line"/>
      <point x="433" y="470"/>
      <point x="434" y="472"/>
      <point x="433" y="477" type="curve"/>
      <point x="432" y="480" type="line"/>
      <point x="431" y="485"/>
      <point x="430" y="486"/>
      <point x="425" y="486" type="curve"/>
      <point x="93" y="486" type="line"/>
      <point x="88" y="486"/>
      <point x="87" y="485"/>
      <point x="87" y="480" type="curve"/>
      <point x="82" y="361" type="line"/>
      <point x="82" y="356"/>
      <point x="83" y="355"/>
      <point x="88" y="355" type="curve"/>
      <point x="94" y="354" type="line"/>
      <point x="99" y="354"/>
      <point x="100" y="355"/>
      <point x="101" y="360" type="curve"/>
      <point x="119" y="442" type="line"/>
      <point x="122" y="452"/>
      <point x="127" y="459"/>
      <point x="136" y="459" type="curve"/>
      <point x="400" y="459" type="line"/>
      <point x="395" y="471" type="line"/>
      <point x="73" y="19" type="line"/>
      <point x="71" y="15"/>
      <point x="70" y="13"/>
      <point x="71" y="8" type="curve"/>
      <point x="71" y="6" type="line"/>
      <point x="72" y="1"/>
      <point x="73" y="0"/>
      <point x="78" y="0" type="curve"/>
      <point x="430" y="0" type="line"/>
      <point x="435" y="0"/>
      <point x="436" y="1"/>
      <point x="436" y="6" type="curve"/>
      <point x="440" y="125" type="line"/>
      <point x="440" y="130"/>
      <point x="439" y="131"/>
      <point x="434" y="132" type="curve"/>
      <point x="428" y="132" type="line"/>
      <point x="423" y="133"/>
      <point x="422" y="132"/>
    </contour>
  </outline>
</glyph>
<glyph name="braceleft" format="2">
  <advance width="398"/>
  <unicode hex="007B"/>
  <outline>
    <contour>
      <point x="313" y="-124" type="curve"/>
      <point x="315" y="-117" type="line"/>
      <point x="316" y="-112"/>
      <point x="315" y="-111"/>
      <point x="310" y="-110" type="curve"/>
      <point x="215" y="-95"/>
      <point x="192" y="-70"/>
      <point x="192" y="12" type="curve" smooth="yes"/>
      <point x="192" y="48"/>
      <point x="198" y="160"/>
      <point x="198" y="237" type="curve" smooth="yes"/>
      <point x="198" y="298"/>
      <point x="154" y="354"/>
      <point x="66" y="354" type="curve"/>
      <point x="66" y="351" type="line"/>
      <point x="154" y="351"/>
      <point x="198" y="407"/>
      <point x="198" y="467" type="curve" smooth="yes"/>
      <point x="198" y="545"/>
      <point x="192" y="659"/>
      <point x="192" y="695" type="curve" smooth="yes"/>
      <point x="192" y="778"/>
      <point x="215" y="803"/>
      <point x="310" y="817" type="curve"/>
      <point x="315" y="818"/>
      <point x="316" y="819"/>
      <point x="315" y="824" type="curve"/>
      <point x="313" y="831" type="line"/>
      <point x="312" y="836"/>
      <point x="311" y="837"/>
      <point x="306" y="836" type="curve"/>
      <point x="187" y="823"/>
      <point x="155" y="779"/>
      <point x="155" y="695" type="curve" smooth="yes"/>
      <point x="155" y="659"/>
      <point x="161" y="545"/>
      <point x="161" y="467" type="curve" smooth="yes"/>
      <point x="161" y="417"/>
      <point x="130" y="366"/>
      <point x="33" y="366" type="curve" smooth="yes"/>
      <point x="18" y="366" type="line"/>
      <point x="13" y="366"/>
      <point x="12" y="365"/>
      <point x="12" y="360" type="curve"/>
      <point x="12" y="343" type="line"/>
      <point x="12" y="338"/>
      <point x="13" y="337"/>
      <point x="18" y="337" type="curve"/>
      <point x="33" y="337" type="line" smooth="yes"/>
      <point x="130" y="337"/>
      <point x="161" y="288"/>
      <point x="161" y="237" type="curve" smooth="yes"/>
      <point x="161" y="160"/>
      <point x="155" y="48"/>
      <point x="155" y="12" type="curve" smooth="yes"/>
      <point x="155" y="-71"/>
      <point x="187" y="-116"/>
      <point x="306" y="-129" type="curve"/>
      <point x="311" y="-130"/>
      <point x="312" y="-129"/>
    </contour>
  </outline>
</glyph>
<glyph name="bar" format="2">
  <advance width="490"/>
  <unicode hex="007C"/>
  <outline>
    <contour>
      <point x="232" y="-198" type="curve"/>
      <point x="248" y="-197" type="line"/>
      <point x="258" y="-196"/>
      <point x="260" y="-194"/>
      <point x="260" y="-177" type="curve"/>
      <point x="260" y="731" type="line"/>
      <point x="265" y="784" type="line"/>
      <point x="266" y="789"/>
      <point x="265" y="790"/>
      <point x="260" y="790" type="curve"/>
      <point x="252" y="790"/>
      <point x="245" y="789"/>
      <point x="236" y="787" type="curve"/>
      <point x="227" y="786"/>
      <point x="226" y="784"/>
      <point x="226" y="773" type="curve"/>
      <point x="226" y="-193" type="line"/>
      <point x="226" y="-198"/>
      <point x="227" y="-199"/>
    </contour>
  </outline>
</glyph>
<glyph name="asciitilde" format="2">
  <advance width="670"/>
  <unicode hex="007E"/>
  <outline>
    <contour>
      <point x="62" y="215" type="curve"/>
      <point x="73" y="209" type="line"/>
      <point x="78" y="207"/>
      <point x="80" y="208"/>
      <point x="82" y="212" type="curve"/>
      <point x="110" y="258"/>
      <point x="152" y="308"/>
      <point x="220" y="308" type="curve" smooth="yes"/>
      <point x="309" y="308"/>
      <point x="344" y="212"/>
      <point x="445" y="212" type="curve" smooth="yes"/>
      <point x="530" y="212"/>
      <point x="582" y="278"/>
      <point x="611" y="330" type="curve"/>
      <point x="614" y="334"/>
      <point x="613" y="335"/>
      <point x="608" y="337" type="curve"/>
      <point x="597" y="343" type="line"/>
      <point x="592" y="345"/>
      <point x="590" y="344"/>
      <point x="588" y="340" type="curve"/>
      <point x="560" y="294"/>
      <point x="518" y="243"/>
      <point x="450" y="243" type="curve" smooth="yes"/>
      <point x="361" y="243"/>
      <point x="326" y="340"/>
      <point x="225" y="340" type="curve" smooth="yes"/>
      <point x="140" y="340"/>
      <point x="88" y="274"/>
      <point x="59" y="222" type="curve"/>
      <point x="56" y="218"/>
      <point x="57" y="217"/>
    </contour>
  </outline>
</glyph>
